<?xml version="1.0" encoding="utf-8" standalone="no"?>
<!DOCTYPE svg PUBLIC "-//W3C//DTD SVG 1.1//EN"
  "http://www.w3.org/Graphics/SVG/1.1/DTD/svg11.dtd">
<!-- Created with matplotlib (https://matplotlib.org/) -->
<svg height="432pt" version="1.1" viewBox="0 0 864 432" width="864pt" xmlns="http://www.w3.org/2000/svg" xmlns:xlink="http://www.w3.org/1999/xlink">
 <defs>
  <style type="text/css">
*{stroke-linecap:butt;stroke-linejoin:round;}
  </style>
 </defs>
 <g id="figure_1">
  <g id="patch_1">
   <path d="M 0 432 
L 864 432 
L 864 0 
L 0 0 
z
" style="fill:#ffffff;"/>
  </g>
  <g id="axes_1">
   <g id="patch_2">
    <path d="M 39.94 193.52 
L 414.665357 193.52 
L 414.665357 37.968 
L 39.94 37.968 
z
" style="fill:#ffffff;"/>
   </g>
   <g id="matplotlib.axis_1">
    <g id="xtick_1">
     <g id="line2d_1">
      <defs>
       <path d="M 0 0 
L 0 3.5 
" id="mafa90fac01" style="stroke:#000000;stroke-width:0.8;"/>
      </defs>
      <g>
       <use style="stroke:#000000;stroke-width:0.8;" x="56.972971" xlink:href="#mafa90fac01" y="193.52"/>
      </g>
     </g>
     <g id="text_1">
      <!-- 0 -->
      <defs>
       <path d="M 31.78125 66.40625 
Q 24.171875 66.40625 20.328125 58.90625 
Q 16.5 51.421875 16.5 36.375 
Q 16.5 21.390625 20.328125 13.890625 
Q 24.171875 6.390625 31.78125 6.390625 
Q 39.453125 6.390625 43.28125 13.890625 
Q 47.125 21.390625 47.125 36.375 
Q 47.125 51.421875 43.28125 58.90625 
Q 39.453125 66.40625 31.78125 66.40625 
z
M 31.78125 74.21875 
Q 44.046875 74.21875 50.515625 64.515625 
Q 56.984375 54.828125 56.984375 36.375 
Q 56.984375 17.96875 50.515625 8.265625 
Q 44.046875 -1.421875 31.78125 -1.421875 
Q 19.53125 -1.421875 13.0625 8.265625 
Q 6.59375 17.96875 6.59375 36.375 
Q 6.59375 54.828125 13.0625 64.515625 
Q 19.53125 74.21875 31.78125 74.21875 
z
" id="DejaVuSans-48"/>
      </defs>
      <g transform="translate(53.791721 208.118437)scale(0.1 -0.1)">
       <use xlink:href="#DejaVuSans-48"/>
      </g>
     </g>
    </g>
    <g id="xtick_2">
     <g id="line2d_2">
      <g>
       <use style="stroke:#000000;stroke-width:0.8;" x="125.793055" xlink:href="#mafa90fac01" y="193.52"/>
      </g>
     </g>
     <g id="text_2">
      <!-- 20 -->
      <defs>
       <path d="M 19.1875 8.296875 
L 53.609375 8.296875 
L 53.609375 0 
L 7.328125 0 
L 7.328125 8.296875 
Q 12.9375 14.109375 22.625 23.890625 
Q 32.328125 33.6875 34.8125 36.53125 
Q 39.546875 41.84375 41.421875 45.53125 
Q 43.3125 49.21875 43.3125 52.78125 
Q 43.3125 58.59375 39.234375 62.25 
Q 35.15625 65.921875 28.609375 65.921875 
Q 23.96875 65.921875 18.8125 64.3125 
Q 13.671875 62.703125 7.8125 59.421875 
L 7.8125 69.390625 
Q 13.765625 71.78125 18.9375 73 
Q 24.125 74.21875 28.421875 74.21875 
Q 39.75 74.21875 46.484375 68.546875 
Q 53.21875 62.890625 53.21875 53.421875 
Q 53.21875 48.921875 51.53125 44.890625 
Q 49.859375 40.875 45.40625 35.40625 
Q 44.1875 33.984375 37.640625 27.21875 
Q 31.109375 20.453125 19.1875 8.296875 
z
" id="DejaVuSans-50"/>
      </defs>
      <g transform="translate(119.430555 208.118437)scale(0.1 -0.1)">
       <use xlink:href="#DejaVuSans-50"/>
       <use x="63.623047" xlink:href="#DejaVuSans-48"/>
      </g>
     </g>
    </g>
    <g id="xtick_3">
     <g id="line2d_3">
      <g>
       <use style="stroke:#000000;stroke-width:0.8;" x="194.613139" xlink:href="#mafa90fac01" y="193.52"/>
      </g>
     </g>
     <g id="text_3">
      <!-- 40 -->
      <defs>
       <path d="M 37.796875 64.3125 
L 12.890625 25.390625 
L 37.796875 25.390625 
z
M 35.203125 72.90625 
L 47.609375 72.90625 
L 47.609375 25.390625 
L 58.015625 25.390625 
L 58.015625 17.1875 
L 47.609375 17.1875 
L 47.609375 0 
L 37.796875 0 
L 37.796875 17.1875 
L 4.890625 17.1875 
L 4.890625 26.703125 
z
" id="DejaVuSans-52"/>
      </defs>
      <g transform="translate(188.250639 208.118437)scale(0.1 -0.1)">
       <use xlink:href="#DejaVuSans-52"/>
       <use x="63.623047" xlink:href="#DejaVuSans-48"/>
      </g>
     </g>
    </g>
    <g id="xtick_4">
     <g id="line2d_4">
      <g>
       <use style="stroke:#000000;stroke-width:0.8;" x="263.433223" xlink:href="#mafa90fac01" y="193.52"/>
      </g>
     </g>
     <g id="text_4">
      <!-- 60 -->
      <defs>
       <path d="M 33.015625 40.375 
Q 26.375 40.375 22.484375 35.828125 
Q 18.609375 31.296875 18.609375 23.390625 
Q 18.609375 15.53125 22.484375 10.953125 
Q 26.375 6.390625 33.015625 6.390625 
Q 39.65625 6.390625 43.53125 10.953125 
Q 47.40625 15.53125 47.40625 23.390625 
Q 47.40625 31.296875 43.53125 35.828125 
Q 39.65625 40.375 33.015625 40.375 
z
M 52.59375 71.296875 
L 52.59375 62.3125 
Q 48.875 64.0625 45.09375 64.984375 
Q 41.3125 65.921875 37.59375 65.921875 
Q 27.828125 65.921875 22.671875 59.328125 
Q 17.53125 52.734375 16.796875 39.40625 
Q 19.671875 43.65625 24.015625 45.921875 
Q 28.375 48.1875 33.59375 48.1875 
Q 44.578125 48.1875 50.953125 41.515625 
Q 57.328125 34.859375 57.328125 23.390625 
Q 57.328125 12.15625 50.6875 5.359375 
Q 44.046875 -1.421875 33.015625 -1.421875 
Q 20.359375 -1.421875 13.671875 8.265625 
Q 6.984375 17.96875 6.984375 36.375 
Q 6.984375 53.65625 15.1875 63.9375 
Q 23.390625 74.21875 37.203125 74.21875 
Q 40.921875 74.21875 44.703125 73.484375 
Q 48.484375 72.75 52.59375 71.296875 
z
" id="DejaVuSans-54"/>
      </defs>
      <g transform="translate(257.070723 208.118437)scale(0.1 -0.1)">
       <use xlink:href="#DejaVuSans-54"/>
       <use x="63.623047" xlink:href="#DejaVuSans-48"/>
      </g>
     </g>
    </g>
    <g id="xtick_5">
     <g id="line2d_5">
      <g>
       <use style="stroke:#000000;stroke-width:0.8;" x="332.253307" xlink:href="#mafa90fac01" y="193.52"/>
      </g>
     </g>
     <g id="text_5">
      <!-- 80 -->
      <defs>
       <path d="M 31.78125 34.625 
Q 24.75 34.625 20.71875 30.859375 
Q 16.703125 27.09375 16.703125 20.515625 
Q 16.703125 13.921875 20.71875 10.15625 
Q 24.75 6.390625 31.78125 6.390625 
Q 38.8125 6.390625 42.859375 10.171875 
Q 46.921875 13.96875 46.921875 20.515625 
Q 46.921875 27.09375 42.890625 30.859375 
Q 38.875 34.625 31.78125 34.625 
z
M 21.921875 38.8125 
Q 15.578125 40.375 12.03125 44.71875 
Q 8.5 49.078125 8.5 55.328125 
Q 8.5 64.0625 14.71875 69.140625 
Q 20.953125 74.21875 31.78125 74.21875 
Q 42.671875 74.21875 48.875 69.140625 
Q 55.078125 64.0625 55.078125 55.328125 
Q 55.078125 49.078125 51.53125 44.71875 
Q 48 40.375 41.703125 38.8125 
Q 48.828125 37.15625 52.796875 32.3125 
Q 56.78125 27.484375 56.78125 20.515625 
Q 56.78125 9.90625 50.3125 4.234375 
Q 43.84375 -1.421875 31.78125 -1.421875 
Q 19.734375 -1.421875 13.25 4.234375 
Q 6.78125 9.90625 6.78125 20.515625 
Q 6.78125 27.484375 10.78125 32.3125 
Q 14.796875 37.15625 21.921875 38.8125 
z
M 18.3125 54.390625 
Q 18.3125 48.734375 21.84375 45.5625 
Q 25.390625 42.390625 31.78125 42.390625 
Q 38.140625 42.390625 41.71875 45.5625 
Q 45.3125 48.734375 45.3125 54.390625 
Q 45.3125 60.0625 41.71875 63.234375 
Q 38.140625 66.40625 31.78125 66.40625 
Q 25.390625 66.40625 21.84375 63.234375 
Q 18.3125 60.0625 18.3125 54.390625 
z
" id="DejaVuSans-56"/>
      </defs>
      <g transform="translate(325.890807 208.118437)scale(0.1 -0.1)">
       <use xlink:href="#DejaVuSans-56"/>
       <use x="63.623047" xlink:href="#DejaVuSans-48"/>
      </g>
     </g>
    </g>
    <g id="xtick_6">
     <g id="line2d_6">
      <g>
       <use style="stroke:#000000;stroke-width:0.8;" x="401.073391" xlink:href="#mafa90fac01" y="193.52"/>
      </g>
     </g>
     <g id="text_6">
      <!-- 100 -->
      <defs>
       <path d="M 12.40625 8.296875 
L 28.515625 8.296875 
L 28.515625 63.921875 
L 10.984375 60.40625 
L 10.984375 69.390625 
L 28.421875 72.90625 
L 38.28125 72.90625 
L 38.28125 8.296875 
L 54.390625 8.296875 
L 54.390625 0 
L 12.40625 0 
z
" id="DejaVuSans-49"/>
      </defs>
      <g transform="translate(391.529641 208.118437)scale(0.1 -0.1)">
       <use xlink:href="#DejaVuSans-49"/>
       <use x="63.623047" xlink:href="#DejaVuSans-48"/>
       <use x="127.246094" xlink:href="#DejaVuSans-48"/>
      </g>
     </g>
    </g>
   </g>
   <g id="matplotlib.axis_2">
    <g id="ytick_1">
     <g id="line2d_7">
      <defs>
       <path d="M 0 0 
L -3.5 0 
" id="m76be57c93b" style="stroke:#000000;stroke-width:0.8;"/>
      </defs>
      <g>
       <use style="stroke:#000000;stroke-width:0.8;" x="39.94" xlink:href="#m76be57c93b" y="186.449455"/>
      </g>
     </g>
     <g id="text_7">
      <!-- 0.00 -->
      <defs>
       <path d="M 10.6875 12.40625 
L 21 12.40625 
L 21 0 
L 10.6875 0 
z
" id="DejaVuSans-46"/>
      </defs>
      <g transform="translate(10.674375 190.248673)scale(0.1 -0.1)">
       <use xlink:href="#DejaVuSans-48"/>
       <use x="63.623047" xlink:href="#DejaVuSans-46"/>
       <use x="95.410156" xlink:href="#DejaVuSans-48"/>
       <use x="159.033203" xlink:href="#DejaVuSans-48"/>
      </g>
     </g>
    </g>
    <g id="ytick_2">
     <g id="line2d_8">
      <g>
       <use style="stroke:#000000;stroke-width:0.8;" x="39.94" xlink:href="#m76be57c93b" y="150.845259"/>
      </g>
     </g>
     <g id="text_8">
      <!-- 0.02 -->
      <g transform="translate(10.674375 154.644477)scale(0.1 -0.1)">
       <use xlink:href="#DejaVuSans-48"/>
       <use x="63.623047" xlink:href="#DejaVuSans-46"/>
       <use x="95.410156" xlink:href="#DejaVuSans-48"/>
       <use x="159.033203" xlink:href="#DejaVuSans-50"/>
      </g>
     </g>
    </g>
    <g id="ytick_3">
     <g id="line2d_9">
      <g>
       <use style="stroke:#000000;stroke-width:0.8;" x="39.94" xlink:href="#m76be57c93b" y="115.241063"/>
      </g>
     </g>
     <g id="text_9">
      <!-- 0.04 -->
      <g transform="translate(10.674375 119.040281)scale(0.1 -0.1)">
       <use xlink:href="#DejaVuSans-48"/>
       <use x="63.623047" xlink:href="#DejaVuSans-46"/>
       <use x="95.410156" xlink:href="#DejaVuSans-48"/>
       <use x="159.033203" xlink:href="#DejaVuSans-52"/>
      </g>
     </g>
    </g>
    <g id="ytick_4">
     <g id="line2d_10">
      <g>
       <use style="stroke:#000000;stroke-width:0.8;" x="39.94" xlink:href="#m76be57c93b" y="79.636867"/>
      </g>
     </g>
     <g id="text_10">
      <!-- 0.06 -->
      <g transform="translate(10.674375 83.436085)scale(0.1 -0.1)">
       <use xlink:href="#DejaVuSans-48"/>
       <use x="63.623047" xlink:href="#DejaVuSans-46"/>
       <use x="95.410156" xlink:href="#DejaVuSans-48"/>
       <use x="159.033203" xlink:href="#DejaVuSans-54"/>
      </g>
     </g>
    </g>
    <g id="ytick_5">
     <g id="line2d_11">
      <g>
       <use style="stroke:#000000;stroke-width:0.8;" x="39.94" xlink:href="#m76be57c93b" y="44.032671"/>
      </g>
     </g>
     <g id="text_11">
      <!-- 0.08 -->
      <g transform="translate(10.674375 47.83189)scale(0.1 -0.1)">
       <use xlink:href="#DejaVuSans-48"/>
       <use x="63.623047" xlink:href="#DejaVuSans-46"/>
       <use x="95.410156" xlink:href="#DejaVuSans-48"/>
       <use x="159.033203" xlink:href="#DejaVuSans-56"/>
      </g>
     </g>
    </g>
   </g>
   <g id="line2d_12">
    <path clip-path="url(#p943c4cd528)" d="M 56.972971 186.449455 
L 60.413975 186.449455 
L 63.854979 186.449455 
L 67.295983 146.147965 
L 70.736988 186.449455 
L 74.177992 110.728236 
L 77.618996 186.449455 
L 81.06 186.449455 
L 84.501004 186.449455 
L 87.942009 186.449455 
L 91.383013 186.449455 
L 94.824017 186.449455 
L 98.265021 91.566795 
L 101.706025 186.449455 
L 105.14703 186.449455 
L 108.588034 186.449455 
L 112.029038 186.449455 
L 115.470042 186.449455 
L 118.911046 186.449455 
L 122.352051 186.449455 
L 125.793055 186.449455 
L 129.234059 186.449455 
L 132.675063 62.640641 
L 136.116067 186.449455 
L 139.557072 186.449455 
L 142.998076 186.449455 
L 146.43908 186.449455 
L 149.880084 186.449455 
L 153.321088 186.449455 
L 156.762093 137.357883 
L 160.203097 186.449455 
L 163.644101 109.18408 
L 167.085105 186.449455 
L 170.526109 186.449455 
L 173.967114 186.449455 
L 177.408118 164.445375 
L 180.849122 186.449455 
L 184.290126 186.449455 
L 187.73113 186.449455 
L 191.172134 186.449455 
L 194.613139 158.250313 
L 198.054143 186.449455 
L 201.495147 186.449455 
L 204.936151 79.974153 
L 208.377155 186.449455 
L 211.81816 186.449455 
L 215.259164 186.449455 
L 218.700168 186.449455 
L 222.141172 186.449455 
L 225.582176 186.449455 
L 229.023181 186.449455 
L 232.464185 186.449455 
L 235.905189 186.449455 
L 239.346193 186.449455 
L 242.787197 79.066943 
L 246.228202 101.271556 
L 249.669206 58.719194 
L 253.11021 45.038545 
L 256.551214 186.449455 
L 259.992218 140.751077 
L 263.433223 186.449455 
L 266.874227 186.449455 
L 270.315231 98.818506 
L 273.756235 186.449455 
L 277.197239 186.449455 
L 280.638244 46.840974 
L 284.079248 94.203804 
L 287.520252 186.449455 
L 290.961256 83.128474 
L 294.40226 186.449455 
L 297.843265 186.449455 
L 301.284269 186.449455 
L 304.725273 186.449455 
L 308.166277 186.449455 
L 311.607281 186.449455 
L 315.048286 186.449455 
L 318.48929 186.449455 
L 321.930294 186.449455 
L 325.371298 186.449455 
L 328.812302 186.449455 
L 332.253307 186.449455 
L 335.694311 83.478591 
L 339.135315 186.449455 
L 342.576319 182.729103 
L 346.017323 186.449455 
L 349.458328 186.449455 
L 352.899332 186.449455 
L 356.340336 186.449455 
L 359.78134 186.449455 
L 363.222344 186.449455 
L 366.663349 186.449455 
L 370.104353 186.449455 
L 373.545357 186.449455 
L 376.986361 186.449455 
L 380.427365 60.886539 
L 383.86837 186.449455 
L 387.309374 186.449455 
L 390.750378 186.449455 
L 394.191382 186.449455 
L 397.632386 186.449455 
" style="fill:none;stroke:#008000;stroke-linecap:square;stroke-width:1.5;"/>
   </g>
   <g id="patch_3">
    <path d="M 39.94 193.52 
L 39.94 37.968 
" style="fill:none;stroke:#000000;stroke-linecap:square;stroke-linejoin:miter;stroke-width:0.8;"/>
   </g>
   <g id="patch_4">
    <path d="M 414.665357 193.52 
L 414.665357 37.968 
" style="fill:none;stroke:#000000;stroke-linecap:square;stroke-linejoin:miter;stroke-width:0.8;"/>
   </g>
   <g id="patch_5">
    <path d="M 39.94 193.52 
L 414.665357 193.52 
" style="fill:none;stroke:#000000;stroke-linecap:square;stroke-linejoin:miter;stroke-width:0.8;"/>
   </g>
   <g id="patch_6">
    <path d="M 39.94 37.968 
L 414.665357 37.968 
" style="fill:none;stroke:#000000;stroke-linecap:square;stroke-linejoin:miter;stroke-width:0.8;"/>
   </g>
   <g id="text_12">
    <!-- Estimated input signal(Normalized) 1  -->
    <defs>
     <path d="M 9.8125 72.90625 
L 55.90625 72.90625 
L 55.90625 64.59375 
L 19.671875 64.59375 
L 19.671875 43.015625 
L 54.390625 43.015625 
L 54.390625 34.71875 
L 19.671875 34.71875 
L 19.671875 8.296875 
L 56.78125 8.296875 
L 56.78125 0 
L 9.8125 0 
z
" id="DejaVuSans-69"/>
     <path d="M 44.28125 53.078125 
L 44.28125 44.578125 
Q 40.484375 46.53125 36.375 47.5 
Q 32.28125 48.484375 27.875 48.484375 
Q 21.1875 48.484375 17.84375 46.4375 
Q 14.5 44.390625 14.5 40.28125 
Q 14.5 37.15625 16.890625 35.375 
Q 19.28125 33.59375 26.515625 31.984375 
L 29.59375 31.296875 
Q 39.15625 29.25 43.1875 25.515625 
Q 47.21875 21.78125 47.21875 15.09375 
Q 47.21875 7.46875 41.1875 3.015625 
Q 35.15625 -1.421875 24.609375 -1.421875 
Q 20.21875 -1.421875 15.453125 -0.5625 
Q 10.6875 0.296875 5.421875 2 
L 5.421875 11.28125 
Q 10.40625 8.6875 15.234375 7.390625 
Q 20.0625 6.109375 24.8125 6.109375 
Q 31.15625 6.109375 34.5625 8.28125 
Q 37.984375 10.453125 37.984375 14.40625 
Q 37.984375 18.0625 35.515625 20.015625 
Q 33.0625 21.96875 24.703125 23.78125 
L 21.578125 24.515625 
Q 13.234375 26.265625 9.515625 29.90625 
Q 5.8125 33.546875 5.8125 39.890625 
Q 5.8125 47.609375 11.28125 51.796875 
Q 16.75 56 26.8125 56 
Q 31.78125 56 36.171875 55.265625 
Q 40.578125 54.546875 44.28125 53.078125 
z
" id="DejaVuSans-115"/>
     <path d="M 18.3125 70.21875 
L 18.3125 54.6875 
L 36.8125 54.6875 
L 36.8125 47.703125 
L 18.3125 47.703125 
L 18.3125 18.015625 
Q 18.3125 11.328125 20.140625 9.421875 
Q 21.96875 7.515625 27.59375 7.515625 
L 36.8125 7.515625 
L 36.8125 0 
L 27.59375 0 
Q 17.1875 0 13.234375 3.875 
Q 9.28125 7.765625 9.28125 18.015625 
L 9.28125 47.703125 
L 2.6875 47.703125 
L 2.6875 54.6875 
L 9.28125 54.6875 
L 9.28125 70.21875 
z
" id="DejaVuSans-116"/>
     <path d="M 9.421875 54.6875 
L 18.40625 54.6875 
L 18.40625 0 
L 9.421875 0 
z
M 9.421875 75.984375 
L 18.40625 75.984375 
L 18.40625 64.59375 
L 9.421875 64.59375 
z
" id="DejaVuSans-105"/>
     <path d="M 52 44.1875 
Q 55.375 50.25 60.0625 53.125 
Q 64.75 56 71.09375 56 
Q 79.640625 56 84.28125 50.015625 
Q 88.921875 44.046875 88.921875 33.015625 
L 88.921875 0 
L 79.890625 0 
L 79.890625 32.71875 
Q 79.890625 40.578125 77.09375 44.375 
Q 74.3125 48.1875 68.609375 48.1875 
Q 61.625 48.1875 57.5625 43.546875 
Q 53.515625 38.921875 53.515625 30.90625 
L 53.515625 0 
L 44.484375 0 
L 44.484375 32.71875 
Q 44.484375 40.625 41.703125 44.40625 
Q 38.921875 48.1875 33.109375 48.1875 
Q 26.21875 48.1875 22.15625 43.53125 
Q 18.109375 38.875 18.109375 30.90625 
L 18.109375 0 
L 9.078125 0 
L 9.078125 54.6875 
L 18.109375 54.6875 
L 18.109375 46.1875 
Q 21.1875 51.21875 25.484375 53.609375 
Q 29.78125 56 35.6875 56 
Q 41.65625 56 45.828125 52.96875 
Q 50 49.953125 52 44.1875 
z
" id="DejaVuSans-109"/>
     <path d="M 34.28125 27.484375 
Q 23.390625 27.484375 19.1875 25 
Q 14.984375 22.515625 14.984375 16.5 
Q 14.984375 11.71875 18.140625 8.90625 
Q 21.296875 6.109375 26.703125 6.109375 
Q 34.1875 6.109375 38.703125 11.40625 
Q 43.21875 16.703125 43.21875 25.484375 
L 43.21875 27.484375 
z
M 52.203125 31.203125 
L 52.203125 0 
L 43.21875 0 
L 43.21875 8.296875 
Q 40.140625 3.328125 35.546875 0.953125 
Q 30.953125 -1.421875 24.3125 -1.421875 
Q 15.921875 -1.421875 10.953125 3.296875 
Q 6 8.015625 6 15.921875 
Q 6 25.140625 12.171875 29.828125 
Q 18.359375 34.515625 30.609375 34.515625 
L 43.21875 34.515625 
L 43.21875 35.40625 
Q 43.21875 41.609375 39.140625 45 
Q 35.0625 48.390625 27.6875 48.390625 
Q 23 48.390625 18.546875 47.265625 
Q 14.109375 46.140625 10.015625 43.890625 
L 10.015625 52.203125 
Q 14.9375 54.109375 19.578125 55.046875 
Q 24.21875 56 28.609375 56 
Q 40.484375 56 46.34375 49.84375 
Q 52.203125 43.703125 52.203125 31.203125 
z
" id="DejaVuSans-97"/>
     <path d="M 56.203125 29.59375 
L 56.203125 25.203125 
L 14.890625 25.203125 
Q 15.484375 15.921875 20.484375 11.0625 
Q 25.484375 6.203125 34.421875 6.203125 
Q 39.59375 6.203125 44.453125 7.46875 
Q 49.3125 8.734375 54.109375 11.28125 
L 54.109375 2.78125 
Q 49.265625 0.734375 44.1875 -0.34375 
Q 39.109375 -1.421875 33.890625 -1.421875 
Q 20.796875 -1.421875 13.15625 6.1875 
Q 5.515625 13.8125 5.515625 26.8125 
Q 5.515625 40.234375 12.765625 48.109375 
Q 20.015625 56 32.328125 56 
Q 43.359375 56 49.78125 48.890625 
Q 56.203125 41.796875 56.203125 29.59375 
z
M 47.21875 32.234375 
Q 47.125 39.59375 43.09375 43.984375 
Q 39.0625 48.390625 32.421875 48.390625 
Q 24.90625 48.390625 20.390625 44.140625 
Q 15.875 39.890625 15.1875 32.171875 
z
" id="DejaVuSans-101"/>
     <path d="M 45.40625 46.390625 
L 45.40625 75.984375 
L 54.390625 75.984375 
L 54.390625 0 
L 45.40625 0 
L 45.40625 8.203125 
Q 42.578125 3.328125 38.25 0.953125 
Q 33.9375 -1.421875 27.875 -1.421875 
Q 17.96875 -1.421875 11.734375 6.484375 
Q 5.515625 14.40625 5.515625 27.296875 
Q 5.515625 40.1875 11.734375 48.09375 
Q 17.96875 56 27.875 56 
Q 33.9375 56 38.25 53.625 
Q 42.578125 51.265625 45.40625 46.390625 
z
M 14.796875 27.296875 
Q 14.796875 17.390625 18.875 11.75 
Q 22.953125 6.109375 30.078125 6.109375 
Q 37.203125 6.109375 41.296875 11.75 
Q 45.40625 17.390625 45.40625 27.296875 
Q 45.40625 37.203125 41.296875 42.84375 
Q 37.203125 48.484375 30.078125 48.484375 
Q 22.953125 48.484375 18.875 42.84375 
Q 14.796875 37.203125 14.796875 27.296875 
z
" id="DejaVuSans-100"/>
     <path id="DejaVuSans-32"/>
     <path d="M 54.890625 33.015625 
L 54.890625 0 
L 45.90625 0 
L 45.90625 32.71875 
Q 45.90625 40.484375 42.875 44.328125 
Q 39.84375 48.1875 33.796875 48.1875 
Q 26.515625 48.1875 22.3125 43.546875 
Q 18.109375 38.921875 18.109375 30.90625 
L 18.109375 0 
L 9.078125 0 
L 9.078125 54.6875 
L 18.109375 54.6875 
L 18.109375 46.1875 
Q 21.34375 51.125 25.703125 53.5625 
Q 30.078125 56 35.796875 56 
Q 45.21875 56 50.046875 50.171875 
Q 54.890625 44.34375 54.890625 33.015625 
z
" id="DejaVuSans-110"/>
     <path d="M 18.109375 8.203125 
L 18.109375 -20.796875 
L 9.078125 -20.796875 
L 9.078125 54.6875 
L 18.109375 54.6875 
L 18.109375 46.390625 
Q 20.953125 51.265625 25.265625 53.625 
Q 29.59375 56 35.59375 56 
Q 45.5625 56 51.78125 48.09375 
Q 58.015625 40.1875 58.015625 27.296875 
Q 58.015625 14.40625 51.78125 6.484375 
Q 45.5625 -1.421875 35.59375 -1.421875 
Q 29.59375 -1.421875 25.265625 0.953125 
Q 20.953125 3.328125 18.109375 8.203125 
z
M 48.6875 27.296875 
Q 48.6875 37.203125 44.609375 42.84375 
Q 40.53125 48.484375 33.40625 48.484375 
Q 26.265625 48.484375 22.1875 42.84375 
Q 18.109375 37.203125 18.109375 27.296875 
Q 18.109375 17.390625 22.1875 11.75 
Q 26.265625 6.109375 33.40625 6.109375 
Q 40.53125 6.109375 44.609375 11.75 
Q 48.6875 17.390625 48.6875 27.296875 
z
" id="DejaVuSans-112"/>
     <path d="M 8.5 21.578125 
L 8.5 54.6875 
L 17.484375 54.6875 
L 17.484375 21.921875 
Q 17.484375 14.15625 20.5 10.265625 
Q 23.53125 6.390625 29.59375 6.390625 
Q 36.859375 6.390625 41.078125 11.03125 
Q 45.3125 15.671875 45.3125 23.6875 
L 45.3125 54.6875 
L 54.296875 54.6875 
L 54.296875 0 
L 45.3125 0 
L 45.3125 8.40625 
Q 42.046875 3.421875 37.71875 1 
Q 33.40625 -1.421875 27.6875 -1.421875 
Q 18.265625 -1.421875 13.375 4.4375 
Q 8.5 10.296875 8.5 21.578125 
z
M 31.109375 56 
z
" id="DejaVuSans-117"/>
     <path d="M 45.40625 27.984375 
Q 45.40625 37.75 41.375 43.109375 
Q 37.359375 48.484375 30.078125 48.484375 
Q 22.859375 48.484375 18.828125 43.109375 
Q 14.796875 37.75 14.796875 27.984375 
Q 14.796875 18.265625 18.828125 12.890625 
Q 22.859375 7.515625 30.078125 7.515625 
Q 37.359375 7.515625 41.375 12.890625 
Q 45.40625 18.265625 45.40625 27.984375 
z
M 54.390625 6.78125 
Q 54.390625 -7.171875 48.1875 -13.984375 
Q 42 -20.796875 29.203125 -20.796875 
Q 24.46875 -20.796875 20.265625 -20.09375 
Q 16.0625 -19.390625 12.109375 -17.921875 
L 12.109375 -9.1875 
Q 16.0625 -11.328125 19.921875 -12.34375 
Q 23.78125 -13.375 27.78125 -13.375 
Q 36.625 -13.375 41.015625 -8.765625 
Q 45.40625 -4.15625 45.40625 5.171875 
L 45.40625 9.625 
Q 42.625 4.78125 38.28125 2.390625 
Q 33.9375 0 27.875 0 
Q 17.828125 0 11.671875 7.65625 
Q 5.515625 15.328125 5.515625 27.984375 
Q 5.515625 40.671875 11.671875 48.328125 
Q 17.828125 56 27.875 56 
Q 33.9375 56 38.28125 53.609375 
Q 42.625 51.21875 45.40625 46.390625 
L 45.40625 54.6875 
L 54.390625 54.6875 
z
" id="DejaVuSans-103"/>
     <path d="M 9.421875 75.984375 
L 18.40625 75.984375 
L 18.40625 0 
L 9.421875 0 
z
" id="DejaVuSans-108"/>
     <path d="M 31 75.875 
Q 24.46875 64.65625 21.28125 53.65625 
Q 18.109375 42.671875 18.109375 31.390625 
Q 18.109375 20.125 21.3125 9.0625 
Q 24.515625 -2 31 -13.1875 
L 23.1875 -13.1875 
Q 15.875 -1.703125 12.234375 9.375 
Q 8.59375 20.453125 8.59375 31.390625 
Q 8.59375 42.28125 12.203125 53.3125 
Q 15.828125 64.359375 23.1875 75.875 
z
" id="DejaVuSans-40"/>
     <path d="M 9.8125 72.90625 
L 23.09375 72.90625 
L 55.421875 11.921875 
L 55.421875 72.90625 
L 64.984375 72.90625 
L 64.984375 0 
L 51.703125 0 
L 19.390625 60.984375 
L 19.390625 0 
L 9.8125 0 
z
" id="DejaVuSans-78"/>
     <path d="M 30.609375 48.390625 
Q 23.390625 48.390625 19.1875 42.75 
Q 14.984375 37.109375 14.984375 27.296875 
Q 14.984375 17.484375 19.15625 11.84375 
Q 23.34375 6.203125 30.609375 6.203125 
Q 37.796875 6.203125 41.984375 11.859375 
Q 46.1875 17.53125 46.1875 27.296875 
Q 46.1875 37.015625 41.984375 42.703125 
Q 37.796875 48.390625 30.609375 48.390625 
z
M 30.609375 56 
Q 42.328125 56 49.015625 48.375 
Q 55.71875 40.765625 55.71875 27.296875 
Q 55.71875 13.875 49.015625 6.21875 
Q 42.328125 -1.421875 30.609375 -1.421875 
Q 18.84375 -1.421875 12.171875 6.21875 
Q 5.515625 13.875 5.515625 27.296875 
Q 5.515625 40.765625 12.171875 48.375 
Q 18.84375 56 30.609375 56 
z
" id="DejaVuSans-111"/>
     <path d="M 41.109375 46.296875 
Q 39.59375 47.171875 37.8125 47.578125 
Q 36.03125 48 33.890625 48 
Q 26.265625 48 22.1875 43.046875 
Q 18.109375 38.09375 18.109375 28.8125 
L 18.109375 0 
L 9.078125 0 
L 9.078125 54.6875 
L 18.109375 54.6875 
L 18.109375 46.1875 
Q 20.953125 51.171875 25.484375 53.578125 
Q 30.03125 56 36.53125 56 
Q 37.453125 56 38.578125 55.875 
Q 39.703125 55.765625 41.0625 55.515625 
z
" id="DejaVuSans-114"/>
     <path d="M 5.515625 54.6875 
L 48.1875 54.6875 
L 48.1875 46.484375 
L 14.40625 7.171875 
L 48.1875 7.171875 
L 48.1875 0 
L 4.296875 0 
L 4.296875 8.203125 
L 38.09375 47.515625 
L 5.515625 47.515625 
z
" id="DejaVuSans-122"/>
     <path d="M 8.015625 75.875 
L 15.828125 75.875 
Q 23.140625 64.359375 26.78125 53.3125 
Q 30.421875 42.28125 30.421875 31.390625 
Q 30.421875 20.453125 26.78125 9.375 
Q 23.140625 -1.703125 15.828125 -13.1875 
L 8.015625 -13.1875 
Q 14.5 -2 17.703125 9.0625 
Q 20.90625 20.125 20.90625 31.390625 
Q 20.90625 42.671875 17.703125 53.65625 
Q 14.5 64.65625 8.015625 75.875 
z
" id="DejaVuSans-41"/>
    </defs>
    <g transform="translate(113.553929 18.530625)scale(0.12 -0.12)">
     <use xlink:href="#DejaVuSans-69"/>
     <use x="63.183594" xlink:href="#DejaVuSans-115"/>
     <use x="115.283203" xlink:href="#DejaVuSans-116"/>
     <use x="154.492188" xlink:href="#DejaVuSans-105"/>
     <use x="182.275391" xlink:href="#DejaVuSans-109"/>
     <use x="279.6875" xlink:href="#DejaVuSans-97"/>
     <use x="340.966797" xlink:href="#DejaVuSans-116"/>
     <use x="380.175781" xlink:href="#DejaVuSans-101"/>
     <use x="441.699219" xlink:href="#DejaVuSans-100"/>
     <use x="505.175781" xlink:href="#DejaVuSans-32"/>
     <use x="536.962891" xlink:href="#DejaVuSans-105"/>
     <use x="564.746094" xlink:href="#DejaVuSans-110"/>
     <use x="628.125" xlink:href="#DejaVuSans-112"/>
     <use x="691.601562" xlink:href="#DejaVuSans-117"/>
     <use x="754.980469" xlink:href="#DejaVuSans-116"/>
     <use x="794.189453" xlink:href="#DejaVuSans-32"/>
     <use x="825.976562" xlink:href="#DejaVuSans-115"/>
     <use x="878.076172" xlink:href="#DejaVuSans-105"/>
     <use x="905.859375" xlink:href="#DejaVuSans-103"/>
     <use x="969.335938" xlink:href="#DejaVuSans-110"/>
     <use x="1032.714844" xlink:href="#DejaVuSans-97"/>
     <use x="1093.994141" xlink:href="#DejaVuSans-108"/>
     <use x="1121.777344" xlink:href="#DejaVuSans-40"/>
     <use x="1160.791016" xlink:href="#DejaVuSans-78"/>
     <use x="1235.595703" xlink:href="#DejaVuSans-111"/>
     <use x="1296.777344" xlink:href="#DejaVuSans-114"/>
     <use x="1337.875" xlink:href="#DejaVuSans-109"/>
     <use x="1435.287109" xlink:href="#DejaVuSans-97"/>
     <use x="1496.566406" xlink:href="#DejaVuSans-108"/>
     <use x="1524.349609" xlink:href="#DejaVuSans-105"/>
     <use x="1552.132812" xlink:href="#DejaVuSans-122"/>
     <use x="1604.623047" xlink:href="#DejaVuSans-101"/>
     <use x="1666.146484" xlink:href="#DejaVuSans-100"/>
     <use x="1729.623047" xlink:href="#DejaVuSans-41"/>
     <use x="1768.636719" xlink:href="#DejaVuSans-32"/>
     <use x="1800.423828" xlink:href="#DejaVuSans-49"/>
     <use x="1864.046875" xlink:href="#DejaVuSans-32"/>
    </g>
    <!--  Error rate: 1.2299937898247994e-14 -->
    <defs>
     <path d="M 11.71875 12.40625 
L 22.015625 12.40625 
L 22.015625 0 
L 11.71875 0 
z
M 11.71875 51.703125 
L 22.015625 51.703125 
L 22.015625 39.3125 
L 11.71875 39.3125 
z
" id="DejaVuSans-58"/>
     <path d="M 10.984375 1.515625 
L 10.984375 10.5 
Q 14.703125 8.734375 18.5 7.8125 
Q 22.3125 6.890625 25.984375 6.890625 
Q 35.75 6.890625 40.890625 13.453125 
Q 46.046875 20.015625 46.78125 33.40625 
Q 43.953125 29.203125 39.59375 26.953125 
Q 35.25 24.703125 29.984375 24.703125 
Q 19.046875 24.703125 12.671875 31.3125 
Q 6.296875 37.9375 6.296875 49.421875 
Q 6.296875 60.640625 12.9375 67.421875 
Q 19.578125 74.21875 30.609375 74.21875 
Q 43.265625 74.21875 49.921875 64.515625 
Q 56.59375 54.828125 56.59375 36.375 
Q 56.59375 19.140625 48.40625 8.859375 
Q 40.234375 -1.421875 26.421875 -1.421875 
Q 22.703125 -1.421875 18.890625 -0.6875 
Q 15.09375 0.046875 10.984375 1.515625 
z
M 30.609375 32.421875 
Q 37.25 32.421875 41.125 36.953125 
Q 45.015625 41.5 45.015625 49.421875 
Q 45.015625 57.28125 41.125 61.84375 
Q 37.25 66.40625 30.609375 66.40625 
Q 23.96875 66.40625 20.09375 61.84375 
Q 16.21875 57.28125 16.21875 49.421875 
Q 16.21875 41.5 20.09375 36.953125 
Q 23.96875 32.421875 30.609375 32.421875 
z
" id="DejaVuSans-57"/>
     <path d="M 40.578125 39.3125 
Q 47.65625 37.796875 51.625 33 
Q 55.609375 28.21875 55.609375 21.1875 
Q 55.609375 10.40625 48.1875 4.484375 
Q 40.765625 -1.421875 27.09375 -1.421875 
Q 22.515625 -1.421875 17.65625 -0.515625 
Q 12.796875 0.390625 7.625 2.203125 
L 7.625 11.71875 
Q 11.71875 9.328125 16.59375 8.109375 
Q 21.484375 6.890625 26.8125 6.890625 
Q 36.078125 6.890625 40.9375 10.546875 
Q 45.796875 14.203125 45.796875 21.1875 
Q 45.796875 27.640625 41.28125 31.265625 
Q 36.765625 34.90625 28.71875 34.90625 
L 20.21875 34.90625 
L 20.21875 43.015625 
L 29.109375 43.015625 
Q 36.375 43.015625 40.234375 45.921875 
Q 44.09375 48.828125 44.09375 54.296875 
Q 44.09375 59.90625 40.109375 62.90625 
Q 36.140625 65.921875 28.71875 65.921875 
Q 24.65625 65.921875 20.015625 65.03125 
Q 15.375 64.15625 9.8125 62.3125 
L 9.8125 71.09375 
Q 15.4375 72.65625 20.34375 73.4375 
Q 25.25 74.21875 29.59375 74.21875 
Q 40.828125 74.21875 47.359375 69.109375 
Q 53.90625 64.015625 53.90625 55.328125 
Q 53.90625 49.265625 50.4375 45.09375 
Q 46.96875 40.921875 40.578125 39.3125 
z
" id="DejaVuSans-51"/>
     <path d="M 8.203125 72.90625 
L 55.078125 72.90625 
L 55.078125 68.703125 
L 28.609375 0 
L 18.3125 0 
L 43.21875 64.59375 
L 8.203125 64.59375 
z
" id="DejaVuSans-55"/>
     <path d="M 4.890625 31.390625 
L 31.203125 31.390625 
L 31.203125 23.390625 
L 4.890625 23.390625 
z
" id="DejaVuSans-45"/>
    </defs>
    <g transform="translate(112.217991 31.968)scale(0.12 -0.12)">
     <use xlink:href="#DejaVuSans-32"/>
     <use x="31.787109" xlink:href="#DejaVuSans-69"/>
     <use x="94.970703" xlink:href="#DejaVuSans-114"/>
     <use x="136.068359" xlink:href="#DejaVuSans-114"/>
     <use x="177.150391" xlink:href="#DejaVuSans-111"/>
     <use x="238.332031" xlink:href="#DejaVuSans-114"/>
     <use x="279.445312" xlink:href="#DejaVuSans-32"/>
     <use x="311.232422" xlink:href="#DejaVuSans-114"/>
     <use x="352.345703" xlink:href="#DejaVuSans-97"/>
     <use x="413.625" xlink:href="#DejaVuSans-116"/>
     <use x="452.833984" xlink:href="#DejaVuSans-101"/>
     <use x="514.357422" xlink:href="#DejaVuSans-58"/>
     <use x="548.048828" xlink:href="#DejaVuSans-32"/>
     <use x="579.835938" xlink:href="#DejaVuSans-49"/>
     <use x="643.458984" xlink:href="#DejaVuSans-46"/>
     <use x="675.246094" xlink:href="#DejaVuSans-50"/>
     <use x="738.869141" xlink:href="#DejaVuSans-50"/>
     <use x="802.492188" xlink:href="#DejaVuSans-57"/>
     <use x="866.115234" xlink:href="#DejaVuSans-57"/>
     <use x="929.738281" xlink:href="#DejaVuSans-57"/>
     <use x="993.361328" xlink:href="#DejaVuSans-51"/>
     <use x="1056.984375" xlink:href="#DejaVuSans-55"/>
     <use x="1120.607422" xlink:href="#DejaVuSans-56"/>
     <use x="1184.230469" xlink:href="#DejaVuSans-57"/>
     <use x="1247.853516" xlink:href="#DejaVuSans-56"/>
     <use x="1311.476562" xlink:href="#DejaVuSans-50"/>
     <use x="1375.099609" xlink:href="#DejaVuSans-52"/>
     <use x="1438.722656" xlink:href="#DejaVuSans-55"/>
     <use x="1502.345703" xlink:href="#DejaVuSans-57"/>
     <use x="1565.96875" xlink:href="#DejaVuSans-57"/>
     <use x="1629.591797" xlink:href="#DejaVuSans-52"/>
     <use x="1693.214844" xlink:href="#DejaVuSans-101"/>
     <use x="1754.738281" xlink:href="#DejaVuSans-45"/>
     <use x="1790.822266" xlink:href="#DejaVuSans-49"/>
     <use x="1854.445312" xlink:href="#DejaVuSans-52"/>
    </g>
   </g>
  </g>
  <g id="axes_2">
   <g id="patch_7">
    <path d="M 469.7575 193.52 
L 844.482857 193.52 
L 844.482857 37.968 
L 469.7575 37.968 
z
" style="fill:#ffffff;"/>
   </g>
   <g id="matplotlib.axis_3">
    <g id="xtick_7">
     <g id="line2d_13">
      <g>
       <use style="stroke:#000000;stroke-width:0.8;" x="486.790471" xlink:href="#mafa90fac01" y="193.52"/>
      </g>
     </g>
     <g id="text_13">
      <!-- 0 -->
      <g transform="translate(483.609221 208.118437)scale(0.1 -0.1)">
       <use xlink:href="#DejaVuSans-48"/>
      </g>
     </g>
    </g>
    <g id="xtick_8">
     <g id="line2d_14">
      <g>
       <use style="stroke:#000000;stroke-width:0.8;" x="555.610555" xlink:href="#mafa90fac01" y="193.52"/>
      </g>
     </g>
     <g id="text_14">
      <!-- 20 -->
      <g transform="translate(549.248055 208.118437)scale(0.1 -0.1)">
       <use xlink:href="#DejaVuSans-50"/>
       <use x="63.623047" xlink:href="#DejaVuSans-48"/>
      </g>
     </g>
    </g>
    <g id="xtick_9">
     <g id="line2d_15">
      <g>
       <use style="stroke:#000000;stroke-width:0.8;" x="624.430639" xlink:href="#mafa90fac01" y="193.52"/>
      </g>
     </g>
     <g id="text_15">
      <!-- 40 -->
      <g transform="translate(618.068139 208.118437)scale(0.1 -0.1)">
       <use xlink:href="#DejaVuSans-52"/>
       <use x="63.623047" xlink:href="#DejaVuSans-48"/>
      </g>
     </g>
    </g>
    <g id="xtick_10">
     <g id="line2d_16">
      <g>
       <use style="stroke:#000000;stroke-width:0.8;" x="693.250723" xlink:href="#mafa90fac01" y="193.52"/>
      </g>
     </g>
     <g id="text_16">
      <!-- 60 -->
      <g transform="translate(686.888223 208.118437)scale(0.1 -0.1)">
       <use xlink:href="#DejaVuSans-54"/>
       <use x="63.623047" xlink:href="#DejaVuSans-48"/>
      </g>
     </g>
    </g>
    <g id="xtick_11">
     <g id="line2d_17">
      <g>
       <use style="stroke:#000000;stroke-width:0.8;" x="762.070807" xlink:href="#mafa90fac01" y="193.52"/>
      </g>
     </g>
     <g id="text_17">
      <!-- 80 -->
      <g transform="translate(755.708307 208.118437)scale(0.1 -0.1)">
       <use xlink:href="#DejaVuSans-56"/>
       <use x="63.623047" xlink:href="#DejaVuSans-48"/>
      </g>
     </g>
    </g>
    <g id="xtick_12">
     <g id="line2d_18">
      <g>
       <use style="stroke:#000000;stroke-width:0.8;" x="830.890891" xlink:href="#mafa90fac01" y="193.52"/>
      </g>
     </g>
     <g id="text_18">
      <!-- 100 -->
      <g transform="translate(821.347141 208.118437)scale(0.1 -0.1)">
       <use xlink:href="#DejaVuSans-49"/>
       <use x="63.623047" xlink:href="#DejaVuSans-48"/>
       <use x="127.246094" xlink:href="#DejaVuSans-48"/>
      </g>
     </g>
    </g>
   </g>
   <g id="matplotlib.axis_4">
    <g id="ytick_6">
     <g id="line2d_19">
      <g>
       <use style="stroke:#000000;stroke-width:0.8;" x="469.7575" xlink:href="#m76be57c93b" y="186.449455"/>
      </g>
     </g>
     <g id="text_19">
      <!-- 0.00 -->
      <g transform="translate(440.491875 190.248673)scale(0.1 -0.1)">
       <use xlink:href="#DejaVuSans-48"/>
       <use x="63.623047" xlink:href="#DejaVuSans-46"/>
       <use x="95.410156" xlink:href="#DejaVuSans-48"/>
       <use x="159.033203" xlink:href="#DejaVuSans-48"/>
      </g>
     </g>
    </g>
    <g id="ytick_7">
     <g id="line2d_20">
      <g>
       <use style="stroke:#000000;stroke-width:0.8;" x="469.7575" xlink:href="#m76be57c93b" y="159.981711"/>
      </g>
     </g>
     <g id="text_20">
      <!-- 0.02 -->
      <g transform="translate(440.491875 163.78093)scale(0.1 -0.1)">
       <use xlink:href="#DejaVuSans-48"/>
       <use x="63.623047" xlink:href="#DejaVuSans-46"/>
       <use x="95.410156" xlink:href="#DejaVuSans-48"/>
       <use x="159.033203" xlink:href="#DejaVuSans-50"/>
      </g>
     </g>
    </g>
    <g id="ytick_8">
     <g id="line2d_21">
      <g>
       <use style="stroke:#000000;stroke-width:0.8;" x="469.7575" xlink:href="#m76be57c93b" y="133.513968"/>
      </g>
     </g>
     <g id="text_21">
      <!-- 0.04 -->
      <g transform="translate(440.491875 137.313187)scale(0.1 -0.1)">
       <use xlink:href="#DejaVuSans-48"/>
       <use x="63.623047" xlink:href="#DejaVuSans-46"/>
       <use x="95.410156" xlink:href="#DejaVuSans-48"/>
       <use x="159.033203" xlink:href="#DejaVuSans-52"/>
      </g>
     </g>
    </g>
    <g id="ytick_9">
     <g id="line2d_22">
      <g>
       <use style="stroke:#000000;stroke-width:0.8;" x="469.7575" xlink:href="#m76be57c93b" y="107.046225"/>
      </g>
     </g>
     <g id="text_22">
      <!-- 0.06 -->
      <g transform="translate(440.491875 110.845444)scale(0.1 -0.1)">
       <use xlink:href="#DejaVuSans-48"/>
       <use x="63.623047" xlink:href="#DejaVuSans-46"/>
       <use x="95.410156" xlink:href="#DejaVuSans-48"/>
       <use x="159.033203" xlink:href="#DejaVuSans-54"/>
      </g>
     </g>
    </g>
    <g id="ytick_10">
     <g id="line2d_23">
      <g>
       <use style="stroke:#000000;stroke-width:0.8;" x="469.7575" xlink:href="#m76be57c93b" y="80.578482"/>
      </g>
     </g>
     <g id="text_23">
      <!-- 0.08 -->
      <g transform="translate(440.491875 84.3777)scale(0.1 -0.1)">
       <use xlink:href="#DejaVuSans-48"/>
       <use x="63.623047" xlink:href="#DejaVuSans-46"/>
       <use x="95.410156" xlink:href="#DejaVuSans-48"/>
       <use x="159.033203" xlink:href="#DejaVuSans-56"/>
      </g>
     </g>
    </g>
    <g id="ytick_11">
     <g id="line2d_24">
      <g>
       <use style="stroke:#000000;stroke-width:0.8;" x="469.7575" xlink:href="#m76be57c93b" y="54.110738"/>
      </g>
     </g>
     <g id="text_24">
      <!-- 0.10 -->
      <g transform="translate(440.491875 57.909957)scale(0.1 -0.1)">
       <use xlink:href="#DejaVuSans-48"/>
       <use x="63.623047" xlink:href="#DejaVuSans-46"/>
       <use x="95.410156" xlink:href="#DejaVuSans-49"/>
       <use x="159.033203" xlink:href="#DejaVuSans-48"/>
      </g>
     </g>
    </g>
   </g>
   <g id="line2d_25">
    <path clip-path="url(#p6e170e6a25)" d="M 486.790471 53.50845 
L 490.231475 45.038545 
L 493.672479 186.449455 
L 497.113483 186.449455 
L 500.554488 186.449455 
L 503.995492 186.449455 
L 507.436496 186.449455 
L 510.8775 186.449455 
L 514.318504 186.449455 
L 517.759509 186.449455 
L 521.200513 186.449455 
L 524.641517 186.449455 
L 528.082521 186.449455 
L 531.523525 128.750438 
L 534.96453 186.449455 
L 538.405534 186.449455 
L 541.846538 186.449455 
L 545.287542 186.449455 
L 548.728546 186.449455 
L 552.169551 186.449455 
L 555.610555 186.449455 
L 559.051559 186.449455 
L 562.492563 186.449455 
L 565.933567 186.449455 
L 569.374572 186.449455 
L 572.815576 186.449455 
L 576.25658 186.449455 
L 579.697584 186.449455 
L 583.138588 123.460062 
L 586.579593 186.449455 
L 590.020597 92.387401 
L 593.461601 186.449455 
L 596.902605 71.956588 
L 600.343609 186.449455 
L 603.784614 186.449455 
L 607.225618 186.449455 
L 610.666622 186.449455 
L 614.107626 137.658324 
L 617.54863 186.449455 
L 620.989634 186.449455 
L 624.430639 186.449455 
L 627.871643 88.760723 
L 631.312647 186.449455 
L 634.753651 186.449455 
L 638.194655 186.449455 
L 641.63566 186.449455 
L 645.076664 186.449455 
L 648.517668 157.921944 
L 651.958672 186.449455 
L 655.399676 186.449455 
L 658.840681 135.846003 
L 662.281685 183.933819 
L 665.722689 186.449455 
L 669.163693 186.449455 
L 672.604697 186.449455 
L 676.045702 186.449455 
L 679.486706 186.449455 
L 682.92771 186.449455 
L 686.368714 186.449455 
L 689.809718 186.449455 
L 693.250723 186.449455 
L 696.691727 186.449455 
L 700.132731 186.449455 
L 703.573735 186.449455 
L 707.014739 186.449455 
L 710.455744 186.449455 
L 713.896748 186.449455 
L 717.337752 186.449455 
L 720.778756 186.449455 
L 724.21976 186.449455 
L 727.660765 186.449455 
L 731.101769 186.449455 
L 734.542773 186.449455 
L 737.983777 186.449455 
L 741.424781 186.449455 
L 744.865786 186.449455 
L 748.30679 129.94362 
L 751.747794 186.449455 
L 755.188798 186.449455 
L 758.629802 186.449455 
L 762.070807 186.449455 
L 765.511811 186.449455 
L 768.952815 186.449455 
L 772.393819 186.449455 
L 775.834823 186.449455 
L 779.275828 160.404631 
L 782.716832 114.436795 
L 786.157836 186.449455 
L 789.59884 186.449455 
L 793.039844 186.449455 
L 796.480849 186.449455 
L 799.921853 186.449455 
L 803.362857 66.965988 
L 806.803861 170.108256 
L 810.244865 186.449455 
L 813.68587 68.310493 
L 817.126874 186.449455 
L 820.567878 103.310939 
L 824.008882 186.449455 
L 827.449886 186.449455 
" style="fill:none;stroke:#008000;stroke-linecap:square;stroke-width:1.5;"/>
   </g>
   <g id="patch_8">
    <path d="M 469.7575 193.52 
L 469.7575 37.968 
" style="fill:none;stroke:#000000;stroke-linecap:square;stroke-linejoin:miter;stroke-width:0.8;"/>
   </g>
   <g id="patch_9">
    <path d="M 844.482857 193.52 
L 844.482857 37.968 
" style="fill:none;stroke:#000000;stroke-linecap:square;stroke-linejoin:miter;stroke-width:0.8;"/>
   </g>
   <g id="patch_10">
    <path d="M 469.7575 193.52 
L 844.482857 193.52 
" style="fill:none;stroke:#000000;stroke-linecap:square;stroke-linejoin:miter;stroke-width:0.8;"/>
   </g>
   <g id="patch_11">
    <path d="M 469.7575 37.968 
L 844.482857 37.968 
" style="fill:none;stroke:#000000;stroke-linecap:square;stroke-linejoin:miter;stroke-width:0.8;"/>
   </g>
   <g id="text_25">
    <!-- Estimated input signal(Normalized) 2  -->
    <g transform="translate(543.371429 18.530625)scale(0.12 -0.12)">
     <use xlink:href="#DejaVuSans-69"/>
     <use x="63.183594" xlink:href="#DejaVuSans-115"/>
     <use x="115.283203" xlink:href="#DejaVuSans-116"/>
     <use x="154.492188" xlink:href="#DejaVuSans-105"/>
     <use x="182.275391" xlink:href="#DejaVuSans-109"/>
     <use x="279.6875" xlink:href="#DejaVuSans-97"/>
     <use x="340.966797" xlink:href="#DejaVuSans-116"/>
     <use x="380.175781" xlink:href="#DejaVuSans-101"/>
     <use x="441.699219" xlink:href="#DejaVuSans-100"/>
     <use x="505.175781" xlink:href="#DejaVuSans-32"/>
     <use x="536.962891" xlink:href="#DejaVuSans-105"/>
     <use x="564.746094" xlink:href="#DejaVuSans-110"/>
     <use x="628.125" xlink:href="#DejaVuSans-112"/>
     <use x="691.601562" xlink:href="#DejaVuSans-117"/>
     <use x="754.980469" xlink:href="#DejaVuSans-116"/>
     <use x="794.189453" xlink:href="#DejaVuSans-32"/>
     <use x="825.976562" xlink:href="#DejaVuSans-115"/>
     <use x="878.076172" xlink:href="#DejaVuSans-105"/>
     <use x="905.859375" xlink:href="#DejaVuSans-103"/>
     <use x="969.335938" xlink:href="#DejaVuSans-110"/>
     <use x="1032.714844" xlink:href="#DejaVuSans-97"/>
     <use x="1093.994141" xlink:href="#DejaVuSans-108"/>
     <use x="1121.777344" xlink:href="#DejaVuSans-40"/>
     <use x="1160.791016" xlink:href="#DejaVuSans-78"/>
     <use x="1235.595703" xlink:href="#DejaVuSans-111"/>
     <use x="1296.777344" xlink:href="#DejaVuSans-114"/>
     <use x="1337.875" xlink:href="#DejaVuSans-109"/>
     <use x="1435.287109" xlink:href="#DejaVuSans-97"/>
     <use x="1496.566406" xlink:href="#DejaVuSans-108"/>
     <use x="1524.349609" xlink:href="#DejaVuSans-105"/>
     <use x="1552.132812" xlink:href="#DejaVuSans-122"/>
     <use x="1604.623047" xlink:href="#DejaVuSans-101"/>
     <use x="1666.146484" xlink:href="#DejaVuSans-100"/>
     <use x="1729.623047" xlink:href="#DejaVuSans-41"/>
     <use x="1768.636719" xlink:href="#DejaVuSans-32"/>
     <use x="1800.423828" xlink:href="#DejaVuSans-50"/>
     <use x="1864.046875" xlink:href="#DejaVuSans-32"/>
    </g>
    <!--  Error rate: 2.4489348247118058e-14 -->
    <defs>
     <path d="M 10.796875 72.90625 
L 49.515625 72.90625 
L 49.515625 64.59375 
L 19.828125 64.59375 
L 19.828125 46.734375 
Q 21.96875 47.46875 24.109375 47.828125 
Q 26.265625 48.1875 28.421875 48.1875 
Q 40.625 48.1875 47.75 41.5 
Q 54.890625 34.8125 54.890625 23.390625 
Q 54.890625 11.625 47.5625 5.09375 
Q 40.234375 -1.421875 26.90625 -1.421875 
Q 22.3125 -1.421875 17.546875 -0.640625 
Q 12.796875 0.140625 7.71875 1.703125 
L 7.71875 11.625 
Q 12.109375 9.234375 16.796875 8.0625 
Q 21.484375 6.890625 26.703125 6.890625 
Q 35.15625 6.890625 40.078125 11.328125 
Q 45.015625 15.765625 45.015625 23.390625 
Q 45.015625 31 40.078125 35.4375 
Q 35.15625 39.890625 26.703125 39.890625 
Q 22.75 39.890625 18.8125 39.015625 
Q 14.890625 38.140625 10.796875 36.28125 
z
" id="DejaVuSans-53"/>
    </defs>
    <g transform="translate(542.035491 31.968)scale(0.12 -0.12)">
     <use xlink:href="#DejaVuSans-32"/>
     <use x="31.787109" xlink:href="#DejaVuSans-69"/>
     <use x="94.970703" xlink:href="#DejaVuSans-114"/>
     <use x="136.068359" xlink:href="#DejaVuSans-114"/>
     <use x="177.150391" xlink:href="#DejaVuSans-111"/>
     <use x="238.332031" xlink:href="#DejaVuSans-114"/>
     <use x="279.445312" xlink:href="#DejaVuSans-32"/>
     <use x="311.232422" xlink:href="#DejaVuSans-114"/>
     <use x="352.345703" xlink:href="#DejaVuSans-97"/>
     <use x="413.625" xlink:href="#DejaVuSans-116"/>
     <use x="452.833984" xlink:href="#DejaVuSans-101"/>
     <use x="514.357422" xlink:href="#DejaVuSans-58"/>
     <use x="548.048828" xlink:href="#DejaVuSans-32"/>
     <use x="579.835938" xlink:href="#DejaVuSans-50"/>
     <use x="643.458984" xlink:href="#DejaVuSans-46"/>
     <use x="675.246094" xlink:href="#DejaVuSans-52"/>
     <use x="738.869141" xlink:href="#DejaVuSans-52"/>
     <use x="802.492188" xlink:href="#DejaVuSans-56"/>
     <use x="866.115234" xlink:href="#DejaVuSans-57"/>
     <use x="929.738281" xlink:href="#DejaVuSans-51"/>
     <use x="993.361328" xlink:href="#DejaVuSans-52"/>
     <use x="1056.984375" xlink:href="#DejaVuSans-56"/>
     <use x="1120.607422" xlink:href="#DejaVuSans-50"/>
     <use x="1184.230469" xlink:href="#DejaVuSans-52"/>
     <use x="1247.853516" xlink:href="#DejaVuSans-55"/>
     <use x="1311.476562" xlink:href="#DejaVuSans-49"/>
     <use x="1375.099609" xlink:href="#DejaVuSans-49"/>
     <use x="1438.722656" xlink:href="#DejaVuSans-56"/>
     <use x="1502.345703" xlink:href="#DejaVuSans-48"/>
     <use x="1565.96875" xlink:href="#DejaVuSans-53"/>
     <use x="1629.591797" xlink:href="#DejaVuSans-56"/>
     <use x="1693.214844" xlink:href="#DejaVuSans-101"/>
     <use x="1754.738281" xlink:href="#DejaVuSans-45"/>
     <use x="1790.822266" xlink:href="#DejaVuSans-49"/>
     <use x="1854.445312" xlink:href="#DejaVuSans-52"/>
    </g>
   </g>
  </g>
  <g id="axes_3">
   <g id="patch_12">
    <path d="M 39.94 404.12 
L 271.392857 404.12 
L 271.392857 248.568 
L 39.94 248.568 
z
" style="fill:#ffffff;"/>
   </g>
   <g id="matplotlib.axis_5">
    <g id="xtick_13">
     <g id="line2d_26">
      <g>
       <use style="stroke:#000000;stroke-width:0.8;" x="50.460584" xlink:href="#mafa90fac01" y="404.12"/>
      </g>
     </g>
     <g id="text_26">
      <!-- 0 -->
      <g transform="translate(47.279334 418.718438)scale(0.1 -0.1)">
       <use xlink:href="#DejaVuSans-48"/>
      </g>
     </g>
    </g>
    <g id="xtick_14">
     <g id="line2d_27">
      <g>
       <use style="stroke:#000000;stroke-width:0.8;" x="92.967996" xlink:href="#mafa90fac01" y="404.12"/>
      </g>
     </g>
     <g id="text_27">
      <!-- 20 -->
      <g transform="translate(86.605496 418.718438)scale(0.1 -0.1)">
       <use xlink:href="#DejaVuSans-50"/>
       <use x="63.623047" xlink:href="#DejaVuSans-48"/>
      </g>
     </g>
    </g>
    <g id="xtick_15">
     <g id="line2d_28">
      <g>
       <use style="stroke:#000000;stroke-width:0.8;" x="135.475408" xlink:href="#mafa90fac01" y="404.12"/>
      </g>
     </g>
     <g id="text_28">
      <!-- 40 -->
      <g transform="translate(129.112908 418.718438)scale(0.1 -0.1)">
       <use xlink:href="#DejaVuSans-52"/>
       <use x="63.623047" xlink:href="#DejaVuSans-48"/>
      </g>
     </g>
    </g>
    <g id="xtick_16">
     <g id="line2d_29">
      <g>
       <use style="stroke:#000000;stroke-width:0.8;" x="177.98282" xlink:href="#mafa90fac01" y="404.12"/>
      </g>
     </g>
     <g id="text_29">
      <!-- 60 -->
      <g transform="translate(171.62032 418.718438)scale(0.1 -0.1)">
       <use xlink:href="#DejaVuSans-54"/>
       <use x="63.623047" xlink:href="#DejaVuSans-48"/>
      </g>
     </g>
    </g>
    <g id="xtick_17">
     <g id="line2d_30">
      <g>
       <use style="stroke:#000000;stroke-width:0.8;" x="220.490232" xlink:href="#mafa90fac01" y="404.12"/>
      </g>
     </g>
     <g id="text_30">
      <!-- 80 -->
      <g transform="translate(214.127732 418.718438)scale(0.1 -0.1)">
       <use xlink:href="#DejaVuSans-56"/>
       <use x="63.623047" xlink:href="#DejaVuSans-48"/>
      </g>
     </g>
    </g>
    <g id="xtick_18">
     <g id="line2d_31">
      <g>
       <use style="stroke:#000000;stroke-width:0.8;" x="262.997643" xlink:href="#mafa90fac01" y="404.12"/>
      </g>
     </g>
     <g id="text_31">
      <!-- 100 -->
      <g transform="translate(253.453893 418.718438)scale(0.1 -0.1)">
       <use xlink:href="#DejaVuSans-49"/>
       <use x="63.623047" xlink:href="#DejaVuSans-48"/>
       <use x="127.246094" xlink:href="#DejaVuSans-48"/>
      </g>
     </g>
    </g>
   </g>
   <g id="matplotlib.axis_6">
    <g id="ytick_12">
     <g id="line2d_32">
      <g>
       <use style="stroke:#000000;stroke-width:0.8;" x="39.94" xlink:href="#m76be57c93b" y="397.049455"/>
      </g>
     </g>
     <g id="text_32">
      <!-- 0.00 -->
      <g transform="translate(10.674375 400.848673)scale(0.1 -0.1)">
       <use xlink:href="#DejaVuSans-48"/>
       <use x="63.623047" xlink:href="#DejaVuSans-46"/>
       <use x="95.410156" xlink:href="#DejaVuSans-48"/>
       <use x="159.033203" xlink:href="#DejaVuSans-48"/>
      </g>
     </g>
    </g>
    <g id="ytick_13">
     <g id="line2d_33">
      <g>
       <use style="stroke:#000000;stroke-width:0.8;" x="39.94" xlink:href="#m76be57c93b" y="366.992787"/>
      </g>
     </g>
     <g id="text_33">
      <!-- 0.02 -->
      <g transform="translate(10.674375 370.792006)scale(0.1 -0.1)">
       <use xlink:href="#DejaVuSans-48"/>
       <use x="63.623047" xlink:href="#DejaVuSans-46"/>
       <use x="95.410156" xlink:href="#DejaVuSans-48"/>
       <use x="159.033203" xlink:href="#DejaVuSans-50"/>
      </g>
     </g>
    </g>
    <g id="ytick_14">
     <g id="line2d_34">
      <g>
       <use style="stroke:#000000;stroke-width:0.8;" x="39.94" xlink:href="#m76be57c93b" y="336.93612"/>
      </g>
     </g>
     <g id="text_34">
      <!-- 0.04 -->
      <g transform="translate(10.674375 340.735339)scale(0.1 -0.1)">
       <use xlink:href="#DejaVuSans-48"/>
       <use x="63.623047" xlink:href="#DejaVuSans-46"/>
       <use x="95.410156" xlink:href="#DejaVuSans-48"/>
       <use x="159.033203" xlink:href="#DejaVuSans-52"/>
      </g>
     </g>
    </g>
    <g id="ytick_15">
     <g id="line2d_35">
      <g>
       <use style="stroke:#000000;stroke-width:0.8;" x="39.94" xlink:href="#m76be57c93b" y="306.879453"/>
      </g>
     </g>
     <g id="text_35">
      <!-- 0.06 -->
      <g transform="translate(10.674375 310.678672)scale(0.1 -0.1)">
       <use xlink:href="#DejaVuSans-48"/>
       <use x="63.623047" xlink:href="#DejaVuSans-46"/>
       <use x="95.410156" xlink:href="#DejaVuSans-48"/>
       <use x="159.033203" xlink:href="#DejaVuSans-54"/>
      </g>
     </g>
    </g>
    <g id="ytick_16">
     <g id="line2d_36">
      <g>
       <use style="stroke:#000000;stroke-width:0.8;" x="39.94" xlink:href="#m76be57c93b" y="276.822786"/>
      </g>
     </g>
     <g id="text_36">
      <!-- 0.08 -->
      <g transform="translate(10.674375 280.622004)scale(0.1 -0.1)">
       <use xlink:href="#DejaVuSans-48"/>
       <use x="63.623047" xlink:href="#DejaVuSans-46"/>
       <use x="95.410156" xlink:href="#DejaVuSans-48"/>
       <use x="159.033203" xlink:href="#DejaVuSans-56"/>
      </g>
     </g>
    </g>
   </g>
   <g id="line2d_37">
    <path clip-path="url(#p6c9af73c99)" d="M 50.460584 397.049455 
L 52.585955 397.049455 
L 54.711326 379.530218 
L 56.836696 397.049455 
L 58.962067 397.049455 
L 61.087437 397.049455 
L 63.212808 364.590902 
L 65.338179 397.049455 
L 67.463549 331.97605 
L 69.58892 368.535309 
L 71.71429 397.049455 
L 73.839661 397.049455 
L 75.965031 397.049455 
L 78.090402 397.049455 
L 80.215773 397.049455 
L 82.341143 397.049455 
L 84.466514 287.548986 
L 86.591884 397.049455 
L 88.717255 397.049455 
L 90.842626 397.049455 
L 92.967996 288.460163 
L 95.093367 355.197135 
L 97.218737 397.049455 
L 99.344108 397.049455 
L 101.469479 397.049455 
L 103.594849 357.788125 
L 105.72022 397.049455 
L 107.84559 341.586785 
L 109.970961 397.049455 
L 112.096331 397.049455 
L 114.221702 397.049455 
L 116.347073 397.049455 
L 118.472443 397.049455 
L 120.597814 343.464969 
L 122.723184 397.049455 
L 124.848555 397.049455 
L 126.973926 397.049455 
L 129.099296 397.049455 
L 131.224667 397.049455 
L 133.350037 371.622965 
L 135.475408 397.049455 
L 137.600779 397.049455 
L 139.726149 397.049455 
L 141.85152 397.049455 
L 143.97689 397.049455 
L 146.102261 335.375633 
L 148.227632 397.049455 
L 150.353002 397.049455 
L 152.478373 397.049455 
L 154.603743 315.251186 
L 156.729114 397.049455 
L 158.854484 397.049455 
L 160.979855 397.049455 
L 163.105226 357.419111 
L 165.230596 397.049455 
L 167.355967 397.049455 
L 169.481337 397.049455 
L 171.606708 397.049455 
L 173.732079 374.168051 
L 175.857449 397.049455 
L 177.98282 348.891093 
L 180.10819 397.049455 
L 182.233561 397.049455 
L 184.358932 397.049455 
L 186.484302 397.049455 
L 188.609673 397.049455 
L 190.735043 397.049455 
L 192.860414 397.049455 
L 194.985784 397.049455 
L 197.111155 397.049455 
L 199.236526 397.049455 
L 201.361896 397.049455 
L 203.487267 322.275549 
L 205.612637 397.049455 
L 207.738008 397.049455 
L 209.863379 397.049455 
L 211.988749 397.049455 
L 214.11412 329.773384 
L 216.23949 397.049455 
L 218.364861 366.195686 
L 220.490232 397.049455 
L 222.615602 397.049455 
L 224.740973 397.049455 
L 226.866343 397.049455 
L 228.991714 365.228807 
L 231.117084 397.049455 
L 233.242455 397.049455 
L 235.367826 397.049455 
L 237.493196 255.638545 
L 239.618567 316.334659 
L 241.743937 397.049455 
L 243.869308 262.985439 
L 245.994679 397.049455 
L 248.120049 397.049455 
L 250.24542 397.049455 
L 252.37079 397.049455 
L 254.496161 286.514798 
L 256.621532 397.049455 
L 258.746902 397.049455 
L 260.872273 397.049455 
" style="fill:none;stroke:#008000;stroke-linecap:square;stroke-width:1.5;"/>
   </g>
   <g id="patch_13">
    <path d="M 39.94 404.12 
L 39.94 248.568 
" style="fill:none;stroke:#000000;stroke-linecap:square;stroke-linejoin:miter;stroke-width:0.8;"/>
   </g>
   <g id="patch_14">
    <path d="M 271.392857 404.12 
L 271.392857 248.568 
" style="fill:none;stroke:#000000;stroke-linecap:square;stroke-linejoin:miter;stroke-width:0.8;"/>
   </g>
   <g id="patch_15">
    <path d="M 39.94 404.12 
L 271.392857 404.12 
" style="fill:none;stroke:#000000;stroke-linecap:square;stroke-linejoin:miter;stroke-width:0.8;"/>
   </g>
   <g id="patch_16">
    <path d="M 39.94 248.568 
L 271.392857 248.568 
" style="fill:none;stroke:#000000;stroke-linecap:square;stroke-linejoin:miter;stroke-width:0.8;"/>
   </g>
   <g id="text_37">
    <!-- Estimated input signal(Normalized) 3  -->
    <g transform="translate(41.917679 229.130625)scale(0.12 -0.12)">
     <use xlink:href="#DejaVuSans-69"/>
     <use x="63.183594" xlink:href="#DejaVuSans-115"/>
     <use x="115.283203" xlink:href="#DejaVuSans-116"/>
     <use x="154.492188" xlink:href="#DejaVuSans-105"/>
     <use x="182.275391" xlink:href="#DejaVuSans-109"/>
     <use x="279.6875" xlink:href="#DejaVuSans-97"/>
     <use x="340.966797" xlink:href="#DejaVuSans-116"/>
     <use x="380.175781" xlink:href="#DejaVuSans-101"/>
     <use x="441.699219" xlink:href="#DejaVuSans-100"/>
     <use x="505.175781" xlink:href="#DejaVuSans-32"/>
     <use x="536.962891" xlink:href="#DejaVuSans-105"/>
     <use x="564.746094" xlink:href="#DejaVuSans-110"/>
     <use x="628.125" xlink:href="#DejaVuSans-112"/>
     <use x="691.601562" xlink:href="#DejaVuSans-117"/>
     <use x="754.980469" xlink:href="#DejaVuSans-116"/>
     <use x="794.189453" xlink:href="#DejaVuSans-32"/>
     <use x="825.976562" xlink:href="#DejaVuSans-115"/>
     <use x="878.076172" xlink:href="#DejaVuSans-105"/>
     <use x="905.859375" xlink:href="#DejaVuSans-103"/>
     <use x="969.335938" xlink:href="#DejaVuSans-110"/>
     <use x="1032.714844" xlink:href="#DejaVuSans-97"/>
     <use x="1093.994141" xlink:href="#DejaVuSans-108"/>
     <use x="1121.777344" xlink:href="#DejaVuSans-40"/>
     <use x="1160.791016" xlink:href="#DejaVuSans-78"/>
     <use x="1235.595703" xlink:href="#DejaVuSans-111"/>
     <use x="1296.777344" xlink:href="#DejaVuSans-114"/>
     <use x="1337.875" xlink:href="#DejaVuSans-109"/>
     <use x="1435.287109" xlink:href="#DejaVuSans-97"/>
     <use x="1496.566406" xlink:href="#DejaVuSans-108"/>
     <use x="1524.349609" xlink:href="#DejaVuSans-105"/>
     <use x="1552.132812" xlink:href="#DejaVuSans-122"/>
     <use x="1604.623047" xlink:href="#DejaVuSans-101"/>
     <use x="1666.146484" xlink:href="#DejaVuSans-100"/>
     <use x="1729.623047" xlink:href="#DejaVuSans-41"/>
     <use x="1768.636719" xlink:href="#DejaVuSans-32"/>
     <use x="1800.423828" xlink:href="#DejaVuSans-51"/>
     <use x="1864.046875" xlink:href="#DejaVuSans-32"/>
    </g>
    <!--  Error rate: 7.374710008623192e-15 -->
    <g transform="translate(44.399241 242.568)scale(0.12 -0.12)">
     <use xlink:href="#DejaVuSans-32"/>
     <use x="31.787109" xlink:href="#DejaVuSans-69"/>
     <use x="94.970703" xlink:href="#DejaVuSans-114"/>
     <use x="136.068359" xlink:href="#DejaVuSans-114"/>
     <use x="177.150391" xlink:href="#DejaVuSans-111"/>
     <use x="238.332031" xlink:href="#DejaVuSans-114"/>
     <use x="279.445312" xlink:href="#DejaVuSans-32"/>
     <use x="311.232422" xlink:href="#DejaVuSans-114"/>
     <use x="352.345703" xlink:href="#DejaVuSans-97"/>
     <use x="413.625" xlink:href="#DejaVuSans-116"/>
     <use x="452.833984" xlink:href="#DejaVuSans-101"/>
     <use x="514.357422" xlink:href="#DejaVuSans-58"/>
     <use x="548.048828" xlink:href="#DejaVuSans-32"/>
     <use x="579.835938" xlink:href="#DejaVuSans-55"/>
     <use x="643.458984" xlink:href="#DejaVuSans-46"/>
     <use x="675.246094" xlink:href="#DejaVuSans-51"/>
     <use x="738.869141" xlink:href="#DejaVuSans-55"/>
     <use x="802.492188" xlink:href="#DejaVuSans-52"/>
     <use x="866.115234" xlink:href="#DejaVuSans-55"/>
     <use x="929.738281" xlink:href="#DejaVuSans-49"/>
     <use x="993.361328" xlink:href="#DejaVuSans-48"/>
     <use x="1056.984375" xlink:href="#DejaVuSans-48"/>
     <use x="1120.607422" xlink:href="#DejaVuSans-48"/>
     <use x="1184.230469" xlink:href="#DejaVuSans-56"/>
     <use x="1247.853516" xlink:href="#DejaVuSans-54"/>
     <use x="1311.476562" xlink:href="#DejaVuSans-50"/>
     <use x="1375.099609" xlink:href="#DejaVuSans-51"/>
     <use x="1438.722656" xlink:href="#DejaVuSans-49"/>
     <use x="1502.345703" xlink:href="#DejaVuSans-57"/>
     <use x="1565.96875" xlink:href="#DejaVuSans-50"/>
     <use x="1629.591797" xlink:href="#DejaVuSans-101"/>
     <use x="1691.115234" xlink:href="#DejaVuSans-45"/>
     <use x="1727.199219" xlink:href="#DejaVuSans-49"/>
     <use x="1790.822266" xlink:href="#DejaVuSans-53"/>
    </g>
   </g>
  </g>
  <g id="axes_4">
   <g id="patch_17">
    <path d="M 326.485 404.12 
L 557.937857 404.12 
L 557.937857 248.568 
L 326.485 248.568 
z
" style="fill:#ffffff;"/>
   </g>
   <g id="matplotlib.axis_7">
    <g id="xtick_19">
     <g id="line2d_38">
      <g>
       <use style="stroke:#000000;stroke-width:0.8;" x="337.005584" xlink:href="#mafa90fac01" y="404.12"/>
      </g>
     </g>
     <g id="text_38">
      <!-- 0 -->
      <g transform="translate(333.824334 418.718438)scale(0.1 -0.1)">
       <use xlink:href="#DejaVuSans-48"/>
      </g>
     </g>
    </g>
    <g id="xtick_20">
     <g id="line2d_39">
      <g>
       <use style="stroke:#000000;stroke-width:0.8;" x="379.512996" xlink:href="#mafa90fac01" y="404.12"/>
      </g>
     </g>
     <g id="text_39">
      <!-- 20 -->
      <g transform="translate(373.150496 418.718438)scale(0.1 -0.1)">
       <use xlink:href="#DejaVuSans-50"/>
       <use x="63.623047" xlink:href="#DejaVuSans-48"/>
      </g>
     </g>
    </g>
    <g id="xtick_21">
     <g id="line2d_40">
      <g>
       <use style="stroke:#000000;stroke-width:0.8;" x="422.020408" xlink:href="#mafa90fac01" y="404.12"/>
      </g>
     </g>
     <g id="text_40">
      <!-- 40 -->
      <g transform="translate(415.657908 418.718438)scale(0.1 -0.1)">
       <use xlink:href="#DejaVuSans-52"/>
       <use x="63.623047" xlink:href="#DejaVuSans-48"/>
      </g>
     </g>
    </g>
    <g id="xtick_22">
     <g id="line2d_41">
      <g>
       <use style="stroke:#000000;stroke-width:0.8;" x="464.52782" xlink:href="#mafa90fac01" y="404.12"/>
      </g>
     </g>
     <g id="text_41">
      <!-- 60 -->
      <g transform="translate(458.16532 418.718438)scale(0.1 -0.1)">
       <use xlink:href="#DejaVuSans-54"/>
       <use x="63.623047" xlink:href="#DejaVuSans-48"/>
      </g>
     </g>
    </g>
    <g id="xtick_23">
     <g id="line2d_42">
      <g>
       <use style="stroke:#000000;stroke-width:0.8;" x="507.035232" xlink:href="#mafa90fac01" y="404.12"/>
      </g>
     </g>
     <g id="text_42">
      <!-- 80 -->
      <g transform="translate(500.672732 418.718438)scale(0.1 -0.1)">
       <use xlink:href="#DejaVuSans-56"/>
       <use x="63.623047" xlink:href="#DejaVuSans-48"/>
      </g>
     </g>
    </g>
    <g id="xtick_24">
     <g id="line2d_43">
      <g>
       <use style="stroke:#000000;stroke-width:0.8;" x="549.542643" xlink:href="#mafa90fac01" y="404.12"/>
      </g>
     </g>
     <g id="text_43">
      <!-- 100 -->
      <g transform="translate(539.998893 418.718438)scale(0.1 -0.1)">
       <use xlink:href="#DejaVuSans-49"/>
       <use x="63.623047" xlink:href="#DejaVuSans-48"/>
       <use x="127.246094" xlink:href="#DejaVuSans-48"/>
      </g>
     </g>
    </g>
   </g>
   <g id="matplotlib.axis_8">
    <g id="ytick_17">
     <g id="line2d_44">
      <g>
       <use style="stroke:#000000;stroke-width:0.8;" x="326.485" xlink:href="#m76be57c93b" y="397.049455"/>
      </g>
     </g>
     <g id="text_44">
      <!-- 0.000 -->
      <g transform="translate(290.856875 400.848673)scale(0.1 -0.1)">
       <use xlink:href="#DejaVuSans-48"/>
       <use x="63.623047" xlink:href="#DejaVuSans-46"/>
       <use x="95.410156" xlink:href="#DejaVuSans-48"/>
       <use x="159.033203" xlink:href="#DejaVuSans-48"/>
       <use x="222.65625" xlink:href="#DejaVuSans-48"/>
      </g>
     </g>
    </g>
    <g id="ytick_18">
     <g id="line2d_45">
      <g>
       <use style="stroke:#000000;stroke-width:0.8;" x="326.485" xlink:href="#m76be57c93b" y="371.395416"/>
      </g>
     </g>
     <g id="text_45">
      <!-- 0.025 -->
      <g transform="translate(290.856875 375.194635)scale(0.1 -0.1)">
       <use xlink:href="#DejaVuSans-48"/>
       <use x="63.623047" xlink:href="#DejaVuSans-46"/>
       <use x="95.410156" xlink:href="#DejaVuSans-48"/>
       <use x="159.033203" xlink:href="#DejaVuSans-50"/>
       <use x="222.65625" xlink:href="#DejaVuSans-53"/>
      </g>
     </g>
    </g>
    <g id="ytick_19">
     <g id="line2d_46">
      <g>
       <use style="stroke:#000000;stroke-width:0.8;" x="326.485" xlink:href="#m76be57c93b" y="345.741378"/>
      </g>
     </g>
     <g id="text_46">
      <!-- 0.050 -->
      <g transform="translate(290.856875 349.540597)scale(0.1 -0.1)">
       <use xlink:href="#DejaVuSans-48"/>
       <use x="63.623047" xlink:href="#DejaVuSans-46"/>
       <use x="95.410156" xlink:href="#DejaVuSans-48"/>
       <use x="159.033203" xlink:href="#DejaVuSans-53"/>
       <use x="222.65625" xlink:href="#DejaVuSans-48"/>
      </g>
     </g>
    </g>
    <g id="ytick_20">
     <g id="line2d_47">
      <g>
       <use style="stroke:#000000;stroke-width:0.8;" x="326.485" xlink:href="#m76be57c93b" y="320.08734"/>
      </g>
     </g>
     <g id="text_47">
      <!-- 0.075 -->
      <g transform="translate(290.856875 323.886559)scale(0.1 -0.1)">
       <use xlink:href="#DejaVuSans-48"/>
       <use x="63.623047" xlink:href="#DejaVuSans-46"/>
       <use x="95.410156" xlink:href="#DejaVuSans-48"/>
       <use x="159.033203" xlink:href="#DejaVuSans-55"/>
       <use x="222.65625" xlink:href="#DejaVuSans-53"/>
      </g>
     </g>
    </g>
    <g id="ytick_21">
     <g id="line2d_48">
      <g>
       <use style="stroke:#000000;stroke-width:0.8;" x="326.485" xlink:href="#m76be57c93b" y="294.433302"/>
      </g>
     </g>
     <g id="text_48">
      <!-- 0.100 -->
      <g transform="translate(290.856875 298.232521)scale(0.1 -0.1)">
       <use xlink:href="#DejaVuSans-48"/>
       <use x="63.623047" xlink:href="#DejaVuSans-46"/>
       <use x="95.410156" xlink:href="#DejaVuSans-49"/>
       <use x="159.033203" xlink:href="#DejaVuSans-48"/>
       <use x="222.65625" xlink:href="#DejaVuSans-48"/>
      </g>
     </g>
    </g>
    <g id="ytick_22">
     <g id="line2d_49">
      <g>
       <use style="stroke:#000000;stroke-width:0.8;" x="326.485" xlink:href="#m76be57c93b" y="268.779264"/>
      </g>
     </g>
     <g id="text_49">
      <!-- 0.125 -->
      <g transform="translate(290.856875 272.578482)scale(0.1 -0.1)">
       <use xlink:href="#DejaVuSans-48"/>
       <use x="63.623047" xlink:href="#DejaVuSans-46"/>
       <use x="95.410156" xlink:href="#DejaVuSans-49"/>
       <use x="159.033203" xlink:href="#DejaVuSans-50"/>
       <use x="222.65625" xlink:href="#DejaVuSans-53"/>
      </g>
     </g>
    </g>
   </g>
   <g id="line2d_50">
    <path clip-path="url(#p2f54f3f79a)" d="M 337.005584 397.049455 
L 339.130955 397.049455 
L 341.256326 397.049455 
L 343.381696 397.049455 
L 345.507067 397.049455 
L 347.632437 397.049455 
L 349.757808 397.049455 
L 351.883179 255.638545 
L 354.008549 397.049455 
L 356.13392 397.049455 
L 358.25929 314.642552 
L 360.384661 397.049455 
L 362.510031 397.049455 
L 364.635402 397.049455 
L 366.760773 288.473801 
L 368.886143 339.296861 
L 371.011514 397.049455 
L 373.136884 397.049455 
L 375.262255 397.049455 
L 377.387626 397.049455 
L 379.512996 397.049455 
L 381.638367 397.049455 
L 383.763737 397.049455 
L 385.889108 369.651878 
L 388.014479 293.482606 
L 390.139849 397.049455 
L 392.26522 397.049455 
L 394.39059 397.049455 
L 396.515961 397.049455 
L 398.641331 397.049455 
L 400.766702 397.049455 
L 402.892073 397.049455 
L 405.017443 397.049455 
L 407.142814 397.049455 
L 409.268184 397.049455 
L 411.393555 397.049455 
L 413.518926 397.049455 
L 415.644296 397.049455 
L 417.769667 397.049455 
L 419.895037 397.049455 
L 422.020408 397.049455 
L 424.145779 397.049455 
L 426.271149 397.049455 
L 428.39652 397.049455 
L 430.52189 281.757839 
L 432.647261 397.049455 
L 434.772632 385.35881 
L 436.898002 397.049455 
L 439.023373 295.009094 
L 441.148743 397.049455 
L 443.274114 397.049455 
L 445.399484 397.049455 
L 447.524855 350.949209 
L 449.650226 397.049455 
L 451.775596 397.049455 
L 453.900967 397.049455 
L 456.026337 397.049455 
L 458.151708 397.049455 
L 460.277079 397.049455 
L 462.402449 397.049455 
L 464.52782 397.049455 
L 466.65319 397.049455 
L 468.778561 397.049455 
L 470.903932 397.049455 
L 473.029302 382.263217 
L 475.154673 397.049455 
L 477.280043 397.049455 
L 479.405414 397.049455 
L 481.530784 397.049455 
L 483.656155 397.049455 
L 485.781526 394.892368 
L 487.906896 397.049455 
L 490.032267 397.049455 
L 492.157637 397.049455 
L 494.283008 315.809761 
L 496.408379 397.049455 
L 498.533749 397.049455 
L 500.65912 397.049455 
L 502.78449 397.049455 
L 504.909861 397.049455 
L 507.035232 397.049455 
L 509.160602 397.049455 
L 511.285973 397.049455 
L 513.411343 397.049455 
L 515.536714 397.049455 
L 517.662084 397.049455 
L 519.787455 397.049455 
L 521.912826 397.049455 
L 524.038196 397.049455 
L 526.163567 397.049455 
L 528.288937 397.049455 
L 530.414308 397.049455 
L 532.539679 397.049455 
L 534.665049 397.049455 
L 536.79042 397.049455 
L 538.91579 397.049455 
L 541.041161 397.049455 
L 543.166532 397.049455 
L 545.291902 265.304296 
L 547.417273 397.049455 
" style="fill:none;stroke:#008000;stroke-linecap:square;stroke-width:1.5;"/>
   </g>
   <g id="patch_18">
    <path d="M 326.485 404.12 
L 326.485 248.568 
" style="fill:none;stroke:#000000;stroke-linecap:square;stroke-linejoin:miter;stroke-width:0.8;"/>
   </g>
   <g id="patch_19">
    <path d="M 557.937857 404.12 
L 557.937857 248.568 
" style="fill:none;stroke:#000000;stroke-linecap:square;stroke-linejoin:miter;stroke-width:0.8;"/>
   </g>
   <g id="patch_20">
    <path d="M 326.485 404.12 
L 557.937857 404.12 
" style="fill:none;stroke:#000000;stroke-linecap:square;stroke-linejoin:miter;stroke-width:0.8;"/>
   </g>
   <g id="patch_21">
    <path d="M 326.485 248.568 
L 557.937857 248.568 
" style="fill:none;stroke:#000000;stroke-linecap:square;stroke-linejoin:miter;stroke-width:0.8;"/>
   </g>
   <g id="text_50">
    <!-- Estimated input signal(Normalized) 4  -->
    <g transform="translate(328.462679 229.130625)scale(0.12 -0.12)">
     <use xlink:href="#DejaVuSans-69"/>
     <use x="63.183594" xlink:href="#DejaVuSans-115"/>
     <use x="115.283203" xlink:href="#DejaVuSans-116"/>
     <use x="154.492188" xlink:href="#DejaVuSans-105"/>
     <use x="182.275391" xlink:href="#DejaVuSans-109"/>
     <use x="279.6875" xlink:href="#DejaVuSans-97"/>
     <use x="340.966797" xlink:href="#DejaVuSans-116"/>
     <use x="380.175781" xlink:href="#DejaVuSans-101"/>
     <use x="441.699219" xlink:href="#DejaVuSans-100"/>
     <use x="505.175781" xlink:href="#DejaVuSans-32"/>
     <use x="536.962891" xlink:href="#DejaVuSans-105"/>
     <use x="564.746094" xlink:href="#DejaVuSans-110"/>
     <use x="628.125" xlink:href="#DejaVuSans-112"/>
     <use x="691.601562" xlink:href="#DejaVuSans-117"/>
     <use x="754.980469" xlink:href="#DejaVuSans-116"/>
     <use x="794.189453" xlink:href="#DejaVuSans-32"/>
     <use x="825.976562" xlink:href="#DejaVuSans-115"/>
     <use x="878.076172" xlink:href="#DejaVuSans-105"/>
     <use x="905.859375" xlink:href="#DejaVuSans-103"/>
     <use x="969.335938" xlink:href="#DejaVuSans-110"/>
     <use x="1032.714844" xlink:href="#DejaVuSans-97"/>
     <use x="1093.994141" xlink:href="#DejaVuSans-108"/>
     <use x="1121.777344" xlink:href="#DejaVuSans-40"/>
     <use x="1160.791016" xlink:href="#DejaVuSans-78"/>
     <use x="1235.595703" xlink:href="#DejaVuSans-111"/>
     <use x="1296.777344" xlink:href="#DejaVuSans-114"/>
     <use x="1337.875" xlink:href="#DejaVuSans-109"/>
     <use x="1435.287109" xlink:href="#DejaVuSans-97"/>
     <use x="1496.566406" xlink:href="#DejaVuSans-108"/>
     <use x="1524.349609" xlink:href="#DejaVuSans-105"/>
     <use x="1552.132812" xlink:href="#DejaVuSans-122"/>
     <use x="1604.623047" xlink:href="#DejaVuSans-101"/>
     <use x="1666.146484" xlink:href="#DejaVuSans-100"/>
     <use x="1729.623047" xlink:href="#DejaVuSans-41"/>
     <use x="1768.636719" xlink:href="#DejaVuSans-32"/>
     <use x="1800.423828" xlink:href="#DejaVuSans-52"/>
     <use x="1864.046875" xlink:href="#DejaVuSans-32"/>
    </g>
    <!--  Error rate: 7.370842363528516e-16 -->
    <g transform="translate(330.944241 242.568)scale(0.12 -0.12)">
     <use xlink:href="#DejaVuSans-32"/>
     <use x="31.787109" xlink:href="#DejaVuSans-69"/>
     <use x="94.970703" xlink:href="#DejaVuSans-114"/>
     <use x="136.068359" xlink:href="#DejaVuSans-114"/>
     <use x="177.150391" xlink:href="#DejaVuSans-111"/>
     <use x="238.332031" xlink:href="#DejaVuSans-114"/>
     <use x="279.445312" xlink:href="#DejaVuSans-32"/>
     <use x="311.232422" xlink:href="#DejaVuSans-114"/>
     <use x="352.345703" xlink:href="#DejaVuSans-97"/>
     <use x="413.625" xlink:href="#DejaVuSans-116"/>
     <use x="452.833984" xlink:href="#DejaVuSans-101"/>
     <use x="514.357422" xlink:href="#DejaVuSans-58"/>
     <use x="548.048828" xlink:href="#DejaVuSans-32"/>
     <use x="579.835938" xlink:href="#DejaVuSans-55"/>
     <use x="643.458984" xlink:href="#DejaVuSans-46"/>
     <use x="675.246094" xlink:href="#DejaVuSans-51"/>
     <use x="738.869141" xlink:href="#DejaVuSans-55"/>
     <use x="802.492188" xlink:href="#DejaVuSans-48"/>
     <use x="866.115234" xlink:href="#DejaVuSans-56"/>
     <use x="929.738281" xlink:href="#DejaVuSans-52"/>
     <use x="993.361328" xlink:href="#DejaVuSans-50"/>
     <use x="1056.984375" xlink:href="#DejaVuSans-51"/>
     <use x="1120.607422" xlink:href="#DejaVuSans-54"/>
     <use x="1184.230469" xlink:href="#DejaVuSans-51"/>
     <use x="1247.853516" xlink:href="#DejaVuSans-53"/>
     <use x="1311.476562" xlink:href="#DejaVuSans-50"/>
     <use x="1375.099609" xlink:href="#DejaVuSans-56"/>
     <use x="1438.722656" xlink:href="#DejaVuSans-53"/>
     <use x="1502.345703" xlink:href="#DejaVuSans-49"/>
     <use x="1565.96875" xlink:href="#DejaVuSans-54"/>
     <use x="1629.591797" xlink:href="#DejaVuSans-101"/>
     <use x="1691.115234" xlink:href="#DejaVuSans-45"/>
     <use x="1727.199219" xlink:href="#DejaVuSans-49"/>
     <use x="1790.822266" xlink:href="#DejaVuSans-54"/>
    </g>
   </g>
  </g>
  <g id="axes_5">
   <g id="patch_22">
    <path d="M 613.03 404.12 
L 844.482857 404.12 
L 844.482857 248.568 
L 613.03 248.568 
z
" style="fill:#ffffff;"/>
   </g>
   <g id="matplotlib.axis_9">
    <g id="xtick_25">
     <g id="line2d_51">
      <g>
       <use style="stroke:#000000;stroke-width:0.8;" x="623.550584" xlink:href="#mafa90fac01" y="404.12"/>
      </g>
     </g>
     <g id="text_51">
      <!-- 0 -->
      <g transform="translate(620.369334 418.718438)scale(0.1 -0.1)">
       <use xlink:href="#DejaVuSans-48"/>
      </g>
     </g>
    </g>
    <g id="xtick_26">
     <g id="line2d_52">
      <g>
       <use style="stroke:#000000;stroke-width:0.8;" x="666.057996" xlink:href="#mafa90fac01" y="404.12"/>
      </g>
     </g>
     <g id="text_52">
      <!-- 20 -->
      <g transform="translate(659.695496 418.718438)scale(0.1 -0.1)">
       <use xlink:href="#DejaVuSans-50"/>
       <use x="63.623047" xlink:href="#DejaVuSans-48"/>
      </g>
     </g>
    </g>
    <g id="xtick_27">
     <g id="line2d_53">
      <g>
       <use style="stroke:#000000;stroke-width:0.8;" x="708.565408" xlink:href="#mafa90fac01" y="404.12"/>
      </g>
     </g>
     <g id="text_53">
      <!-- 40 -->
      <g transform="translate(702.202908 418.718438)scale(0.1 -0.1)">
       <use xlink:href="#DejaVuSans-52"/>
       <use x="63.623047" xlink:href="#DejaVuSans-48"/>
      </g>
     </g>
    </g>
    <g id="xtick_28">
     <g id="line2d_54">
      <g>
       <use style="stroke:#000000;stroke-width:0.8;" x="751.07282" xlink:href="#mafa90fac01" y="404.12"/>
      </g>
     </g>
     <g id="text_54">
      <!-- 60 -->
      <g transform="translate(744.71032 418.718438)scale(0.1 -0.1)">
       <use xlink:href="#DejaVuSans-54"/>
       <use x="63.623047" xlink:href="#DejaVuSans-48"/>
      </g>
     </g>
    </g>
    <g id="xtick_29">
     <g id="line2d_55">
      <g>
       <use style="stroke:#000000;stroke-width:0.8;" x="793.580232" xlink:href="#mafa90fac01" y="404.12"/>
      </g>
     </g>
     <g id="text_55">
      <!-- 80 -->
      <g transform="translate(787.217732 418.718438)scale(0.1 -0.1)">
       <use xlink:href="#DejaVuSans-56"/>
       <use x="63.623047" xlink:href="#DejaVuSans-48"/>
      </g>
     </g>
    </g>
    <g id="xtick_30">
     <g id="line2d_56">
      <g>
       <use style="stroke:#000000;stroke-width:0.8;" x="836.087643" xlink:href="#mafa90fac01" y="404.12"/>
      </g>
     </g>
     <g id="text_56">
      <!-- 100 -->
      <g transform="translate(826.543893 418.718438)scale(0.1 -0.1)">
       <use xlink:href="#DejaVuSans-49"/>
       <use x="63.623047" xlink:href="#DejaVuSans-48"/>
       <use x="127.246094" xlink:href="#DejaVuSans-48"/>
      </g>
     </g>
    </g>
   </g>
   <g id="matplotlib.axis_10">
    <g id="ytick_23">
     <g id="line2d_57">
      <g>
       <use style="stroke:#000000;stroke-width:0.8;" x="613.03" xlink:href="#m76be57c93b" y="397.049455"/>
      </g>
     </g>
     <g id="text_57">
      <!-- 0.00 -->
      <g transform="translate(583.764375 400.848673)scale(0.1 -0.1)">
       <use xlink:href="#DejaVuSans-48"/>
       <use x="63.623047" xlink:href="#DejaVuSans-46"/>
       <use x="95.410156" xlink:href="#DejaVuSans-48"/>
       <use x="159.033203" xlink:href="#DejaVuSans-48"/>
      </g>
     </g>
    </g>
    <g id="ytick_24">
     <g id="line2d_58">
      <g>
       <use style="stroke:#000000;stroke-width:0.8;" x="613.03" xlink:href="#m76be57c93b" y="363.834818"/>
      </g>
     </g>
     <g id="text_58">
      <!-- 0.02 -->
      <g transform="translate(583.764375 367.634036)scale(0.1 -0.1)">
       <use xlink:href="#DejaVuSans-48"/>
       <use x="63.623047" xlink:href="#DejaVuSans-46"/>
       <use x="95.410156" xlink:href="#DejaVuSans-48"/>
       <use x="159.033203" xlink:href="#DejaVuSans-50"/>
      </g>
     </g>
    </g>
    <g id="ytick_25">
     <g id="line2d_59">
      <g>
       <use style="stroke:#000000;stroke-width:0.8;" x="613.03" xlink:href="#m76be57c93b" y="330.620181"/>
      </g>
     </g>
     <g id="text_59">
      <!-- 0.04 -->
      <g transform="translate(583.764375 334.4194)scale(0.1 -0.1)">
       <use xlink:href="#DejaVuSans-48"/>
       <use x="63.623047" xlink:href="#DejaVuSans-46"/>
       <use x="95.410156" xlink:href="#DejaVuSans-48"/>
       <use x="159.033203" xlink:href="#DejaVuSans-52"/>
      </g>
     </g>
    </g>
    <g id="ytick_26">
     <g id="line2d_60">
      <g>
       <use style="stroke:#000000;stroke-width:0.8;" x="613.03" xlink:href="#m76be57c93b" y="297.405544"/>
      </g>
     </g>
     <g id="text_60">
      <!-- 0.06 -->
      <g transform="translate(583.764375 301.204763)scale(0.1 -0.1)">
       <use xlink:href="#DejaVuSans-48"/>
       <use x="63.623047" xlink:href="#DejaVuSans-46"/>
       <use x="95.410156" xlink:href="#DejaVuSans-48"/>
       <use x="159.033203" xlink:href="#DejaVuSans-54"/>
      </g>
     </g>
    </g>
    <g id="ytick_27">
     <g id="line2d_61">
      <g>
       <use style="stroke:#000000;stroke-width:0.8;" x="613.03" xlink:href="#m76be57c93b" y="264.190907"/>
      </g>
     </g>
     <g id="text_61">
      <!-- 0.08 -->
      <g transform="translate(583.764375 267.990126)scale(0.1 -0.1)">
       <use xlink:href="#DejaVuSans-48"/>
       <use x="63.623047" xlink:href="#DejaVuSans-46"/>
       <use x="95.410156" xlink:href="#DejaVuSans-48"/>
       <use x="159.033203" xlink:href="#DejaVuSans-56"/>
      </g>
     </g>
    </g>
   </g>
   <g id="line2d_62">
    <path clip-path="url(#pb4030f1e93)" d="M 623.550584 397.049455 
L 625.675955 397.049455 
L 627.801326 397.049455 
L 629.926696 397.049455 
L 632.052067 296.233477 
L 634.177437 397.049455 
L 636.302808 397.049455 
L 638.428179 397.049455 
L 640.553549 397.049455 
L 642.67892 397.049455 
L 644.80429 397.049455 
L 646.929661 255.638545 
L 649.055031 397.049455 
L 651.180402 397.049455 
L 653.305773 397.049455 
L 655.431143 397.049455 
L 657.556514 397.049455 
L 659.681884 384.08863 
L 661.807255 334.496013 
L 663.932626 321.683126 
L 666.057996 397.049455 
L 668.183367 397.049455 
L 670.308737 397.049455 
L 672.434108 397.049455 
L 674.559479 397.049455 
L 676.684849 397.049455 
L 678.81022 347.760205 
L 680.93559 397.049455 
L 683.060961 397.049455 
L 685.186331 397.049455 
L 687.311702 397.049455 
L 689.437073 397.049455 
L 691.562443 397.049455 
L 693.687814 397.049455 
L 695.813184 326.194474 
L 697.938555 397.049455 
L 700.063926 331.015208 
L 702.189296 397.049455 
L 704.314667 328.527685 
L 706.440037 397.049455 
L 708.565408 397.049455 
L 710.690779 397.049455 
L 712.816149 258.790785 
L 714.94152 397.049455 
L 717.06689 397.049455 
L 719.192261 397.049455 
L 721.317632 397.049455 
L 723.443002 397.049455 
L 725.568373 397.049455 
L 727.693743 397.049455 
L 729.819114 397.049455 
L 731.944484 397.049455 
L 734.069855 397.049455 
L 736.195226 397.049455 
L 738.320596 397.049455 
L 740.445967 397.049455 
L 742.571337 397.049455 
L 744.696708 397.049455 
L 746.822079 397.049455 
L 748.947449 397.049455 
L 751.07282 397.049455 
L 753.19819 370.013638 
L 755.323561 397.049455 
L 757.448932 257.946255 
L 759.574302 397.049455 
L 761.699673 397.049455 
L 763.825043 397.049455 
L 765.950414 362.708748 
L 768.075784 397.049455 
L 770.201155 369.001854 
L 772.326526 397.049455 
L 774.451896 384.334207 
L 776.577267 397.049455 
L 778.702637 335.080883 
L 780.828008 397.049455 
L 782.953379 294.396111 
L 785.078749 397.049455 
L 787.20412 397.049455 
L 789.32949 362.883066 
L 791.454861 397.049455 
L 793.580232 305.297354 
L 795.705602 397.049455 
L 797.830973 335.60351 
L 799.956343 397.049455 
L 802.081714 397.049455 
L 804.207084 397.049455 
L 806.332455 397.049455 
L 808.457826 378.13882 
L 810.583196 397.049455 
L 812.708567 397.049455 
L 814.833937 259.008833 
L 816.959308 397.049455 
L 819.084679 397.049455 
L 821.210049 397.049455 
L 823.33542 397.049455 
L 825.46079 397.049455 
L 827.586161 397.049455 
L 829.711532 397.049455 
L 831.836902 397.049455 
L 833.962273 272.564185 
" style="fill:none;stroke:#008000;stroke-linecap:square;stroke-width:1.5;"/>
   </g>
   <g id="patch_23">
    <path d="M 613.03 404.12 
L 613.03 248.568 
" style="fill:none;stroke:#000000;stroke-linecap:square;stroke-linejoin:miter;stroke-width:0.8;"/>
   </g>
   <g id="patch_24">
    <path d="M 844.482857 404.12 
L 844.482857 248.568 
" style="fill:none;stroke:#000000;stroke-linecap:square;stroke-linejoin:miter;stroke-width:0.8;"/>
   </g>
   <g id="patch_25">
    <path d="M 613.03 404.12 
L 844.482857 404.12 
" style="fill:none;stroke:#000000;stroke-linecap:square;stroke-linejoin:miter;stroke-width:0.8;"/>
   </g>
   <g id="patch_26">
    <path d="M 613.03 248.568 
L 844.482857 248.568 
" style="fill:none;stroke:#000000;stroke-linecap:square;stroke-linejoin:miter;stroke-width:0.8;"/>
   </g>
   <g id="text_62">
    <!-- Estimated input signal(Normalized) 5  -->
    <g transform="translate(615.007679 229.130625)scale(0.12 -0.12)">
     <use xlink:href="#DejaVuSans-69"/>
     <use x="63.183594" xlink:href="#DejaVuSans-115"/>
     <use x="115.283203" xlink:href="#DejaVuSans-116"/>
     <use x="154.492188" xlink:href="#DejaVuSans-105"/>
     <use x="182.275391" xlink:href="#DejaVuSans-109"/>
     <use x="279.6875" xlink:href="#DejaVuSans-97"/>
     <use x="340.966797" xlink:href="#DejaVuSans-116"/>
     <use x="380.175781" xlink:href="#DejaVuSans-101"/>
     <use x="441.699219" xlink:href="#DejaVuSans-100"/>
     <use x="505.175781" xlink:href="#DejaVuSans-32"/>
     <use x="536.962891" xlink:href="#DejaVuSans-105"/>
     <use x="564.746094" xlink:href="#DejaVuSans-110"/>
     <use x="628.125" xlink:href="#DejaVuSans-112"/>
     <use x="691.601562" xlink:href="#DejaVuSans-117"/>
     <use x="754.980469" xlink:href="#DejaVuSans-116"/>
     <use x="794.189453" xlink:href="#DejaVuSans-32"/>
     <use x="825.976562" xlink:href="#DejaVuSans-115"/>
     <use x="878.076172" xlink:href="#DejaVuSans-105"/>
     <use x="905.859375" xlink:href="#DejaVuSans-103"/>
     <use x="969.335938" xlink:href="#DejaVuSans-110"/>
     <use x="1032.714844" xlink:href="#DejaVuSans-97"/>
     <use x="1093.994141" xlink:href="#DejaVuSans-108"/>
     <use x="1121.777344" xlink:href="#DejaVuSans-40"/>
     <use x="1160.791016" xlink:href="#DejaVuSans-78"/>
     <use x="1235.595703" xlink:href="#DejaVuSans-111"/>
     <use x="1296.777344" xlink:href="#DejaVuSans-114"/>
     <use x="1337.875" xlink:href="#DejaVuSans-109"/>
     <use x="1435.287109" xlink:href="#DejaVuSans-97"/>
     <use x="1496.566406" xlink:href="#DejaVuSans-108"/>
     <use x="1524.349609" xlink:href="#DejaVuSans-105"/>
     <use x="1552.132812" xlink:href="#DejaVuSans-122"/>
     <use x="1604.623047" xlink:href="#DejaVuSans-101"/>
     <use x="1666.146484" xlink:href="#DejaVuSans-100"/>
     <use x="1729.623047" xlink:href="#DejaVuSans-41"/>
     <use x="1768.636719" xlink:href="#DejaVuSans-32"/>
     <use x="1800.423828" xlink:href="#DejaVuSans-53"/>
     <use x="1864.046875" xlink:href="#DejaVuSans-32"/>
    </g>
    <!--  Error rate: 8.00680106204293e-16 -->
    <g transform="translate(621.306741 242.568)scale(0.12 -0.12)">
     <use xlink:href="#DejaVuSans-32"/>
     <use x="31.787109" xlink:href="#DejaVuSans-69"/>
     <use x="94.970703" xlink:href="#DejaVuSans-114"/>
     <use x="136.068359" xlink:href="#DejaVuSans-114"/>
     <use x="177.150391" xlink:href="#DejaVuSans-111"/>
     <use x="238.332031" xlink:href="#DejaVuSans-114"/>
     <use x="279.445312" xlink:href="#DejaVuSans-32"/>
     <use x="311.232422" xlink:href="#DejaVuSans-114"/>
     <use x="352.345703" xlink:href="#DejaVuSans-97"/>
     <use x="413.625" xlink:href="#DejaVuSans-116"/>
     <use x="452.833984" xlink:href="#DejaVuSans-101"/>
     <use x="514.357422" xlink:href="#DejaVuSans-58"/>
     <use x="548.048828" xlink:href="#DejaVuSans-32"/>
     <use x="579.835938" xlink:href="#DejaVuSans-56"/>
     <use x="643.458984" xlink:href="#DejaVuSans-46"/>
     <use x="675.246094" xlink:href="#DejaVuSans-48"/>
     <use x="738.869141" xlink:href="#DejaVuSans-48"/>
     <use x="802.492188" xlink:href="#DejaVuSans-54"/>
     <use x="866.115234" xlink:href="#DejaVuSans-56"/>
     <use x="929.738281" xlink:href="#DejaVuSans-48"/>
     <use x="993.361328" xlink:href="#DejaVuSans-49"/>
     <use x="1056.984375" xlink:href="#DejaVuSans-48"/>
     <use x="1120.607422" xlink:href="#DejaVuSans-54"/>
     <use x="1184.230469" xlink:href="#DejaVuSans-50"/>
     <use x="1247.853516" xlink:href="#DejaVuSans-48"/>
     <use x="1311.476562" xlink:href="#DejaVuSans-52"/>
     <use x="1375.099609" xlink:href="#DejaVuSans-50"/>
     <use x="1438.722656" xlink:href="#DejaVuSans-57"/>
     <use x="1502.345703" xlink:href="#DejaVuSans-51"/>
     <use x="1565.96875" xlink:href="#DejaVuSans-101"/>
     <use x="1627.492188" xlink:href="#DejaVuSans-45"/>
     <use x="1663.576172" xlink:href="#DejaVuSans-49"/>
     <use x="1727.199219" xlink:href="#DejaVuSans-54"/>
    </g>
   </g>
  </g>
 </g>
 <defs>
  <clipPath id="p943c4cd528">
   <rect height="155.552" width="374.725357" x="39.94" y="37.968"/>
  </clipPath>
  <clipPath id="p6e170e6a25">
   <rect height="155.552" width="374.725357" x="469.7575" y="37.968"/>
  </clipPath>
  <clipPath id="p6c9af73c99">
   <rect height="155.552" width="231.452857" x="39.94" y="248.568"/>
  </clipPath>
  <clipPath id="p2f54f3f79a">
   <rect height="155.552" width="231.452857" x="326.485" y="248.568"/>
  </clipPath>
  <clipPath id="pb4030f1e93">
   <rect height="155.552" width="231.452857" x="613.03" y="248.568"/>
  </clipPath>
 </defs>
</svg>
