<?xml version="1.0" encoding="utf-8" standalone="no"?>
<!DOCTYPE svg PUBLIC "-//W3C//DTD SVG 1.1//EN"
  "http://www.w3.org/Graphics/SVG/1.1/DTD/svg11.dtd">
<!-- Created with matplotlib (https://matplotlib.org/) -->
<svg height="576pt" version="1.1" viewBox="0 0 864 576" width="864pt" xmlns="http://www.w3.org/2000/svg" xmlns:xlink="http://www.w3.org/1999/xlink">
 <defs>
  <style type="text/css">
*{stroke-linecap:butt;stroke-linejoin:round;}
  </style>
 </defs>
 <g id="figure_1">
  <g id="patch_1">
   <path d="M 0 576 
L 864 576 
L 864 0 
L 0 0 
z
" style="fill:#ffffff;"/>
  </g>
  <g id="axes_1">
   <g id="patch_2">
    <path d="M 43.09 171.32 
L 424.08 171.32 
L 424.08 25.44 
L 43.09 25.44 
z
" style="fill:#ffffff;"/>
   </g>
   <g id="matplotlib.axis_1">
    <g id="xtick_1">
     <g id="line2d_1">
      <defs>
       <path d="M 0 0 
L 0 3.5 
" id="m001bb0f26d" style="stroke:#000000;stroke-width:0.8;"/>
      </defs>
      <g>
       <use style="stroke:#000000;stroke-width:0.8;" x="60.407727" xlink:href="#m001bb0f26d" y="171.32"/>
      </g>
     </g>
     <g id="text_1">
      <!-- 0 -->
      <defs>
       <path d="M 31.78125 66.40625 
Q 24.171875 66.40625 20.328125 58.90625 
Q 16.5 51.421875 16.5 36.375 
Q 16.5 21.390625 20.328125 13.890625 
Q 24.171875 6.390625 31.78125 6.390625 
Q 39.453125 6.390625 43.28125 13.890625 
Q 47.125 21.390625 47.125 36.375 
Q 47.125 51.421875 43.28125 58.90625 
Q 39.453125 66.40625 31.78125 66.40625 
z
M 31.78125 74.21875 
Q 44.046875 74.21875 50.515625 64.515625 
Q 56.984375 54.828125 56.984375 36.375 
Q 56.984375 17.96875 50.515625 8.265625 
Q 44.046875 -1.421875 31.78125 -1.421875 
Q 19.53125 -1.421875 13.0625 8.265625 
Q 6.59375 17.96875 6.59375 36.375 
Q 6.59375 54.828125 13.0625 64.515625 
Q 19.53125 74.21875 31.78125 74.21875 
z
" id="DejaVuSans-48"/>
      </defs>
      <g transform="translate(57.226477 185.918438)scale(0.1 -0.1)">
       <use xlink:href="#DejaVuSans-48"/>
      </g>
     </g>
    </g>
    <g id="xtick_2">
     <g id="line2d_2">
      <g>
       <use style="stroke:#000000;stroke-width:0.8;" x="130.378343" xlink:href="#m001bb0f26d" y="171.32"/>
      </g>
     </g>
     <g id="text_2">
      <!-- 20 -->
      <defs>
       <path d="M 19.1875 8.296875 
L 53.609375 8.296875 
L 53.609375 0 
L 7.328125 0 
L 7.328125 8.296875 
Q 12.9375 14.109375 22.625 23.890625 
Q 32.328125 33.6875 34.8125 36.53125 
Q 39.546875 41.84375 41.421875 45.53125 
Q 43.3125 49.21875 43.3125 52.78125 
Q 43.3125 58.59375 39.234375 62.25 
Q 35.15625 65.921875 28.609375 65.921875 
Q 23.96875 65.921875 18.8125 64.3125 
Q 13.671875 62.703125 7.8125 59.421875 
L 7.8125 69.390625 
Q 13.765625 71.78125 18.9375 73 
Q 24.125 74.21875 28.421875 74.21875 
Q 39.75 74.21875 46.484375 68.546875 
Q 53.21875 62.890625 53.21875 53.421875 
Q 53.21875 48.921875 51.53125 44.890625 
Q 49.859375 40.875 45.40625 35.40625 
Q 44.1875 33.984375 37.640625 27.21875 
Q 31.109375 20.453125 19.1875 8.296875 
z
" id="DejaVuSans-50"/>
      </defs>
      <g transform="translate(124.015843 185.918438)scale(0.1 -0.1)">
       <use xlink:href="#DejaVuSans-50"/>
       <use x="63.623047" xlink:href="#DejaVuSans-48"/>
      </g>
     </g>
    </g>
    <g id="xtick_3">
     <g id="line2d_3">
      <g>
       <use style="stroke:#000000;stroke-width:0.8;" x="200.348958" xlink:href="#m001bb0f26d" y="171.32"/>
      </g>
     </g>
     <g id="text_3">
      <!-- 40 -->
      <defs>
       <path d="M 37.796875 64.3125 
L 12.890625 25.390625 
L 37.796875 25.390625 
z
M 35.203125 72.90625 
L 47.609375 72.90625 
L 47.609375 25.390625 
L 58.015625 25.390625 
L 58.015625 17.1875 
L 47.609375 17.1875 
L 47.609375 0 
L 37.796875 0 
L 37.796875 17.1875 
L 4.890625 17.1875 
L 4.890625 26.703125 
z
" id="DejaVuSans-52"/>
      </defs>
      <g transform="translate(193.986458 185.918438)scale(0.1 -0.1)">
       <use xlink:href="#DejaVuSans-52"/>
       <use x="63.623047" xlink:href="#DejaVuSans-48"/>
      </g>
     </g>
    </g>
    <g id="xtick_4">
     <g id="line2d_4">
      <g>
       <use style="stroke:#000000;stroke-width:0.8;" x="270.319573" xlink:href="#m001bb0f26d" y="171.32"/>
      </g>
     </g>
     <g id="text_4">
      <!-- 60 -->
      <defs>
       <path d="M 33.015625 40.375 
Q 26.375 40.375 22.484375 35.828125 
Q 18.609375 31.296875 18.609375 23.390625 
Q 18.609375 15.53125 22.484375 10.953125 
Q 26.375 6.390625 33.015625 6.390625 
Q 39.65625 6.390625 43.53125 10.953125 
Q 47.40625 15.53125 47.40625 23.390625 
Q 47.40625 31.296875 43.53125 35.828125 
Q 39.65625 40.375 33.015625 40.375 
z
M 52.59375 71.296875 
L 52.59375 62.3125 
Q 48.875 64.0625 45.09375 64.984375 
Q 41.3125 65.921875 37.59375 65.921875 
Q 27.828125 65.921875 22.671875 59.328125 
Q 17.53125 52.734375 16.796875 39.40625 
Q 19.671875 43.65625 24.015625 45.921875 
Q 28.375 48.1875 33.59375 48.1875 
Q 44.578125 48.1875 50.953125 41.515625 
Q 57.328125 34.859375 57.328125 23.390625 
Q 57.328125 12.15625 50.6875 5.359375 
Q 44.046875 -1.421875 33.015625 -1.421875 
Q 20.359375 -1.421875 13.671875 8.265625 
Q 6.984375 17.96875 6.984375 36.375 
Q 6.984375 53.65625 15.1875 63.9375 
Q 23.390625 74.21875 37.203125 74.21875 
Q 40.921875 74.21875 44.703125 73.484375 
Q 48.484375 72.75 52.59375 71.296875 
z
" id="DejaVuSans-54"/>
      </defs>
      <g transform="translate(263.957073 185.918438)scale(0.1 -0.1)">
       <use xlink:href="#DejaVuSans-54"/>
       <use x="63.623047" xlink:href="#DejaVuSans-48"/>
      </g>
     </g>
    </g>
    <g id="xtick_5">
     <g id="line2d_5">
      <g>
       <use style="stroke:#000000;stroke-width:0.8;" x="340.290188" xlink:href="#m001bb0f26d" y="171.32"/>
      </g>
     </g>
     <g id="text_5">
      <!-- 80 -->
      <defs>
       <path d="M 31.78125 34.625 
Q 24.75 34.625 20.71875 30.859375 
Q 16.703125 27.09375 16.703125 20.515625 
Q 16.703125 13.921875 20.71875 10.15625 
Q 24.75 6.390625 31.78125 6.390625 
Q 38.8125 6.390625 42.859375 10.171875 
Q 46.921875 13.96875 46.921875 20.515625 
Q 46.921875 27.09375 42.890625 30.859375 
Q 38.875 34.625 31.78125 34.625 
z
M 21.921875 38.8125 
Q 15.578125 40.375 12.03125 44.71875 
Q 8.5 49.078125 8.5 55.328125 
Q 8.5 64.0625 14.71875 69.140625 
Q 20.953125 74.21875 31.78125 74.21875 
Q 42.671875 74.21875 48.875 69.140625 
Q 55.078125 64.0625 55.078125 55.328125 
Q 55.078125 49.078125 51.53125 44.71875 
Q 48 40.375 41.703125 38.8125 
Q 48.828125 37.15625 52.796875 32.3125 
Q 56.78125 27.484375 56.78125 20.515625 
Q 56.78125 9.90625 50.3125 4.234375 
Q 43.84375 -1.421875 31.78125 -1.421875 
Q 19.734375 -1.421875 13.25 4.234375 
Q 6.78125 9.90625 6.78125 20.515625 
Q 6.78125 27.484375 10.78125 32.3125 
Q 14.796875 37.15625 21.921875 38.8125 
z
M 18.3125 54.390625 
Q 18.3125 48.734375 21.84375 45.5625 
Q 25.390625 42.390625 31.78125 42.390625 
Q 38.140625 42.390625 41.71875 45.5625 
Q 45.3125 48.734375 45.3125 54.390625 
Q 45.3125 60.0625 41.71875 63.234375 
Q 38.140625 66.40625 31.78125 66.40625 
Q 25.390625 66.40625 21.84375 63.234375 
Q 18.3125 60.0625 18.3125 54.390625 
z
" id="DejaVuSans-56"/>
      </defs>
      <g transform="translate(333.927688 185.918438)scale(0.1 -0.1)">
       <use xlink:href="#DejaVuSans-56"/>
       <use x="63.623047" xlink:href="#DejaVuSans-48"/>
      </g>
     </g>
    </g>
    <g id="xtick_6">
     <g id="line2d_6">
      <g>
       <use style="stroke:#000000;stroke-width:0.8;" x="410.260803" xlink:href="#m001bb0f26d" y="171.32"/>
      </g>
     </g>
     <g id="text_6">
      <!-- 100 -->
      <defs>
       <path d="M 12.40625 8.296875 
L 28.515625 8.296875 
L 28.515625 63.921875 
L 10.984375 60.40625 
L 10.984375 69.390625 
L 28.421875 72.90625 
L 38.28125 72.90625 
L 38.28125 8.296875 
L 54.390625 8.296875 
L 54.390625 0 
L 12.40625 0 
z
" id="DejaVuSans-49"/>
      </defs>
      <g transform="translate(400.717053 185.918438)scale(0.1 -0.1)">
       <use xlink:href="#DejaVuSans-49"/>
       <use x="63.623047" xlink:href="#DejaVuSans-48"/>
       <use x="127.246094" xlink:href="#DejaVuSans-48"/>
      </g>
     </g>
    </g>
   </g>
   <g id="matplotlib.axis_2">
    <g id="ytick_1">
     <g id="line2d_7">
      <defs>
       <path d="M 0 0 
L -3.5 0 
" id="maec4983349" style="stroke:#000000;stroke-width:0.8;"/>
      </defs>
      <g>
       <use style="stroke:#000000;stroke-width:0.8;" x="43.09" xlink:href="#maec4983349" y="164.689091"/>
      </g>
     </g>
     <g id="text_7">
      <!-- 0.00 -->
      <defs>
       <path d="M 10.6875 12.40625 
L 21 12.40625 
L 21 0 
L 10.6875 0 
z
" id="DejaVuSans-46"/>
      </defs>
      <g transform="translate(13.824375 168.48831)scale(0.1 -0.1)">
       <use xlink:href="#DejaVuSans-48"/>
       <use x="63.623047" xlink:href="#DejaVuSans-46"/>
       <use x="95.410156" xlink:href="#DejaVuSans-48"/>
       <use x="159.033203" xlink:href="#DejaVuSans-48"/>
      </g>
     </g>
    </g>
    <g id="ytick_2">
     <g id="line2d_8">
      <g>
       <use style="stroke:#000000;stroke-width:0.8;" x="43.09" xlink:href="#maec4983349" y="129.900893"/>
      </g>
     </g>
     <g id="text_8">
      <!-- 0.02 -->
      <g transform="translate(13.824375 133.700112)scale(0.1 -0.1)">
       <use xlink:href="#DejaVuSans-48"/>
       <use x="63.623047" xlink:href="#DejaVuSans-46"/>
       <use x="95.410156" xlink:href="#DejaVuSans-48"/>
       <use x="159.033203" xlink:href="#DejaVuSans-50"/>
      </g>
     </g>
    </g>
    <g id="ytick_3">
     <g id="line2d_9">
      <g>
       <use style="stroke:#000000;stroke-width:0.8;" x="43.09" xlink:href="#maec4983349" y="95.112695"/>
      </g>
     </g>
     <g id="text_9">
      <!-- 0.04 -->
      <g transform="translate(13.824375 98.911914)scale(0.1 -0.1)">
       <use xlink:href="#DejaVuSans-48"/>
       <use x="63.623047" xlink:href="#DejaVuSans-46"/>
       <use x="95.410156" xlink:href="#DejaVuSans-48"/>
       <use x="159.033203" xlink:href="#DejaVuSans-52"/>
      </g>
     </g>
    </g>
    <g id="ytick_4">
     <g id="line2d_10">
      <g>
       <use style="stroke:#000000;stroke-width:0.8;" x="43.09" xlink:href="#maec4983349" y="60.324497"/>
      </g>
     </g>
     <g id="text_10">
      <!-- 0.06 -->
      <g transform="translate(13.824375 64.123716)scale(0.1 -0.1)">
       <use xlink:href="#DejaVuSans-48"/>
       <use x="63.623047" xlink:href="#DejaVuSans-46"/>
       <use x="95.410156" xlink:href="#DejaVuSans-48"/>
       <use x="159.033203" xlink:href="#DejaVuSans-54"/>
      </g>
     </g>
    </g>
    <g id="ytick_5">
     <g id="line2d_11">
      <g>
       <use style="stroke:#000000;stroke-width:0.8;" x="43.09" xlink:href="#maec4983349" y="25.536299"/>
      </g>
     </g>
     <g id="text_11">
      <!-- 0.08 -->
      <g transform="translate(13.824375 29.335518)scale(0.1 -0.1)">
       <use xlink:href="#DejaVuSans-48"/>
       <use x="63.623047" xlink:href="#DejaVuSans-46"/>
       <use x="95.410156" xlink:href="#DejaVuSans-48"/>
       <use x="159.033203" xlink:href="#DejaVuSans-56"/>
      </g>
     </g>
    </g>
   </g>
   <g id="line2d_12">
    <path clip-path="url(#p5641c674b2)" d="M 60.407727 164.689091 
L 63.906258 164.689091 
L 67.404789 164.689091 
L 70.90332 106.391983 
L 74.40185 104.663581 
L 77.900381 164.689091 
L 81.398912 93.318444 
L 84.897443 119.496519 
L 88.395973 164.689091 
L 91.894504 164.689091 
L 95.393035 164.689091 
L 98.891566 164.689091 
L 102.390096 164.689091 
L 105.888627 164.689091 
L 109.387158 164.689091 
L 112.885689 164.689091 
L 116.384219 164.689091 
L 119.88275 164.689091 
L 123.381281 164.689091 
L 126.879812 164.689091 
L 130.378343 164.689091 
L 133.876873 164.689091 
L 137.375404 32.070909 
L 140.873935 164.689091 
L 144.372466 164.689091 
L 147.870996 164.689091 
L 151.369527 164.689091 
L 154.868058 164.689091 
L 158.366589 164.689091 
L 161.865119 164.689091 
L 165.36365 164.689091 
L 168.862181 164.689091 
L 172.360712 164.689091 
L 175.859242 164.689091 
L 179.357773 164.689091 
L 182.856304 164.689091 
L 186.354835 90.74386 
L 189.853365 81.991031 
L 193.351896 164.689091 
L 196.850427 164.689091 
L 200.348958 164.689091 
L 203.847489 164.689091 
L 207.346019 164.689091 
L 210.84455 164.689091 
L 214.343081 164.689091 
L 217.841612 164.689091 
L 221.340142 164.689091 
L 224.838673 76.868644 
L 228.337204 164.689091 
L 231.835735 164.689091 
L 235.334265 164.689091 
L 238.832796 96.3892 
L 242.331327 118.550085 
L 245.829858 88.382373 
L 249.328388 164.689091 
L 252.826919 164.689091 
L 256.32545 125.797234 
L 259.823981 164.689091 
L 263.322511 164.689091 
L 266.821042 164.689091 
L 270.319573 164.689091 
L 273.818104 164.689091 
L 277.316635 164.689091 
L 280.815165 164.689091 
L 284.313696 68.611746 
L 287.812227 164.689091 
L 291.310758 164.689091 
L 294.809288 164.689091 
L 298.307819 164.689091 
L 301.80635 148.831338 
L 305.304881 164.689091 
L 308.803411 164.689091 
L 312.301942 32.729233 
L 315.800473 164.689091 
L 319.299004 164.689091 
L 322.797534 164.689091 
L 326.296065 47.789036 
L 329.794596 164.689091 
L 333.293127 164.689091 
L 336.791657 164.689091 
L 340.290188 164.689091 
L 343.788719 164.689091 
L 347.28725 164.689091 
L 350.785781 40.261625 
L 354.284311 164.689091 
L 357.782842 164.689091 
L 361.281373 61.286721 
L 364.779904 164.689091 
L 368.278434 42.215701 
L 371.776965 164.689091 
L 375.275496 164.689091 
L 378.774027 164.689091 
L 382.272557 85.703359 
L 385.771088 78.177703 
L 389.269619 162.173272 
L 392.76815 164.689091 
L 396.26668 164.689091 
L 399.765211 145.995599 
L 403.263742 164.689091 
L 406.762273 164.689091 
" style="fill:none;stroke:#bfbf00;stroke-linecap:square;stroke-width:1.5;"/>
   </g>
   <g id="patch_3">
    <path d="M 43.09 171.32 
L 43.09 25.44 
" style="fill:none;stroke:#000000;stroke-linecap:square;stroke-linejoin:miter;stroke-width:0.8;"/>
   </g>
   <g id="patch_4">
    <path d="M 424.08 171.32 
L 424.08 25.44 
" style="fill:none;stroke:#000000;stroke-linecap:square;stroke-linejoin:miter;stroke-width:0.8;"/>
   </g>
   <g id="patch_5">
    <path d="M 43.09 171.32 
L 424.08 171.32 
" style="fill:none;stroke:#000000;stroke-linecap:square;stroke-linejoin:miter;stroke-width:0.8;"/>
   </g>
   <g id="patch_6">
    <path d="M 43.09 25.44 
L 424.08 25.44 
" style="fill:none;stroke:#000000;stroke-linecap:square;stroke-linejoin:miter;stroke-width:0.8;"/>
   </g>
   <g id="text_12">
    <!-- Input signal 1 -->
    <defs>
     <path d="M 9.8125 72.90625 
L 19.671875 72.90625 
L 19.671875 0 
L 9.8125 0 
z
" id="DejaVuSans-73"/>
     <path d="M 54.890625 33.015625 
L 54.890625 0 
L 45.90625 0 
L 45.90625 32.71875 
Q 45.90625 40.484375 42.875 44.328125 
Q 39.84375 48.1875 33.796875 48.1875 
Q 26.515625 48.1875 22.3125 43.546875 
Q 18.109375 38.921875 18.109375 30.90625 
L 18.109375 0 
L 9.078125 0 
L 9.078125 54.6875 
L 18.109375 54.6875 
L 18.109375 46.1875 
Q 21.34375 51.125 25.703125 53.5625 
Q 30.078125 56 35.796875 56 
Q 45.21875 56 50.046875 50.171875 
Q 54.890625 44.34375 54.890625 33.015625 
z
" id="DejaVuSans-110"/>
     <path d="M 18.109375 8.203125 
L 18.109375 -20.796875 
L 9.078125 -20.796875 
L 9.078125 54.6875 
L 18.109375 54.6875 
L 18.109375 46.390625 
Q 20.953125 51.265625 25.265625 53.625 
Q 29.59375 56 35.59375 56 
Q 45.5625 56 51.78125 48.09375 
Q 58.015625 40.1875 58.015625 27.296875 
Q 58.015625 14.40625 51.78125 6.484375 
Q 45.5625 -1.421875 35.59375 -1.421875 
Q 29.59375 -1.421875 25.265625 0.953125 
Q 20.953125 3.328125 18.109375 8.203125 
z
M 48.6875 27.296875 
Q 48.6875 37.203125 44.609375 42.84375 
Q 40.53125 48.484375 33.40625 48.484375 
Q 26.265625 48.484375 22.1875 42.84375 
Q 18.109375 37.203125 18.109375 27.296875 
Q 18.109375 17.390625 22.1875 11.75 
Q 26.265625 6.109375 33.40625 6.109375 
Q 40.53125 6.109375 44.609375 11.75 
Q 48.6875 17.390625 48.6875 27.296875 
z
" id="DejaVuSans-112"/>
     <path d="M 8.5 21.578125 
L 8.5 54.6875 
L 17.484375 54.6875 
L 17.484375 21.921875 
Q 17.484375 14.15625 20.5 10.265625 
Q 23.53125 6.390625 29.59375 6.390625 
Q 36.859375 6.390625 41.078125 11.03125 
Q 45.3125 15.671875 45.3125 23.6875 
L 45.3125 54.6875 
L 54.296875 54.6875 
L 54.296875 0 
L 45.3125 0 
L 45.3125 8.40625 
Q 42.046875 3.421875 37.71875 1 
Q 33.40625 -1.421875 27.6875 -1.421875 
Q 18.265625 -1.421875 13.375 4.4375 
Q 8.5 10.296875 8.5 21.578125 
z
M 31.109375 56 
z
" id="DejaVuSans-117"/>
     <path d="M 18.3125 70.21875 
L 18.3125 54.6875 
L 36.8125 54.6875 
L 36.8125 47.703125 
L 18.3125 47.703125 
L 18.3125 18.015625 
Q 18.3125 11.328125 20.140625 9.421875 
Q 21.96875 7.515625 27.59375 7.515625 
L 36.8125 7.515625 
L 36.8125 0 
L 27.59375 0 
Q 17.1875 0 13.234375 3.875 
Q 9.28125 7.765625 9.28125 18.015625 
L 9.28125 47.703125 
L 2.6875 47.703125 
L 2.6875 54.6875 
L 9.28125 54.6875 
L 9.28125 70.21875 
z
" id="DejaVuSans-116"/>
     <path id="DejaVuSans-32"/>
     <path d="M 44.28125 53.078125 
L 44.28125 44.578125 
Q 40.484375 46.53125 36.375 47.5 
Q 32.28125 48.484375 27.875 48.484375 
Q 21.1875 48.484375 17.84375 46.4375 
Q 14.5 44.390625 14.5 40.28125 
Q 14.5 37.15625 16.890625 35.375 
Q 19.28125 33.59375 26.515625 31.984375 
L 29.59375 31.296875 
Q 39.15625 29.25 43.1875 25.515625 
Q 47.21875 21.78125 47.21875 15.09375 
Q 47.21875 7.46875 41.1875 3.015625 
Q 35.15625 -1.421875 24.609375 -1.421875 
Q 20.21875 -1.421875 15.453125 -0.5625 
Q 10.6875 0.296875 5.421875 2 
L 5.421875 11.28125 
Q 10.40625 8.6875 15.234375 7.390625 
Q 20.0625 6.109375 24.8125 6.109375 
Q 31.15625 6.109375 34.5625 8.28125 
Q 37.984375 10.453125 37.984375 14.40625 
Q 37.984375 18.0625 35.515625 20.015625 
Q 33.0625 21.96875 24.703125 23.78125 
L 21.578125 24.515625 
Q 13.234375 26.265625 9.515625 29.90625 
Q 5.8125 33.546875 5.8125 39.890625 
Q 5.8125 47.609375 11.28125 51.796875 
Q 16.75 56 26.8125 56 
Q 31.78125 56 36.171875 55.265625 
Q 40.578125 54.546875 44.28125 53.078125 
z
" id="DejaVuSans-115"/>
     <path d="M 9.421875 54.6875 
L 18.40625 54.6875 
L 18.40625 0 
L 9.421875 0 
z
M 9.421875 75.984375 
L 18.40625 75.984375 
L 18.40625 64.59375 
L 9.421875 64.59375 
z
" id="DejaVuSans-105"/>
     <path d="M 45.40625 27.984375 
Q 45.40625 37.75 41.375 43.109375 
Q 37.359375 48.484375 30.078125 48.484375 
Q 22.859375 48.484375 18.828125 43.109375 
Q 14.796875 37.75 14.796875 27.984375 
Q 14.796875 18.265625 18.828125 12.890625 
Q 22.859375 7.515625 30.078125 7.515625 
Q 37.359375 7.515625 41.375 12.890625 
Q 45.40625 18.265625 45.40625 27.984375 
z
M 54.390625 6.78125 
Q 54.390625 -7.171875 48.1875 -13.984375 
Q 42 -20.796875 29.203125 -20.796875 
Q 24.46875 -20.796875 20.265625 -20.09375 
Q 16.0625 -19.390625 12.109375 -17.921875 
L 12.109375 -9.1875 
Q 16.0625 -11.328125 19.921875 -12.34375 
Q 23.78125 -13.375 27.78125 -13.375 
Q 36.625 -13.375 41.015625 -8.765625 
Q 45.40625 -4.15625 45.40625 5.171875 
L 45.40625 9.625 
Q 42.625 4.78125 38.28125 2.390625 
Q 33.9375 0 27.875 0 
Q 17.828125 0 11.671875 7.65625 
Q 5.515625 15.328125 5.515625 27.984375 
Q 5.515625 40.671875 11.671875 48.328125 
Q 17.828125 56 27.875 56 
Q 33.9375 56 38.28125 53.609375 
Q 42.625 51.21875 45.40625 46.390625 
L 45.40625 54.6875 
L 54.390625 54.6875 
z
" id="DejaVuSans-103"/>
     <path d="M 34.28125 27.484375 
Q 23.390625 27.484375 19.1875 25 
Q 14.984375 22.515625 14.984375 16.5 
Q 14.984375 11.71875 18.140625 8.90625 
Q 21.296875 6.109375 26.703125 6.109375 
Q 34.1875 6.109375 38.703125 11.40625 
Q 43.21875 16.703125 43.21875 25.484375 
L 43.21875 27.484375 
z
M 52.203125 31.203125 
L 52.203125 0 
L 43.21875 0 
L 43.21875 8.296875 
Q 40.140625 3.328125 35.546875 0.953125 
Q 30.953125 -1.421875 24.3125 -1.421875 
Q 15.921875 -1.421875 10.953125 3.296875 
Q 6 8.015625 6 15.921875 
Q 6 25.140625 12.171875 29.828125 
Q 18.359375 34.515625 30.609375 34.515625 
L 43.21875 34.515625 
L 43.21875 35.40625 
Q 43.21875 41.609375 39.140625 45 
Q 35.0625 48.390625 27.6875 48.390625 
Q 23 48.390625 18.546875 47.265625 
Q 14.109375 46.140625 10.015625 43.890625 
L 10.015625 52.203125 
Q 14.9375 54.109375 19.578125 55.046875 
Q 24.21875 56 28.609375 56 
Q 40.484375 56 46.34375 49.84375 
Q 52.203125 43.703125 52.203125 31.203125 
z
" id="DejaVuSans-97"/>
     <path d="M 9.421875 75.984375 
L 18.40625 75.984375 
L 18.40625 0 
L 9.421875 0 
z
" id="DejaVuSans-108"/>
    </defs>
    <g transform="translate(192.669687 19.44)scale(0.12 -0.12)">
     <use xlink:href="#DejaVuSans-73"/>
     <use x="29.492188" xlink:href="#DejaVuSans-110"/>
     <use x="92.871094" xlink:href="#DejaVuSans-112"/>
     <use x="156.347656" xlink:href="#DejaVuSans-117"/>
     <use x="219.726562" xlink:href="#DejaVuSans-116"/>
     <use x="258.935547" xlink:href="#DejaVuSans-32"/>
     <use x="290.722656" xlink:href="#DejaVuSans-115"/>
     <use x="342.822266" xlink:href="#DejaVuSans-105"/>
     <use x="370.605469" xlink:href="#DejaVuSans-103"/>
     <use x="434.082031" xlink:href="#DejaVuSans-110"/>
     <use x="497.460938" xlink:href="#DejaVuSans-97"/>
     <use x="558.740234" xlink:href="#DejaVuSans-108"/>
     <use x="586.523438" xlink:href="#DejaVuSans-32"/>
     <use x="618.310547" xlink:href="#DejaVuSans-49"/>
    </g>
   </g>
  </g>
  <g id="axes_2">
   <g id="patch_7">
    <path d="M 469.69 171.32 
L 850.68 171.32 
L 850.68 25.44 
L 469.69 25.44 
z
" style="fill:#ffffff;"/>
   </g>
   <g id="matplotlib.axis_3">
    <g id="xtick_7">
     <g id="line2d_13">
      <g>
       <use style="stroke:#000000;stroke-width:0.8;" x="487.007727" xlink:href="#m001bb0f26d" y="171.32"/>
      </g>
     </g>
     <g id="text_13">
      <!-- 0 -->
      <g transform="translate(483.826477 185.918438)scale(0.1 -0.1)">
       <use xlink:href="#DejaVuSans-48"/>
      </g>
     </g>
    </g>
    <g id="xtick_8">
     <g id="line2d_14">
      <g>
       <use style="stroke:#000000;stroke-width:0.8;" x="556.978343" xlink:href="#m001bb0f26d" y="171.32"/>
      </g>
     </g>
     <g id="text_14">
      <!-- 20 -->
      <g transform="translate(550.615843 185.918438)scale(0.1 -0.1)">
       <use xlink:href="#DejaVuSans-50"/>
       <use x="63.623047" xlink:href="#DejaVuSans-48"/>
      </g>
     </g>
    </g>
    <g id="xtick_9">
     <g id="line2d_15">
      <g>
       <use style="stroke:#000000;stroke-width:0.8;" x="626.948958" xlink:href="#m001bb0f26d" y="171.32"/>
      </g>
     </g>
     <g id="text_15">
      <!-- 40 -->
      <g transform="translate(620.586458 185.918438)scale(0.1 -0.1)">
       <use xlink:href="#DejaVuSans-52"/>
       <use x="63.623047" xlink:href="#DejaVuSans-48"/>
      </g>
     </g>
    </g>
    <g id="xtick_10">
     <g id="line2d_16">
      <g>
       <use style="stroke:#000000;stroke-width:0.8;" x="696.919573" xlink:href="#m001bb0f26d" y="171.32"/>
      </g>
     </g>
     <g id="text_16">
      <!-- 60 -->
      <g transform="translate(690.557073 185.918438)scale(0.1 -0.1)">
       <use xlink:href="#DejaVuSans-54"/>
       <use x="63.623047" xlink:href="#DejaVuSans-48"/>
      </g>
     </g>
    </g>
    <g id="xtick_11">
     <g id="line2d_17">
      <g>
       <use style="stroke:#000000;stroke-width:0.8;" x="766.890188" xlink:href="#m001bb0f26d" y="171.32"/>
      </g>
     </g>
     <g id="text_17">
      <!-- 80 -->
      <g transform="translate(760.527688 185.918438)scale(0.1 -0.1)">
       <use xlink:href="#DejaVuSans-56"/>
       <use x="63.623047" xlink:href="#DejaVuSans-48"/>
      </g>
     </g>
    </g>
    <g id="xtick_12">
     <g id="line2d_18">
      <g>
       <use style="stroke:#000000;stroke-width:0.8;" x="836.860803" xlink:href="#m001bb0f26d" y="171.32"/>
      </g>
     </g>
     <g id="text_18">
      <!-- 100 -->
      <g transform="translate(827.317053 185.918438)scale(0.1 -0.1)">
       <use xlink:href="#DejaVuSans-49"/>
       <use x="63.623047" xlink:href="#DejaVuSans-48"/>
       <use x="127.246094" xlink:href="#DejaVuSans-48"/>
      </g>
     </g>
    </g>
   </g>
   <g id="matplotlib.axis_4">
    <g id="ytick_6">
     <g id="line2d_19">
      <g>
       <use style="stroke:#000000;stroke-width:0.8;" x="469.69" xlink:href="#maec4983349" y="164.689091"/>
      </g>
     </g>
     <g id="text_19">
      <!-- 0.00 -->
      <g transform="translate(440.424375 168.48831)scale(0.1 -0.1)">
       <use xlink:href="#DejaVuSans-48"/>
       <use x="63.623047" xlink:href="#DejaVuSans-46"/>
       <use x="95.410156" xlink:href="#DejaVuSans-48"/>
       <use x="159.033203" xlink:href="#DejaVuSans-48"/>
      </g>
     </g>
    </g>
    <g id="ytick_7">
     <g id="line2d_20">
      <g>
       <use style="stroke:#000000;stroke-width:0.8;" x="469.69" xlink:href="#maec4983349" y="139.144292"/>
      </g>
     </g>
     <g id="text_20">
      <!-- 0.02 -->
      <g transform="translate(440.424375 142.943511)scale(0.1 -0.1)">
       <use xlink:href="#DejaVuSans-48"/>
       <use x="63.623047" xlink:href="#DejaVuSans-46"/>
       <use x="95.410156" xlink:href="#DejaVuSans-48"/>
       <use x="159.033203" xlink:href="#DejaVuSans-50"/>
      </g>
     </g>
    </g>
    <g id="ytick_8">
     <g id="line2d_21">
      <g>
       <use style="stroke:#000000;stroke-width:0.8;" x="469.69" xlink:href="#maec4983349" y="113.599494"/>
      </g>
     </g>
     <g id="text_21">
      <!-- 0.04 -->
      <g transform="translate(440.424375 117.398712)scale(0.1 -0.1)">
       <use xlink:href="#DejaVuSans-48"/>
       <use x="63.623047" xlink:href="#DejaVuSans-46"/>
       <use x="95.410156" xlink:href="#DejaVuSans-48"/>
       <use x="159.033203" xlink:href="#DejaVuSans-52"/>
      </g>
     </g>
    </g>
    <g id="ytick_9">
     <g id="line2d_22">
      <g>
       <use style="stroke:#000000;stroke-width:0.8;" x="469.69" xlink:href="#maec4983349" y="88.054695"/>
      </g>
     </g>
     <g id="text_22">
      <!-- 0.06 -->
      <g transform="translate(440.424375 91.853914)scale(0.1 -0.1)">
       <use xlink:href="#DejaVuSans-48"/>
       <use x="63.623047" xlink:href="#DejaVuSans-46"/>
       <use x="95.410156" xlink:href="#DejaVuSans-48"/>
       <use x="159.033203" xlink:href="#DejaVuSans-54"/>
      </g>
     </g>
    </g>
    <g id="ytick_10">
     <g id="line2d_23">
      <g>
       <use style="stroke:#000000;stroke-width:0.8;" x="469.69" xlink:href="#maec4983349" y="62.509896"/>
      </g>
     </g>
     <g id="text_23">
      <!-- 0.08 -->
      <g transform="translate(440.424375 66.309115)scale(0.1 -0.1)">
       <use xlink:href="#DejaVuSans-48"/>
       <use x="63.623047" xlink:href="#DejaVuSans-46"/>
       <use x="95.410156" xlink:href="#DejaVuSans-48"/>
       <use x="159.033203" xlink:href="#DejaVuSans-56"/>
      </g>
     </g>
    </g>
    <g id="ytick_11">
     <g id="line2d_24">
      <g>
       <use style="stroke:#000000;stroke-width:0.8;" x="469.69" xlink:href="#maec4983349" y="36.965097"/>
      </g>
     </g>
     <g id="text_24">
      <!-- 0.10 -->
      <g transform="translate(440.424375 40.764316)scale(0.1 -0.1)">
       <use xlink:href="#DejaVuSans-48"/>
       <use x="63.623047" xlink:href="#DejaVuSans-46"/>
       <use x="95.410156" xlink:href="#DejaVuSans-49"/>
       <use x="159.033203" xlink:href="#DejaVuSans-48"/>
      </g>
     </g>
    </g>
   </g>
   <g id="line2d_25">
    <path clip-path="url(#pcd54eaaf15)" d="M 487.007727 164.689091 
L 490.506258 140.062394 
L 494.004789 164.689091 
L 497.50332 164.689091 
L 501.00185 164.689091 
L 504.500381 117.169816 
L 507.998912 164.689091 
L 511.497443 164.689091 
L 514.995973 37.974199 
L 518.494504 164.689091 
L 521.993035 164.689091 
L 525.491566 160.349837 
L 528.990096 106.084043 
L 532.488627 164.689091 
L 535.987158 90.672231 
L 539.485689 164.689091 
L 542.984219 164.689091 
L 546.48275 164.689091 
L 549.981281 32.070909 
L 553.479812 164.689091 
L 556.978343 164.689091 
L 560.476873 164.689091 
L 563.975404 164.689091 
L 567.473935 164.689091 
L 570.972466 164.689091 
L 574.470996 164.689091 
L 577.969527 164.689091 
L 581.468058 164.689091 
L 584.966589 164.689091 
L 588.465119 37.293034 
L 591.96365 164.689091 
L 595.462181 164.689091 
L 598.960712 164.689091 
L 602.459242 164.689091 
L 605.957773 164.689091 
L 609.456304 133.897103 
L 612.954835 164.689091 
L 616.453365 164.689091 
L 619.951896 164.689091 
L 623.450427 164.689091 
L 626.948958 156.032872 
L 630.447489 164.689091 
L 633.946019 164.689091 
L 637.44455 164.689091 
L 640.943081 164.689091 
L 644.441612 96.325312 
L 647.940142 164.689091 
L 651.438673 164.689091 
L 654.937204 161.207024 
L 658.435735 107.212958 
L 661.934265 164.689091 
L 665.432796 164.689091 
L 668.931327 164.689091 
L 672.429858 164.689091 
L 675.928388 164.689091 
L 679.426919 164.689091 
L 682.92545 164.689091 
L 686.423981 83.445118 
L 689.922511 164.689091 
L 693.421042 103.10198 
L 696.919573 164.689091 
L 700.418104 164.689091 
L 703.916635 164.689091 
L 707.415165 164.689091 
L 710.913696 164.689091 
L 714.412227 164.689091 
L 717.910758 164.689091 
L 721.409288 164.689091 
L 724.907819 164.689091 
L 728.40635 164.689091 
L 731.904881 164.689091 
L 735.403411 164.689091 
L 738.901942 164.689091 
L 742.400473 164.689091 
L 745.899004 164.689091 
L 749.397534 164.689091 
L 752.896065 164.689091 
L 756.394596 164.689091 
L 759.893127 164.689091 
L 763.391657 164.689091 
L 766.890188 164.689091 
L 770.388719 164.689091 
L 773.88725 122.689018 
L 777.385781 164.689091 
L 780.884311 44.112794 
L 784.382842 164.689091 
L 787.881373 164.689091 
L 791.379904 81.441097 
L 794.878434 164.689091 
L 798.376965 164.689091 
L 801.875496 40.711052 
L 805.374027 164.689091 
L 808.872557 164.689091 
L 812.371088 164.689091 
L 815.869619 164.689091 
L 819.36815 164.689091 
L 822.86668 164.689091 
L 826.365211 164.689091 
L 829.863742 164.689091 
L 833.362273 164.689091 
" style="fill:none;stroke:#bfbf00;stroke-linecap:square;stroke-width:1.5;"/>
   </g>
   <g id="patch_8">
    <path d="M 469.69 171.32 
L 469.69 25.44 
" style="fill:none;stroke:#000000;stroke-linecap:square;stroke-linejoin:miter;stroke-width:0.8;"/>
   </g>
   <g id="patch_9">
    <path d="M 850.68 171.32 
L 850.68 25.44 
" style="fill:none;stroke:#000000;stroke-linecap:square;stroke-linejoin:miter;stroke-width:0.8;"/>
   </g>
   <g id="patch_10">
    <path d="M 469.69 171.32 
L 850.68 171.32 
" style="fill:none;stroke:#000000;stroke-linecap:square;stroke-linejoin:miter;stroke-width:0.8;"/>
   </g>
   <g id="patch_11">
    <path d="M 469.69 25.44 
L 850.68 25.44 
" style="fill:none;stroke:#000000;stroke-linecap:square;stroke-linejoin:miter;stroke-width:0.8;"/>
   </g>
   <g id="text_25">
    <!-- Input signal 2 -->
    <g transform="translate(619.269687 19.44)scale(0.12 -0.12)">
     <use xlink:href="#DejaVuSans-73"/>
     <use x="29.492188" xlink:href="#DejaVuSans-110"/>
     <use x="92.871094" xlink:href="#DejaVuSans-112"/>
     <use x="156.347656" xlink:href="#DejaVuSans-117"/>
     <use x="219.726562" xlink:href="#DejaVuSans-116"/>
     <use x="258.935547" xlink:href="#DejaVuSans-32"/>
     <use x="290.722656" xlink:href="#DejaVuSans-115"/>
     <use x="342.822266" xlink:href="#DejaVuSans-105"/>
     <use x="370.605469" xlink:href="#DejaVuSans-103"/>
     <use x="434.082031" xlink:href="#DejaVuSans-110"/>
     <use x="497.460938" xlink:href="#DejaVuSans-97"/>
     <use x="558.740234" xlink:href="#DejaVuSans-108"/>
     <use x="586.523438" xlink:href="#DejaVuSans-32"/>
     <use x="618.310547" xlink:href="#DejaVuSans-50"/>
    </g>
   </g>
  </g>
  <g id="axes_3">
   <g id="patch_12">
    <path d="M 43.09 359.72 
L 281.88 359.72 
L 281.88 213.84 
L 43.09 213.84 
z
" style="fill:#ffffff;"/>
   </g>
   <g id="matplotlib.axis_5">
    <g id="xtick_13">
     <g id="line2d_26">
      <g>
       <use style="stroke:#000000;stroke-width:0.8;" x="53.944091" xlink:href="#m001bb0f26d" y="359.72"/>
      </g>
     </g>
     <g id="text_26">
      <!-- 0 -->
      <g transform="translate(50.762841 374.318438)scale(0.1 -0.1)">
       <use xlink:href="#DejaVuSans-48"/>
      </g>
     </g>
    </g>
    <g id="xtick_14">
     <g id="line2d_27">
      <g>
       <use style="stroke:#000000;stroke-width:0.8;" x="97.799004" xlink:href="#m001bb0f26d" y="359.72"/>
      </g>
     </g>
     <g id="text_27">
      <!-- 20 -->
      <g transform="translate(91.436504 374.318438)scale(0.1 -0.1)">
       <use xlink:href="#DejaVuSans-50"/>
       <use x="63.623047" xlink:href="#DejaVuSans-48"/>
      </g>
     </g>
    </g>
    <g id="xtick_15">
     <g id="line2d_28">
      <g>
       <use style="stroke:#000000;stroke-width:0.8;" x="141.653916" xlink:href="#m001bb0f26d" y="359.72"/>
      </g>
     </g>
     <g id="text_28">
      <!-- 40 -->
      <g transform="translate(135.291416 374.318438)scale(0.1 -0.1)">
       <use xlink:href="#DejaVuSans-52"/>
       <use x="63.623047" xlink:href="#DejaVuSans-48"/>
      </g>
     </g>
    </g>
    <g id="xtick_16">
     <g id="line2d_29">
      <g>
       <use style="stroke:#000000;stroke-width:0.8;" x="185.508829" xlink:href="#m001bb0f26d" y="359.72"/>
      </g>
     </g>
     <g id="text_29">
      <!-- 60 -->
      <g transform="translate(179.146329 374.318438)scale(0.1 -0.1)">
       <use xlink:href="#DejaVuSans-54"/>
       <use x="63.623047" xlink:href="#DejaVuSans-48"/>
      </g>
     </g>
    </g>
    <g id="xtick_17">
     <g id="line2d_30">
      <g>
       <use style="stroke:#000000;stroke-width:0.8;" x="229.363742" xlink:href="#m001bb0f26d" y="359.72"/>
      </g>
     </g>
     <g id="text_30">
      <!-- 80 -->
      <g transform="translate(223.001242 374.318438)scale(0.1 -0.1)">
       <use xlink:href="#DejaVuSans-56"/>
       <use x="63.623047" xlink:href="#DejaVuSans-48"/>
      </g>
     </g>
    </g>
    <g id="xtick_18">
     <g id="line2d_31">
      <g>
       <use style="stroke:#000000;stroke-width:0.8;" x="273.218655" xlink:href="#m001bb0f26d" y="359.72"/>
      </g>
     </g>
     <g id="text_31">
      <!-- 100 -->
      <g transform="translate(263.674905 374.318438)scale(0.1 -0.1)">
       <use xlink:href="#DejaVuSans-49"/>
       <use x="63.623047" xlink:href="#DejaVuSans-48"/>
       <use x="127.246094" xlink:href="#DejaVuSans-48"/>
      </g>
     </g>
    </g>
   </g>
   <g id="matplotlib.axis_6">
    <g id="ytick_12">
     <g id="line2d_32">
      <g>
       <use style="stroke:#000000;stroke-width:0.8;" x="43.09" xlink:href="#maec4983349" y="353.089091"/>
      </g>
     </g>
     <g id="text_32">
      <!-- 0.00 -->
      <g transform="translate(13.824375 356.88831)scale(0.1 -0.1)">
       <use xlink:href="#DejaVuSans-48"/>
       <use x="63.623047" xlink:href="#DejaVuSans-46"/>
       <use x="95.410156" xlink:href="#DejaVuSans-48"/>
       <use x="159.033203" xlink:href="#DejaVuSans-48"/>
      </g>
     </g>
    </g>
    <g id="ytick_13">
     <g id="line2d_33">
      <g>
       <use style="stroke:#000000;stroke-width:0.8;" x="43.09" xlink:href="#maec4983349" y="323.277129"/>
      </g>
     </g>
     <g id="text_33">
      <!-- 0.02 -->
      <g transform="translate(13.824375 327.076347)scale(0.1 -0.1)">
       <use xlink:href="#DejaVuSans-48"/>
       <use x="63.623047" xlink:href="#DejaVuSans-46"/>
       <use x="95.410156" xlink:href="#DejaVuSans-48"/>
       <use x="159.033203" xlink:href="#DejaVuSans-50"/>
      </g>
     </g>
    </g>
    <g id="ytick_14">
     <g id="line2d_34">
      <g>
       <use style="stroke:#000000;stroke-width:0.8;" x="43.09" xlink:href="#maec4983349" y="293.465166"/>
      </g>
     </g>
     <g id="text_34">
      <!-- 0.04 -->
      <g transform="translate(13.824375 297.264385)scale(0.1 -0.1)">
       <use xlink:href="#DejaVuSans-48"/>
       <use x="63.623047" xlink:href="#DejaVuSans-46"/>
       <use x="95.410156" xlink:href="#DejaVuSans-48"/>
       <use x="159.033203" xlink:href="#DejaVuSans-52"/>
      </g>
     </g>
    </g>
    <g id="ytick_15">
     <g id="line2d_35">
      <g>
       <use style="stroke:#000000;stroke-width:0.8;" x="43.09" xlink:href="#maec4983349" y="263.653204"/>
      </g>
     </g>
     <g id="text_35">
      <!-- 0.06 -->
      <g transform="translate(13.824375 267.452423)scale(0.1 -0.1)">
       <use xlink:href="#DejaVuSans-48"/>
       <use x="63.623047" xlink:href="#DejaVuSans-46"/>
       <use x="95.410156" xlink:href="#DejaVuSans-48"/>
       <use x="159.033203" xlink:href="#DejaVuSans-54"/>
      </g>
     </g>
    </g>
    <g id="ytick_16">
     <g id="line2d_36">
      <g>
       <use style="stroke:#000000;stroke-width:0.8;" x="43.09" xlink:href="#maec4983349" y="233.841242"/>
      </g>
     </g>
     <g id="text_36">
      <!-- 0.08 -->
      <g transform="translate(13.824375 237.640461)scale(0.1 -0.1)">
       <use xlink:href="#DejaVuSans-48"/>
       <use x="63.623047" xlink:href="#DejaVuSans-46"/>
       <use x="95.410156" xlink:href="#DejaVuSans-48"/>
       <use x="159.033203" xlink:href="#DejaVuSans-56"/>
      </g>
     </g>
    </g>
   </g>
   <g id="line2d_37">
    <path clip-path="url(#p1018da2bc7)" d="M 53.944091 353.089091 
L 56.136837 353.089091 
L 58.329582 353.089091 
L 60.522328 353.089091 
L 62.715073 353.089091 
L 64.907819 353.089091 
L 67.100565 353.089091 
L 69.29331 353.089091 
L 71.486056 353.089091 
L 73.678802 266.997249 
L 75.871547 353.089091 
L 78.064293 353.089091 
L 80.257039 353.089091 
L 82.449784 353.089091 
L 84.64253 353.089091 
L 86.835275 353.089091 
L 89.028021 353.089091 
L 91.220767 353.089091 
L 93.413512 353.089091 
L 95.606258 353.089091 
L 97.799004 220.470909 
L 99.991749 294.290613 
L 102.184495 353.089091 
L 104.377241 353.089091 
L 106.569986 353.089091 
L 108.762732 353.089091 
L 110.955478 353.089091 
L 113.148223 353.089091 
L 115.340969 353.089091 
L 117.533714 353.089091 
L 119.72646 353.089091 
L 121.919206 326.570359 
L 124.111951 353.089091 
L 126.304697 263.198868 
L 128.497443 263.427967 
L 130.690188 353.089091 
L 132.882934 353.089091 
L 135.07568 353.089091 
L 137.268425 353.089091 
L 139.461171 344.800516 
L 141.653916 353.089091 
L 143.846662 234.665031 
L 146.039408 269.885527 
L 148.232153 353.089091 
L 150.424899 353.089091 
L 152.617645 353.089091 
L 154.81039 353.089091 
L 157.003136 353.089091 
L 159.195882 353.089091 
L 161.388627 353.089091 
L 163.581373 339.181544 
L 165.774118 353.089091 
L 167.966864 353.089091 
L 170.15961 353.089091 
L 172.352355 353.089091 
L 174.545101 353.089091 
L 176.737847 353.089091 
L 178.930592 353.089091 
L 181.123338 337.834787 
L 183.316084 353.089091 
L 185.508829 353.089091 
L 187.701575 232.913507 
L 189.89432 353.089091 
L 192.087066 353.089091 
L 194.279812 353.089091 
L 196.472557 353.089091 
L 198.665303 353.089091 
L 200.858049 353.089091 
L 203.050794 353.089091 
L 205.24354 353.089091 
L 207.436286 353.089091 
L 209.629031 353.089091 
L 211.821777 353.089091 
L 214.014522 220.648153 
L 216.207268 254.035248 
L 218.400014 337.332494 
L 220.592759 353.089091 
L 222.785505 287.938842 
L 224.978251 353.089091 
L 227.170996 353.089091 
L 229.363742 353.089091 
L 231.556488 353.089091 
L 233.749233 353.089091 
L 235.941979 353.089091 
L 238.134725 353.089091 
L 240.32747 234.788724 
L 242.520216 353.089091 
L 244.712961 353.089091 
L 246.905707 353.089091 
L 249.098453 235.719393 
L 251.291198 353.089091 
L 253.483944 353.089091 
L 255.67669 353.089091 
L 257.869435 353.089091 
L 260.062181 353.089091 
L 262.254927 353.089091 
L 264.447672 353.089091 
L 266.640418 353.089091 
L 268.833163 270.62227 
L 271.025909 335.861704 
" style="fill:none;stroke:#bfbf00;stroke-linecap:square;stroke-width:1.5;"/>
   </g>
   <g id="patch_13">
    <path d="M 43.09 359.72 
L 43.09 213.84 
" style="fill:none;stroke:#000000;stroke-linecap:square;stroke-linejoin:miter;stroke-width:0.8;"/>
   </g>
   <g id="patch_14">
    <path d="M 281.88 359.72 
L 281.88 213.84 
" style="fill:none;stroke:#000000;stroke-linecap:square;stroke-linejoin:miter;stroke-width:0.8;"/>
   </g>
   <g id="patch_15">
    <path d="M 43.09 359.72 
L 281.88 359.72 
" style="fill:none;stroke:#000000;stroke-linecap:square;stroke-linejoin:miter;stroke-width:0.8;"/>
   </g>
   <g id="patch_16">
    <path d="M 43.09 213.84 
L 281.88 213.84 
" style="fill:none;stroke:#000000;stroke-linecap:square;stroke-linejoin:miter;stroke-width:0.8;"/>
   </g>
   <g id="text_37">
    <!-- Input signal 3 -->
    <defs>
     <path d="M 40.578125 39.3125 
Q 47.65625 37.796875 51.625 33 
Q 55.609375 28.21875 55.609375 21.1875 
Q 55.609375 10.40625 48.1875 4.484375 
Q 40.765625 -1.421875 27.09375 -1.421875 
Q 22.515625 -1.421875 17.65625 -0.515625 
Q 12.796875 0.390625 7.625 2.203125 
L 7.625 11.71875 
Q 11.71875 9.328125 16.59375 8.109375 
Q 21.484375 6.890625 26.8125 6.890625 
Q 36.078125 6.890625 40.9375 10.546875 
Q 45.796875 14.203125 45.796875 21.1875 
Q 45.796875 27.640625 41.28125 31.265625 
Q 36.765625 34.90625 28.71875 34.90625 
L 20.21875 34.90625 
L 20.21875 43.015625 
L 29.109375 43.015625 
Q 36.375 43.015625 40.234375 45.921875 
Q 44.09375 48.828125 44.09375 54.296875 
Q 44.09375 59.90625 40.109375 62.90625 
Q 36.140625 65.921875 28.71875 65.921875 
Q 24.65625 65.921875 20.015625 65.03125 
Q 15.375 64.15625 9.8125 62.3125 
L 9.8125 71.09375 
Q 15.4375 72.65625 20.34375 73.4375 
Q 25.25 74.21875 29.59375 74.21875 
Q 40.828125 74.21875 47.359375 69.109375 
Q 53.90625 64.015625 53.90625 55.328125 
Q 53.90625 49.265625 50.4375 45.09375 
Q 46.96875 40.921875 40.578125 39.3125 
z
" id="DejaVuSans-51"/>
    </defs>
    <g transform="translate(121.569688 207.84)scale(0.12 -0.12)">
     <use xlink:href="#DejaVuSans-73"/>
     <use x="29.492188" xlink:href="#DejaVuSans-110"/>
     <use x="92.871094" xlink:href="#DejaVuSans-112"/>
     <use x="156.347656" xlink:href="#DejaVuSans-117"/>
     <use x="219.726562" xlink:href="#DejaVuSans-116"/>
     <use x="258.935547" xlink:href="#DejaVuSans-32"/>
     <use x="290.722656" xlink:href="#DejaVuSans-115"/>
     <use x="342.822266" xlink:href="#DejaVuSans-105"/>
     <use x="370.605469" xlink:href="#DejaVuSans-103"/>
     <use x="434.082031" xlink:href="#DejaVuSans-110"/>
     <use x="497.460938" xlink:href="#DejaVuSans-97"/>
     <use x="558.740234" xlink:href="#DejaVuSans-108"/>
     <use x="586.523438" xlink:href="#DejaVuSans-32"/>
     <use x="618.310547" xlink:href="#DejaVuSans-51"/>
    </g>
   </g>
  </g>
  <g id="axes_4">
   <g id="patch_17">
    <path d="M 327.49 359.72 
L 566.28 359.72 
L 566.28 213.84 
L 327.49 213.84 
z
" style="fill:#ffffff;"/>
   </g>
   <g id="matplotlib.axis_7">
    <g id="xtick_19">
     <g id="line2d_38">
      <g>
       <use style="stroke:#000000;stroke-width:0.8;" x="338.344091" xlink:href="#m001bb0f26d" y="359.72"/>
      </g>
     </g>
     <g id="text_38">
      <!-- 0 -->
      <g transform="translate(335.162841 374.318438)scale(0.1 -0.1)">
       <use xlink:href="#DejaVuSans-48"/>
      </g>
     </g>
    </g>
    <g id="xtick_20">
     <g id="line2d_39">
      <g>
       <use style="stroke:#000000;stroke-width:0.8;" x="382.199004" xlink:href="#m001bb0f26d" y="359.72"/>
      </g>
     </g>
     <g id="text_39">
      <!-- 20 -->
      <g transform="translate(375.836504 374.318438)scale(0.1 -0.1)">
       <use xlink:href="#DejaVuSans-50"/>
       <use x="63.623047" xlink:href="#DejaVuSans-48"/>
      </g>
     </g>
    </g>
    <g id="xtick_21">
     <g id="line2d_40">
      <g>
       <use style="stroke:#000000;stroke-width:0.8;" x="426.053916" xlink:href="#m001bb0f26d" y="359.72"/>
      </g>
     </g>
     <g id="text_40">
      <!-- 40 -->
      <g transform="translate(419.691416 374.318438)scale(0.1 -0.1)">
       <use xlink:href="#DejaVuSans-52"/>
       <use x="63.623047" xlink:href="#DejaVuSans-48"/>
      </g>
     </g>
    </g>
    <g id="xtick_22">
     <g id="line2d_41">
      <g>
       <use style="stroke:#000000;stroke-width:0.8;" x="469.908829" xlink:href="#m001bb0f26d" y="359.72"/>
      </g>
     </g>
     <g id="text_41">
      <!-- 60 -->
      <g transform="translate(463.546329 374.318438)scale(0.1 -0.1)">
       <use xlink:href="#DejaVuSans-54"/>
       <use x="63.623047" xlink:href="#DejaVuSans-48"/>
      </g>
     </g>
    </g>
    <g id="xtick_23">
     <g id="line2d_42">
      <g>
       <use style="stroke:#000000;stroke-width:0.8;" x="513.763742" xlink:href="#m001bb0f26d" y="359.72"/>
      </g>
     </g>
     <g id="text_42">
      <!-- 80 -->
      <g transform="translate(507.401242 374.318438)scale(0.1 -0.1)">
       <use xlink:href="#DejaVuSans-56"/>
       <use x="63.623047" xlink:href="#DejaVuSans-48"/>
      </g>
     </g>
    </g>
    <g id="xtick_24">
     <g id="line2d_43">
      <g>
       <use style="stroke:#000000;stroke-width:0.8;" x="557.618655" xlink:href="#m001bb0f26d" y="359.72"/>
      </g>
     </g>
     <g id="text_43">
      <!-- 100 -->
      <g transform="translate(548.074905 374.318438)scale(0.1 -0.1)">
       <use xlink:href="#DejaVuSans-49"/>
       <use x="63.623047" xlink:href="#DejaVuSans-48"/>
       <use x="127.246094" xlink:href="#DejaVuSans-48"/>
      </g>
     </g>
    </g>
   </g>
   <g id="matplotlib.axis_8">
    <g id="ytick_17">
     <g id="line2d_44">
      <g>
       <use style="stroke:#000000;stroke-width:0.8;" x="327.49" xlink:href="#maec4983349" y="353.089091"/>
      </g>
     </g>
     <g id="text_44">
      <!-- 0.00 -->
      <g transform="translate(298.224375 356.88831)scale(0.1 -0.1)">
       <use xlink:href="#DejaVuSans-48"/>
       <use x="63.623047" xlink:href="#DejaVuSans-46"/>
       <use x="95.410156" xlink:href="#DejaVuSans-48"/>
       <use x="159.033203" xlink:href="#DejaVuSans-48"/>
      </g>
     </g>
    </g>
    <g id="ytick_18">
     <g id="line2d_45">
      <g>
       <use style="stroke:#000000;stroke-width:0.8;" x="327.49" xlink:href="#maec4983349" y="328.113331"/>
      </g>
     </g>
     <g id="text_45">
      <!-- 0.02 -->
      <g transform="translate(298.224375 331.91255)scale(0.1 -0.1)">
       <use xlink:href="#DejaVuSans-48"/>
       <use x="63.623047" xlink:href="#DejaVuSans-46"/>
       <use x="95.410156" xlink:href="#DejaVuSans-48"/>
       <use x="159.033203" xlink:href="#DejaVuSans-50"/>
      </g>
     </g>
    </g>
    <g id="ytick_19">
     <g id="line2d_46">
      <g>
       <use style="stroke:#000000;stroke-width:0.8;" x="327.49" xlink:href="#maec4983349" y="303.137571"/>
      </g>
     </g>
     <g id="text_46">
      <!-- 0.04 -->
      <g transform="translate(298.224375 306.93679)scale(0.1 -0.1)">
       <use xlink:href="#DejaVuSans-48"/>
       <use x="63.623047" xlink:href="#DejaVuSans-46"/>
       <use x="95.410156" xlink:href="#DejaVuSans-48"/>
       <use x="159.033203" xlink:href="#DejaVuSans-52"/>
      </g>
     </g>
    </g>
    <g id="ytick_20">
     <g id="line2d_47">
      <g>
       <use style="stroke:#000000;stroke-width:0.8;" x="327.49" xlink:href="#maec4983349" y="278.161811"/>
      </g>
     </g>
     <g id="text_47">
      <!-- 0.06 -->
      <g transform="translate(298.224375 281.96103)scale(0.1 -0.1)">
       <use xlink:href="#DejaVuSans-48"/>
       <use x="63.623047" xlink:href="#DejaVuSans-46"/>
       <use x="95.410156" xlink:href="#DejaVuSans-48"/>
       <use x="159.033203" xlink:href="#DejaVuSans-54"/>
      </g>
     </g>
    </g>
    <g id="ytick_21">
     <g id="line2d_48">
      <g>
       <use style="stroke:#000000;stroke-width:0.8;" x="327.49" xlink:href="#maec4983349" y="253.186052"/>
      </g>
     </g>
     <g id="text_48">
      <!-- 0.08 -->
      <g transform="translate(298.224375 256.98527)scale(0.1 -0.1)">
       <use xlink:href="#DejaVuSans-48"/>
       <use x="63.623047" xlink:href="#DejaVuSans-46"/>
       <use x="95.410156" xlink:href="#DejaVuSans-48"/>
       <use x="159.033203" xlink:href="#DejaVuSans-56"/>
      </g>
     </g>
    </g>
    <g id="ytick_22">
     <g id="line2d_49">
      <g>
       <use style="stroke:#000000;stroke-width:0.8;" x="327.49" xlink:href="#maec4983349" y="228.210292"/>
      </g>
     </g>
     <g id="text_49">
      <!-- 0.10 -->
      <g transform="translate(298.224375 232.009511)scale(0.1 -0.1)">
       <use xlink:href="#DejaVuSans-48"/>
       <use x="63.623047" xlink:href="#DejaVuSans-46"/>
       <use x="95.410156" xlink:href="#DejaVuSans-49"/>
       <use x="159.033203" xlink:href="#DejaVuSans-48"/>
      </g>
     </g>
    </g>
   </g>
   <g id="line2d_50">
    <path clip-path="url(#pcb71213ed5)" d="M 338.344091 353.089091 
L 340.536837 353.089091 
L 342.729582 281.506615 
L 344.922328 353.089091 
L 347.115073 353.089091 
L 349.307819 353.089091 
L 351.500565 353.089091 
L 353.69331 353.089091 
L 355.886056 353.089091 
L 358.078802 353.089091 
L 360.271547 276.954923 
L 362.464293 353.089091 
L 364.657039 353.089091 
L 366.849784 309.888265 
L 369.04253 353.089091 
L 371.235275 241.804176 
L 373.428021 279.40831 
L 375.620767 300.256853 
L 377.813512 353.089091 
L 380.006258 353.089091 
L 382.199004 353.089091 
L 384.391749 353.089091 
L 386.584495 353.089091 
L 388.777241 353.089091 
L 390.969986 353.089091 
L 393.162732 353.089091 
L 395.355478 353.089091 
L 397.548223 317.157513 
L 399.740969 220.470909 
L 401.933714 353.089091 
L 404.12646 290.696926 
L 406.319206 353.089091 
L 408.511951 237.874884 
L 410.704697 353.089091 
L 412.897443 353.089091 
L 415.090188 353.089091 
L 417.282934 353.089091 
L 419.47568 353.089091 
L 421.668425 314.520752 
L 423.861171 353.089091 
L 426.053916 353.089091 
L 428.246662 353.089091 
L 430.439408 353.089091 
L 432.632153 338.776643 
L 434.824899 353.089091 
L 437.017645 353.089091 
L 439.21039 351.447636 
L 441.403136 353.089091 
L 443.595882 353.089091 
L 445.788627 353.089091 
L 447.981373 353.089091 
L 450.174118 353.089091 
L 452.366864 353.089091 
L 454.55961 353.089091 
L 456.752355 265.130838 
L 458.945101 353.089091 
L 461.137847 353.089091 
L 463.330592 353.089091 
L 465.523338 353.089091 
L 467.716084 353.089091 
L 469.908829 353.089091 
L 472.101575 353.089091 
L 474.29432 353.089091 
L 476.487066 353.089091 
L 478.679812 353.089091 
L 480.872557 353.089091 
L 483.065303 353.089091 
L 485.258049 241.893909 
L 487.450794 353.089091 
L 489.64354 353.089091 
L 491.836286 353.089091 
L 494.029031 278.650921 
L 496.221777 353.089091 
L 498.414522 353.089091 
L 500.607268 353.089091 
L 502.800014 353.089091 
L 504.992759 353.089091 
L 507.185505 353.089091 
L 509.378251 335.349321 
L 511.570996 353.089091 
L 513.763742 353.089091 
L 515.956488 353.089091 
L 518.149233 353.089091 
L 520.341979 353.089091 
L 522.534725 353.089091 
L 524.72747 353.089091 
L 526.920216 353.089091 
L 529.112961 353.089091 
L 531.305707 353.089091 
L 533.498453 353.089091 
L 535.691198 353.089091 
L 537.883944 225.026254 
L 540.07669 353.089091 
L 542.269435 353.089091 
L 544.462181 353.089091 
L 546.654927 353.089091 
L 548.847672 353.089091 
L 551.040418 353.089091 
L 553.233163 353.089091 
L 555.425909 353.089091 
" style="fill:none;stroke:#bfbf00;stroke-linecap:square;stroke-width:1.5;"/>
   </g>
   <g id="patch_18">
    <path d="M 327.49 359.72 
L 327.49 213.84 
" style="fill:none;stroke:#000000;stroke-linecap:square;stroke-linejoin:miter;stroke-width:0.8;"/>
   </g>
   <g id="patch_19">
    <path d="M 566.28 359.72 
L 566.28 213.84 
" style="fill:none;stroke:#000000;stroke-linecap:square;stroke-linejoin:miter;stroke-width:0.8;"/>
   </g>
   <g id="patch_20">
    <path d="M 327.49 359.72 
L 566.28 359.72 
" style="fill:none;stroke:#000000;stroke-linecap:square;stroke-linejoin:miter;stroke-width:0.8;"/>
   </g>
   <g id="patch_21">
    <path d="M 327.49 213.84 
L 566.28 213.84 
" style="fill:none;stroke:#000000;stroke-linecap:square;stroke-linejoin:miter;stroke-width:0.8;"/>
   </g>
   <g id="text_50">
    <!-- Input signal 4 -->
    <g transform="translate(405.969687 207.84)scale(0.12 -0.12)">
     <use xlink:href="#DejaVuSans-73"/>
     <use x="29.492188" xlink:href="#DejaVuSans-110"/>
     <use x="92.871094" xlink:href="#DejaVuSans-112"/>
     <use x="156.347656" xlink:href="#DejaVuSans-117"/>
     <use x="219.726562" xlink:href="#DejaVuSans-116"/>
     <use x="258.935547" xlink:href="#DejaVuSans-32"/>
     <use x="290.722656" xlink:href="#DejaVuSans-115"/>
     <use x="342.822266" xlink:href="#DejaVuSans-105"/>
     <use x="370.605469" xlink:href="#DejaVuSans-103"/>
     <use x="434.082031" xlink:href="#DejaVuSans-110"/>
     <use x="497.460938" xlink:href="#DejaVuSans-97"/>
     <use x="558.740234" xlink:href="#DejaVuSans-108"/>
     <use x="586.523438" xlink:href="#DejaVuSans-32"/>
     <use x="618.310547" xlink:href="#DejaVuSans-52"/>
    </g>
   </g>
  </g>
  <g id="axes_5">
   <g id="patch_22">
    <path d="M 611.89 359.72 
L 850.68 359.72 
L 850.68 213.84 
L 611.89 213.84 
z
" style="fill:#ffffff;"/>
   </g>
   <g id="matplotlib.axis_9">
    <g id="xtick_25">
     <g id="line2d_51">
      <g>
       <use style="stroke:#000000;stroke-width:0.8;" x="622.744091" xlink:href="#m001bb0f26d" y="359.72"/>
      </g>
     </g>
     <g id="text_51">
      <!-- 0 -->
      <g transform="translate(619.562841 374.318438)scale(0.1 -0.1)">
       <use xlink:href="#DejaVuSans-48"/>
      </g>
     </g>
    </g>
    <g id="xtick_26">
     <g id="line2d_52">
      <g>
       <use style="stroke:#000000;stroke-width:0.8;" x="666.599004" xlink:href="#m001bb0f26d" y="359.72"/>
      </g>
     </g>
     <g id="text_52">
      <!-- 20 -->
      <g transform="translate(660.236504 374.318438)scale(0.1 -0.1)">
       <use xlink:href="#DejaVuSans-50"/>
       <use x="63.623047" xlink:href="#DejaVuSans-48"/>
      </g>
     </g>
    </g>
    <g id="xtick_27">
     <g id="line2d_53">
      <g>
       <use style="stroke:#000000;stroke-width:0.8;" x="710.453916" xlink:href="#m001bb0f26d" y="359.72"/>
      </g>
     </g>
     <g id="text_53">
      <!-- 40 -->
      <g transform="translate(704.091416 374.318438)scale(0.1 -0.1)">
       <use xlink:href="#DejaVuSans-52"/>
       <use x="63.623047" xlink:href="#DejaVuSans-48"/>
      </g>
     </g>
    </g>
    <g id="xtick_28">
     <g id="line2d_54">
      <g>
       <use style="stroke:#000000;stroke-width:0.8;" x="754.308829" xlink:href="#m001bb0f26d" y="359.72"/>
      </g>
     </g>
     <g id="text_54">
      <!-- 60 -->
      <g transform="translate(747.946329 374.318438)scale(0.1 -0.1)">
       <use xlink:href="#DejaVuSans-54"/>
       <use x="63.623047" xlink:href="#DejaVuSans-48"/>
      </g>
     </g>
    </g>
    <g id="xtick_29">
     <g id="line2d_55">
      <g>
       <use style="stroke:#000000;stroke-width:0.8;" x="798.163742" xlink:href="#m001bb0f26d" y="359.72"/>
      </g>
     </g>
     <g id="text_55">
      <!-- 80 -->
      <g transform="translate(791.801242 374.318438)scale(0.1 -0.1)">
       <use xlink:href="#DejaVuSans-56"/>
       <use x="63.623047" xlink:href="#DejaVuSans-48"/>
      </g>
     </g>
    </g>
    <g id="xtick_30">
     <g id="line2d_56">
      <g>
       <use style="stroke:#000000;stroke-width:0.8;" x="842.018655" xlink:href="#m001bb0f26d" y="359.72"/>
      </g>
     </g>
     <g id="text_56">
      <!-- 100 -->
      <g transform="translate(832.474905 374.318438)scale(0.1 -0.1)">
       <use xlink:href="#DejaVuSans-49"/>
       <use x="63.623047" xlink:href="#DejaVuSans-48"/>
       <use x="127.246094" xlink:href="#DejaVuSans-48"/>
      </g>
     </g>
    </g>
   </g>
   <g id="matplotlib.axis_10">
    <g id="ytick_23">
     <g id="line2d_57">
      <g>
       <use style="stroke:#000000;stroke-width:0.8;" x="611.89" xlink:href="#maec4983349" y="353.089091"/>
      </g>
     </g>
     <g id="text_57">
      <!-- 0.00 -->
      <g transform="translate(582.624375 356.88831)scale(0.1 -0.1)">
       <use xlink:href="#DejaVuSans-48"/>
       <use x="63.623047" xlink:href="#DejaVuSans-46"/>
       <use x="95.410156" xlink:href="#DejaVuSans-48"/>
       <use x="159.033203" xlink:href="#DejaVuSans-48"/>
      </g>
     </g>
    </g>
    <g id="ytick_24">
     <g id="line2d_58">
      <g>
       <use style="stroke:#000000;stroke-width:0.8;" x="611.89" xlink:href="#maec4983349" y="325.944345"/>
      </g>
     </g>
     <g id="text_58">
      <!-- 0.02 -->
      <g transform="translate(582.624375 329.743564)scale(0.1 -0.1)">
       <use xlink:href="#DejaVuSans-48"/>
       <use x="63.623047" xlink:href="#DejaVuSans-46"/>
       <use x="95.410156" xlink:href="#DejaVuSans-48"/>
       <use x="159.033203" xlink:href="#DejaVuSans-50"/>
      </g>
     </g>
    </g>
    <g id="ytick_25">
     <g id="line2d_59">
      <g>
       <use style="stroke:#000000;stroke-width:0.8;" x="611.89" xlink:href="#maec4983349" y="298.7996"/>
      </g>
     </g>
     <g id="text_59">
      <!-- 0.04 -->
      <g transform="translate(582.624375 302.598818)scale(0.1 -0.1)">
       <use xlink:href="#DejaVuSans-48"/>
       <use x="63.623047" xlink:href="#DejaVuSans-46"/>
       <use x="95.410156" xlink:href="#DejaVuSans-48"/>
       <use x="159.033203" xlink:href="#DejaVuSans-52"/>
      </g>
     </g>
    </g>
    <g id="ytick_26">
     <g id="line2d_60">
      <g>
       <use style="stroke:#000000;stroke-width:0.8;" x="611.89" xlink:href="#maec4983349" y="271.654854"/>
      </g>
     </g>
     <g id="text_60">
      <!-- 0.06 -->
      <g transform="translate(582.624375 275.454073)scale(0.1 -0.1)">
       <use xlink:href="#DejaVuSans-48"/>
       <use x="63.623047" xlink:href="#DejaVuSans-46"/>
       <use x="95.410156" xlink:href="#DejaVuSans-48"/>
       <use x="159.033203" xlink:href="#DejaVuSans-54"/>
      </g>
     </g>
    </g>
    <g id="ytick_27">
     <g id="line2d_61">
      <g>
       <use style="stroke:#000000;stroke-width:0.8;" x="611.89" xlink:href="#maec4983349" y="244.510108"/>
      </g>
     </g>
     <g id="text_61">
      <!-- 0.08 -->
      <g transform="translate(582.624375 248.309327)scale(0.1 -0.1)">
       <use xlink:href="#DejaVuSans-48"/>
       <use x="63.623047" xlink:href="#DejaVuSans-46"/>
       <use x="95.410156" xlink:href="#DejaVuSans-48"/>
       <use x="159.033203" xlink:href="#DejaVuSans-56"/>
      </g>
     </g>
    </g>
    <g id="ytick_28">
     <g id="line2d_62">
      <g>
       <use style="stroke:#000000;stroke-width:0.8;" x="611.89" xlink:href="#maec4983349" y="217.365363"/>
      </g>
     </g>
     <g id="text_62">
      <!-- 0.10 -->
      <g transform="translate(582.624375 221.164582)scale(0.1 -0.1)">
       <use xlink:href="#DejaVuSans-48"/>
       <use x="63.623047" xlink:href="#DejaVuSans-46"/>
       <use x="95.410156" xlink:href="#DejaVuSans-49"/>
       <use x="159.033203" xlink:href="#DejaVuSans-48"/>
      </g>
     </g>
    </g>
   </g>
   <g id="line2d_63">
    <path clip-path="url(#p0ef2825b37)" d="M 622.744091 245.277313 
L 624.936837 353.089091 
L 627.129582 353.089091 
L 629.322328 353.089091 
L 631.515073 353.089091 
L 633.707819 353.089091 
L 635.900565 353.089091 
L 638.09331 353.089091 
L 640.286056 353.089091 
L 642.478802 353.089091 
L 644.671547 353.089091 
L 646.864293 353.089091 
L 649.057039 353.089091 
L 651.249784 353.089091 
L 653.44253 353.089091 
L 655.635275 353.089091 
L 657.828021 353.089091 
L 660.020767 353.089091 
L 662.213512 353.089091 
L 664.406258 231.499234 
L 666.599004 353.089091 
L 668.791749 353.089091 
L 670.984495 353.089091 
L 673.177241 259.652473 
L 675.369986 280.099168 
L 677.562732 305.427257 
L 679.755478 286.636855 
L 681.948223 353.089091 
L 684.140969 353.089091 
L 686.333714 353.089091 
L 688.52646 353.089091 
L 690.719206 353.089091 
L 692.911951 353.089091 
L 695.104697 353.089091 
L 697.297443 353.089091 
L 699.490188 353.089091 
L 701.682934 353.089091 
L 703.87568 353.089091 
L 706.068425 353.089091 
L 708.261171 353.089091 
L 710.453916 353.089091 
L 712.646662 353.089091 
L 714.839408 353.089091 
L 717.032153 353.089091 
L 719.224899 293.606133 
L 721.417645 353.089091 
L 723.61039 353.089091 
L 725.803136 353.089091 
L 727.995882 353.089091 
L 730.188627 353.089091 
L 732.381373 353.089091 
L 734.574118 353.089091 
L 736.766864 353.089091 
L 738.95961 353.089091 
L 741.152355 353.089091 
L 743.345101 310.663991 
L 745.537847 353.089091 
L 747.730592 353.089091 
L 749.923338 353.089091 
L 752.116084 353.089091 
L 754.308829 220.470909 
L 756.501575 353.089091 
L 758.69432 261.655524 
L 760.887066 286.243438 
L 763.079812 353.089091 
L 765.272557 339.715845 
L 767.465303 293.681407 
L 769.658049 353.089091 
L 771.850794 263.160559 
L 774.04354 353.089091 
L 776.236286 328.126436 
L 778.429031 353.089091 
L 780.621777 353.089091 
L 782.814522 353.089091 
L 785.007268 353.089091 
L 787.200014 353.089091 
L 789.392759 353.089091 
L 791.585505 353.089091 
L 793.778251 353.089091 
L 795.970996 318.857169 
L 798.163742 282.298595 
L 800.356488 324.911868 
L 802.549233 353.089091 
L 804.741979 353.089091 
L 806.934725 353.089091 
L 809.12747 353.089091 
L 811.320216 353.089091 
L 813.512961 353.089091 
L 815.705707 353.089091 
L 817.898453 353.089091 
L 820.091198 353.089091 
L 822.283944 353.089091 
L 824.47669 353.089091 
L 826.669435 353.089091 
L 828.862181 353.089091 
L 831.054927 273.876636 
L 833.247672 298.683727 
L 835.440418 353.089091 
L 837.633163 353.089091 
L 839.825909 353.089091 
" style="fill:none;stroke:#bfbf00;stroke-linecap:square;stroke-width:1.5;"/>
   </g>
   <g id="patch_23">
    <path d="M 611.89 359.72 
L 611.89 213.84 
" style="fill:none;stroke:#000000;stroke-linecap:square;stroke-linejoin:miter;stroke-width:0.8;"/>
   </g>
   <g id="patch_24">
    <path d="M 850.68 359.72 
L 850.68 213.84 
" style="fill:none;stroke:#000000;stroke-linecap:square;stroke-linejoin:miter;stroke-width:0.8;"/>
   </g>
   <g id="patch_25">
    <path d="M 611.89 359.72 
L 850.68 359.72 
" style="fill:none;stroke:#000000;stroke-linecap:square;stroke-linejoin:miter;stroke-width:0.8;"/>
   </g>
   <g id="patch_26">
    <path d="M 611.89 213.84 
L 850.68 213.84 
" style="fill:none;stroke:#000000;stroke-linecap:square;stroke-linejoin:miter;stroke-width:0.8;"/>
   </g>
   <g id="text_63">
    <!-- Input signal 5 -->
    <defs>
     <path d="M 10.796875 72.90625 
L 49.515625 72.90625 
L 49.515625 64.59375 
L 19.828125 64.59375 
L 19.828125 46.734375 
Q 21.96875 47.46875 24.109375 47.828125 
Q 26.265625 48.1875 28.421875 48.1875 
Q 40.625 48.1875 47.75 41.5 
Q 54.890625 34.8125 54.890625 23.390625 
Q 54.890625 11.625 47.5625 5.09375 
Q 40.234375 -1.421875 26.90625 -1.421875 
Q 22.3125 -1.421875 17.546875 -0.640625 
Q 12.796875 0.140625 7.71875 1.703125 
L 7.71875 11.625 
Q 12.109375 9.234375 16.796875 8.0625 
Q 21.484375 6.890625 26.703125 6.890625 
Q 35.15625 6.890625 40.078125 11.328125 
Q 45.015625 15.765625 45.015625 23.390625 
Q 45.015625 31 40.078125 35.4375 
Q 35.15625 39.890625 26.703125 39.890625 
Q 22.75 39.890625 18.8125 39.015625 
Q 14.890625 38.140625 10.796875 36.28125 
z
" id="DejaVuSans-53"/>
    </defs>
    <g transform="translate(690.369687 207.84)scale(0.12 -0.12)">
     <use xlink:href="#DejaVuSans-73"/>
     <use x="29.492188" xlink:href="#DejaVuSans-110"/>
     <use x="92.871094" xlink:href="#DejaVuSans-112"/>
     <use x="156.347656" xlink:href="#DejaVuSans-117"/>
     <use x="219.726562" xlink:href="#DejaVuSans-116"/>
     <use x="258.935547" xlink:href="#DejaVuSans-32"/>
     <use x="290.722656" xlink:href="#DejaVuSans-115"/>
     <use x="342.822266" xlink:href="#DejaVuSans-105"/>
     <use x="370.605469" xlink:href="#DejaVuSans-103"/>
     <use x="434.082031" xlink:href="#DejaVuSans-110"/>
     <use x="497.460938" xlink:href="#DejaVuSans-97"/>
     <use x="558.740234" xlink:href="#DejaVuSans-108"/>
     <use x="586.523438" xlink:href="#DejaVuSans-32"/>
     <use x="618.310547" xlink:href="#DejaVuSans-53"/>
    </g>
   </g>
  </g>
  <g id="axes_6">
   <g id="patch_27">
    <path d="M 43.09 548.12 
L 281.88 548.12 
L 281.88 402.24 
L 43.09 402.24 
z
" style="fill:#ffffff;"/>
   </g>
   <g id="matplotlib.axis_11">
    <g id="xtick_31">
     <g id="line2d_64">
      <g>
       <use style="stroke:#000000;stroke-width:0.8;" x="53.944091" xlink:href="#m001bb0f26d" y="548.12"/>
      </g>
     </g>
     <g id="text_64">
      <!-- 0 -->
      <g transform="translate(50.762841 562.718438)scale(0.1 -0.1)">
       <use xlink:href="#DejaVuSans-48"/>
      </g>
     </g>
    </g>
    <g id="xtick_32">
     <g id="line2d_65">
      <g>
       <use style="stroke:#000000;stroke-width:0.8;" x="97.799004" xlink:href="#m001bb0f26d" y="548.12"/>
      </g>
     </g>
     <g id="text_65">
      <!-- 20 -->
      <g transform="translate(91.436504 562.718438)scale(0.1 -0.1)">
       <use xlink:href="#DejaVuSans-50"/>
       <use x="63.623047" xlink:href="#DejaVuSans-48"/>
      </g>
     </g>
    </g>
    <g id="xtick_33">
     <g id="line2d_66">
      <g>
       <use style="stroke:#000000;stroke-width:0.8;" x="141.653916" xlink:href="#m001bb0f26d" y="548.12"/>
      </g>
     </g>
     <g id="text_66">
      <!-- 40 -->
      <g transform="translate(135.291416 562.718438)scale(0.1 -0.1)">
       <use xlink:href="#DejaVuSans-52"/>
       <use x="63.623047" xlink:href="#DejaVuSans-48"/>
      </g>
     </g>
    </g>
    <g id="xtick_34">
     <g id="line2d_67">
      <g>
       <use style="stroke:#000000;stroke-width:0.8;" x="185.508829" xlink:href="#m001bb0f26d" y="548.12"/>
      </g>
     </g>
     <g id="text_67">
      <!-- 60 -->
      <g transform="translate(179.146329 562.718438)scale(0.1 -0.1)">
       <use xlink:href="#DejaVuSans-54"/>
       <use x="63.623047" xlink:href="#DejaVuSans-48"/>
      </g>
     </g>
    </g>
    <g id="xtick_35">
     <g id="line2d_68">
      <g>
       <use style="stroke:#000000;stroke-width:0.8;" x="229.363742" xlink:href="#m001bb0f26d" y="548.12"/>
      </g>
     </g>
     <g id="text_68">
      <!-- 80 -->
      <g transform="translate(223.001242 562.718438)scale(0.1 -0.1)">
       <use xlink:href="#DejaVuSans-56"/>
       <use x="63.623047" xlink:href="#DejaVuSans-48"/>
      </g>
     </g>
    </g>
    <g id="xtick_36">
     <g id="line2d_69">
      <g>
       <use style="stroke:#000000;stroke-width:0.8;" x="273.218655" xlink:href="#m001bb0f26d" y="548.12"/>
      </g>
     </g>
     <g id="text_69">
      <!-- 100 -->
      <g transform="translate(263.674905 562.718438)scale(0.1 -0.1)">
       <use xlink:href="#DejaVuSans-49"/>
       <use x="63.623047" xlink:href="#DejaVuSans-48"/>
       <use x="127.246094" xlink:href="#DejaVuSans-48"/>
      </g>
     </g>
    </g>
   </g>
   <g id="matplotlib.axis_12">
    <g id="ytick_29">
     <g id="line2d_70">
      <g>
       <use style="stroke:#000000;stroke-width:0.8;" x="43.09" xlink:href="#maec4983349" y="541.497121"/>
      </g>
     </g>
     <g id="text_70">
      <!-- 0 -->
      <g transform="translate(29.7275 545.29634)scale(0.1 -0.1)">
       <use xlink:href="#DejaVuSans-48"/>
      </g>
     </g>
    </g>
    <g id="ytick_30">
     <g id="line2d_71">
      <g>
       <use style="stroke:#000000;stroke-width:0.8;" x="43.09" xlink:href="#maec4983349" y="510.140505"/>
      </g>
     </g>
     <g id="text_71">
      <!-- 1000 -->
      <g transform="translate(10.64 513.939724)scale(0.1 -0.1)">
       <use xlink:href="#DejaVuSans-49"/>
       <use x="63.623047" xlink:href="#DejaVuSans-48"/>
       <use x="127.246094" xlink:href="#DejaVuSans-48"/>
       <use x="190.869141" xlink:href="#DejaVuSans-48"/>
      </g>
     </g>
    </g>
    <g id="ytick_31">
     <g id="line2d_72">
      <g>
       <use style="stroke:#000000;stroke-width:0.8;" x="43.09" xlink:href="#maec4983349" y="478.783889"/>
      </g>
     </g>
     <g id="text_72">
      <!-- 2000 -->
      <g transform="translate(10.64 482.583108)scale(0.1 -0.1)">
       <use xlink:href="#DejaVuSans-50"/>
       <use x="63.623047" xlink:href="#DejaVuSans-48"/>
       <use x="127.246094" xlink:href="#DejaVuSans-48"/>
       <use x="190.869141" xlink:href="#DejaVuSans-48"/>
      </g>
     </g>
    </g>
    <g id="ytick_32">
     <g id="line2d_73">
      <g>
       <use style="stroke:#000000;stroke-width:0.8;" x="43.09" xlink:href="#maec4983349" y="447.427273"/>
      </g>
     </g>
     <g id="text_73">
      <!-- 3000 -->
      <g transform="translate(10.64 451.226491)scale(0.1 -0.1)">
       <use xlink:href="#DejaVuSans-51"/>
       <use x="63.623047" xlink:href="#DejaVuSans-48"/>
       <use x="127.246094" xlink:href="#DejaVuSans-48"/>
       <use x="190.869141" xlink:href="#DejaVuSans-48"/>
      </g>
     </g>
    </g>
    <g id="ytick_33">
     <g id="line2d_74">
      <g>
       <use style="stroke:#000000;stroke-width:0.8;" x="43.09" xlink:href="#maec4983349" y="416.070656"/>
      </g>
     </g>
     <g id="text_74">
      <!-- 4000 -->
      <g transform="translate(10.64 419.869875)scale(0.1 -0.1)">
       <use xlink:href="#DejaVuSans-52"/>
       <use x="63.623047" xlink:href="#DejaVuSans-48"/>
       <use x="127.246094" xlink:href="#DejaVuSans-48"/>
       <use x="190.869141" xlink:href="#DejaVuSans-48"/>
      </g>
     </g>
    </g>
   </g>
   <g id="line2d_75">
    <path clip-path="url(#p050a573485)" d="M 53.944091 540.383747 
L 56.136837 516.868933 
L 58.329582 541.146915 
L 60.522328 540.772897 
L 62.715073 540.751425 
L 64.907819 493.974969 
L 67.100565 540.610485 
L 69.29331 540.935695 
L 71.486056 414.774557 
L 73.678802 540.842892 
L 75.871547 541.124647 
L 78.064293 537.157604 
L 80.257039 482.888525 
L 82.449784 541.285768 
L 84.64253 467.47578 
L 86.835275 540.952677 
L 89.028021 541.136649 
L 91.220767 541.238648 
L 93.413512 408.870909 
L 95.606258 540.24146 
L 97.799004 540.489329 
L 99.991749 541.0503 
L 102.184495 539.849607 
L 104.377241 540.5322 
L 106.569986 540.743353 
L 108.762732 541.004917 
L 110.955478 540.810868 
L 113.148223 541.321332 
L 115.340969 540.848307 
L 117.533714 414.09335 
L 119.72646 541.191877 
L 121.919206 541.2956 
L 124.111951 540.933453 
L 126.304697 540.814028 
L 128.497443 540.815769 
L 130.690188 510.703269 
L 132.882934 540.578501 
L 135.07568 540.469764 
L 137.268425 541.308432 
L 139.461171 541.434135 
L 141.653916 532.840379 
L 143.846662 540.597193 
L 146.039408 540.864841 
L 148.232153 541.4271 
L 150.424899 540.88284 
L 152.617645 473.129203 
L 154.81039 541.489091 
L 157.003136 540.406129 
L 159.195882 538.014844 
L 161.388627 484.017508 
L 163.581373 541.391435 
L 165.774118 540.648633 
L 167.966864 540.923937 
L 170.15961 540.549164 
L 172.352355 541.066799 
L 174.545101 541.058997 
L 176.737847 541.013968 
L 178.930592 460.248229 
L 181.123338 541.381201 
L 183.316084 479.906281 
L 185.508829 540.127571 
L 187.701575 540.583883 
L 189.89432 540.552885 
L 192.087066 540.806805 
L 194.279812 540.303554 
L 196.472557 541.359016 
L 198.665303 540.883617 
L 200.858049 540.953116 
L 203.050794 540.568428 
L 205.24354 541.300121 
L 207.436286 541.239332 
L 209.629031 541.132944 
L 211.821777 539.857785 
L 214.014522 540.490676 
L 216.207268 540.744391 
L 218.400014 541.377384 
L 220.592759 540.044873 
L 222.785505 541.002032 
L 224.978251 541.410332 
L 227.170996 541.143608 
L 229.363742 540.766067 
L 231.556488 541.206135 
L 233.749233 499.494505 
L 235.941979 539.95136 
L 238.134725 420.913523 
L 240.32747 540.598133 
L 242.520216 540.212555 
L 244.712961 458.244087 
L 246.905707 539.975636 
L 249.098453 540.605206 
L 251.291198 417.511575 
L 253.483944 540.870593 
L 255.67669 540.515883 
L 257.869435 540.422391 
L 260.062181 541.465867 
L 262.254927 540.679093 
L 264.447672 540.935276 
L 266.640418 541.264892 
L 268.833163 540.87044 
L 271.025909 541.366207 
" style="fill:none;stroke:#ff0000;stroke-linecap:square;stroke-width:1.5;"/>
   </g>
   <g id="patch_28">
    <path d="M 43.09 548.12 
L 43.09 402.24 
" style="fill:none;stroke:#000000;stroke-linecap:square;stroke-linejoin:miter;stroke-width:0.8;"/>
   </g>
   <g id="patch_29">
    <path d="M 281.88 548.12 
L 281.88 402.24 
" style="fill:none;stroke:#000000;stroke-linecap:square;stroke-linejoin:miter;stroke-width:0.8;"/>
   </g>
   <g id="patch_30">
    <path d="M 43.09 548.12 
L 281.88 548.12 
" style="fill:none;stroke:#000000;stroke-linecap:square;stroke-linejoin:miter;stroke-width:0.8;"/>
   </g>
   <g id="patch_31">
    <path d="M 43.09 402.24 
L 281.88 402.24 
" style="fill:none;stroke:#000000;stroke-linecap:square;stroke-linejoin:miter;stroke-width:0.8;"/>
   </g>
   <g id="text_75">
    <!-- Output signal 1 -->
    <defs>
     <path d="M 39.40625 66.21875 
Q 28.65625 66.21875 22.328125 58.203125 
Q 16.015625 50.203125 16.015625 36.375 
Q 16.015625 22.609375 22.328125 14.59375 
Q 28.65625 6.59375 39.40625 6.59375 
Q 50.140625 6.59375 56.421875 14.59375 
Q 62.703125 22.609375 62.703125 36.375 
Q 62.703125 50.203125 56.421875 58.203125 
Q 50.140625 66.21875 39.40625 66.21875 
z
M 39.40625 74.21875 
Q 54.734375 74.21875 63.90625 63.9375 
Q 73.09375 53.65625 73.09375 36.375 
Q 73.09375 19.140625 63.90625 8.859375 
Q 54.734375 -1.421875 39.40625 -1.421875 
Q 24.03125 -1.421875 14.8125 8.828125 
Q 5.609375 19.09375 5.609375 36.375 
Q 5.609375 53.65625 14.8125 63.9375 
Q 24.03125 74.21875 39.40625 74.21875 
z
" id="DejaVuSans-79"/>
    </defs>
    <g transform="translate(116.264375 396.24)scale(0.12 -0.12)">
     <use xlink:href="#DejaVuSans-79"/>
     <use x="78.710938" xlink:href="#DejaVuSans-117"/>
     <use x="142.089844" xlink:href="#DejaVuSans-116"/>
     <use x="181.298828" xlink:href="#DejaVuSans-112"/>
     <use x="244.775391" xlink:href="#DejaVuSans-117"/>
     <use x="308.154297" xlink:href="#DejaVuSans-116"/>
     <use x="347.363281" xlink:href="#DejaVuSans-32"/>
     <use x="379.150391" xlink:href="#DejaVuSans-115"/>
     <use x="431.25" xlink:href="#DejaVuSans-105"/>
     <use x="459.033203" xlink:href="#DejaVuSans-103"/>
     <use x="522.509766" xlink:href="#DejaVuSans-110"/>
     <use x="585.888672" xlink:href="#DejaVuSans-97"/>
     <use x="647.167969" xlink:href="#DejaVuSans-108"/>
     <use x="674.951172" xlink:href="#DejaVuSans-32"/>
     <use x="706.738281" xlink:href="#DejaVuSans-49"/>
    </g>
   </g>
  </g>
  <g id="axes_7">
   <g id="patch_32">
    <path d="M 327.49 548.12 
L 566.28 548.12 
L 566.28 402.24 
L 327.49 402.24 
z
" style="fill:#ffffff;"/>
   </g>
   <g id="matplotlib.axis_13">
    <g id="xtick_37">
     <g id="line2d_76">
      <g>
       <use style="stroke:#000000;stroke-width:0.8;" x="338.344091" xlink:href="#m001bb0f26d" y="548.12"/>
      </g>
     </g>
     <g id="text_76">
      <!-- 0 -->
      <g transform="translate(335.162841 562.718438)scale(0.1 -0.1)">
       <use xlink:href="#DejaVuSans-48"/>
      </g>
     </g>
    </g>
    <g id="xtick_38">
     <g id="line2d_77">
      <g>
       <use style="stroke:#000000;stroke-width:0.8;" x="382.199004" xlink:href="#m001bb0f26d" y="548.12"/>
      </g>
     </g>
     <g id="text_77">
      <!-- 20 -->
      <g transform="translate(375.836504 562.718438)scale(0.1 -0.1)">
       <use xlink:href="#DejaVuSans-50"/>
       <use x="63.623047" xlink:href="#DejaVuSans-48"/>
      </g>
     </g>
    </g>
    <g id="xtick_39">
     <g id="line2d_78">
      <g>
       <use style="stroke:#000000;stroke-width:0.8;" x="426.053916" xlink:href="#m001bb0f26d" y="548.12"/>
      </g>
     </g>
     <g id="text_78">
      <!-- 40 -->
      <g transform="translate(419.691416 562.718438)scale(0.1 -0.1)">
       <use xlink:href="#DejaVuSans-52"/>
       <use x="63.623047" xlink:href="#DejaVuSans-48"/>
      </g>
     </g>
    </g>
    <g id="xtick_40">
     <g id="line2d_79">
      <g>
       <use style="stroke:#000000;stroke-width:0.8;" x="469.908829" xlink:href="#m001bb0f26d" y="548.12"/>
      </g>
     </g>
     <g id="text_79">
      <!-- 60 -->
      <g transform="translate(463.546329 562.718438)scale(0.1 -0.1)">
       <use xlink:href="#DejaVuSans-54"/>
       <use x="63.623047" xlink:href="#DejaVuSans-48"/>
      </g>
     </g>
    </g>
    <g id="xtick_41">
     <g id="line2d_80">
      <g>
       <use style="stroke:#000000;stroke-width:0.8;" x="513.763742" xlink:href="#m001bb0f26d" y="548.12"/>
      </g>
     </g>
     <g id="text_80">
      <!-- 80 -->
      <g transform="translate(507.401242 562.718438)scale(0.1 -0.1)">
       <use xlink:href="#DejaVuSans-56"/>
       <use x="63.623047" xlink:href="#DejaVuSans-48"/>
      </g>
     </g>
    </g>
    <g id="xtick_42">
     <g id="line2d_81">
      <g>
       <use style="stroke:#000000;stroke-width:0.8;" x="557.618655" xlink:href="#m001bb0f26d" y="548.12"/>
      </g>
     </g>
     <g id="text_81">
      <!-- 100 -->
      <g transform="translate(548.074905 562.718438)scale(0.1 -0.1)">
       <use xlink:href="#DejaVuSans-49"/>
       <use x="63.623047" xlink:href="#DejaVuSans-48"/>
       <use x="127.246094" xlink:href="#DejaVuSans-48"/>
      </g>
     </g>
    </g>
   </g>
   <g id="matplotlib.axis_14">
    <g id="ytick_34">
     <g id="line2d_82">
      <g>
       <use style="stroke:#000000;stroke-width:0.8;" x="327.49" xlink:href="#maec4983349" y="541.494174"/>
      </g>
     </g>
     <g id="text_82">
      <!-- 0 -->
      <g transform="translate(314.1275 545.293392)scale(0.1 -0.1)">
       <use xlink:href="#DejaVuSans-48"/>
      </g>
     </g>
    </g>
    <g id="ytick_35">
     <g id="line2d_83">
      <g>
       <use style="stroke:#000000;stroke-width:0.8;" x="327.49" xlink:href="#maec4983349" y="512.93789"/>
      </g>
     </g>
     <g id="text_83">
      <!-- 1000 -->
      <g transform="translate(295.04 516.737109)scale(0.1 -0.1)">
       <use xlink:href="#DejaVuSans-49"/>
       <use x="63.623047" xlink:href="#DejaVuSans-48"/>
       <use x="127.246094" xlink:href="#DejaVuSans-48"/>
       <use x="190.869141" xlink:href="#DejaVuSans-48"/>
      </g>
     </g>
    </g>
    <g id="ytick_36">
     <g id="line2d_84">
      <g>
       <use style="stroke:#000000;stroke-width:0.8;" x="327.49" xlink:href="#maec4983349" y="484.381606"/>
      </g>
     </g>
     <g id="text_84">
      <!-- 2000 -->
      <g transform="translate(295.04 488.180825)scale(0.1 -0.1)">
       <use xlink:href="#DejaVuSans-50"/>
       <use x="63.623047" xlink:href="#DejaVuSans-48"/>
       <use x="127.246094" xlink:href="#DejaVuSans-48"/>
       <use x="190.869141" xlink:href="#DejaVuSans-48"/>
      </g>
     </g>
    </g>
    <g id="ytick_37">
     <g id="line2d_85">
      <g>
       <use style="stroke:#000000;stroke-width:0.8;" x="327.49" xlink:href="#maec4983349" y="455.825323"/>
      </g>
     </g>
     <g id="text_85">
      <!-- 3000 -->
      <g transform="translate(295.04 459.624541)scale(0.1 -0.1)">
       <use xlink:href="#DejaVuSans-51"/>
       <use x="63.623047" xlink:href="#DejaVuSans-48"/>
       <use x="127.246094" xlink:href="#DejaVuSans-48"/>
       <use x="190.869141" xlink:href="#DejaVuSans-48"/>
      </g>
     </g>
    </g>
    <g id="ytick_38">
     <g id="line2d_86">
      <g>
       <use style="stroke:#000000;stroke-width:0.8;" x="327.49" xlink:href="#maec4983349" y="427.269039"/>
      </g>
     </g>
     <g id="text_86">
      <!-- 4000 -->
      <g transform="translate(295.04 431.068258)scale(0.1 -0.1)">
       <use xlink:href="#DejaVuSans-52"/>
       <use x="63.623047" xlink:href="#DejaVuSans-48"/>
       <use x="127.246094" xlink:href="#DejaVuSans-48"/>
       <use x="190.869141" xlink:href="#DejaVuSans-48"/>
      </g>
     </g>
    </g>
   </g>
   <g id="line2d_87">
    <path clip-path="url(#p2d84d3817a)" d="M 338.344091 541.066064 
L 340.536837 516.866533 
L 342.729582 540.812821 
L 344.922328 541.376397 
L 347.115073 541.372905 
L 349.307819 493.973077 
L 351.500565 541.349985 
L 353.69331 541.402872 
L 355.886056 414.774426 
L 358.078802 541.003513 
L 360.271547 540.769496 
L 362.464293 537.154753 
L 364.657039 482.88688 
L 366.849784 541.08297 
L 369.04253 467.474477 
L 371.235275 540.434916 
L 373.428021 540.792849 
L 375.620767 540.991294 
L 377.813512 408.870909 
L 380.006258 541.011353 
L 382.199004 540.738346 
L 384.391749 541.159065 
L 386.584495 541.226248 
L 388.777241 541.123146 
L 390.969986 541.204338 
L 393.162732 541.304913 
L 395.355478 541.230299 
L 397.548223 541.152162 
L 399.740969 540.231857 
L 401.933714 414.093234 
L 404.12646 540.900298 
L 406.319206 541.343036 
L 408.511951 540.397516 
L 410.704697 540.981865 
L 412.897443 540.98317 
L 415.090188 510.701006 
L 417.282934 541.344784 
L 419.47568 541.327101 
L 421.668425 541.127064 
L 423.861171 541.446935 
L 426.053916 532.837623 
L 428.246662 540.819242 
L 430.439408 541.019974 
L 432.632153 541.357942 
L 434.824899 541.257973 
L 437.017645 473.127775 
L 439.21039 541.478549 
L 441.403136 541.316752 
L 443.595882 538.011974 
L 445.788627 484.015838 
L 447.981373 541.414911 
L 450.174118 541.356189 
L 452.366864 541.40096 
L 454.55961 541.340013 
L 456.752355 540.65695 
L 458.945101 541.325708 
L 461.137847 541.415601 
L 463.330592 460.247087 
L 465.523338 541.407235 
L 467.716084 479.904702 
L 469.908829 540.96756 
L 472.101575 540.80926 
L 474.29432 541.1311 
L 476.487066 541.228736 
L 478.679812 541.300071 
L 480.872557 541.44107 
L 483.065303 541.258272 
L 485.258049 540.435771 
L 487.450794 541.137077 
L 489.64354 541.462137 
L 491.836286 541.395049 
L 494.029031 540.785639 
L 496.221777 541.227578 
L 498.414522 540.739356 
L 500.607268 540.929639 
L 502.800014 541.404372 
L 504.992759 541.258003 
L 507.185505 541.122864 
L 509.378251 541.325319 
L 511.570996 541.358242 
L 513.763742 541.213072 
L 515.956488 541.382285 
L 518.149233 499.492491 
L 520.341979 541.242796 
L 522.534725 420.913255 
L 524.72747 540.819947 
L 526.920216 541.285272 
L 529.112961 458.242989 
L 531.305707 541.246744 
L 533.498453 540.825251 
L 535.691198 417.511383 
L 537.883944 540.275217 
L 540.07669 541.334601 
L 542.269435 541.319397 
L 544.462181 541.489091 
L 546.654927 541.179629 
L 548.847672 541.278135 
L 551.040418 541.456408 
L 553.233163 541.024173 
L 555.425909 541.39599 
" style="fill:none;stroke:#ff0000;stroke-linecap:square;stroke-width:1.5;"/>
   </g>
   <g id="patch_33">
    <path d="M 327.49 548.12 
L 327.49 402.24 
" style="fill:none;stroke:#000000;stroke-linecap:square;stroke-linejoin:miter;stroke-width:0.8;"/>
   </g>
   <g id="patch_34">
    <path d="M 566.28 548.12 
L 566.28 402.24 
" style="fill:none;stroke:#000000;stroke-linecap:square;stroke-linejoin:miter;stroke-width:0.8;"/>
   </g>
   <g id="patch_35">
    <path d="M 327.49 548.12 
L 566.28 548.12 
" style="fill:none;stroke:#000000;stroke-linecap:square;stroke-linejoin:miter;stroke-width:0.8;"/>
   </g>
   <g id="patch_36">
    <path d="M 327.49 402.24 
L 566.28 402.24 
" style="fill:none;stroke:#000000;stroke-linecap:square;stroke-linejoin:miter;stroke-width:0.8;"/>
   </g>
   <g id="text_87">
    <!-- Output signal 2 -->
    <g transform="translate(400.664375 396.24)scale(0.12 -0.12)">
     <use xlink:href="#DejaVuSans-79"/>
     <use x="78.710938" xlink:href="#DejaVuSans-117"/>
     <use x="142.089844" xlink:href="#DejaVuSans-116"/>
     <use x="181.298828" xlink:href="#DejaVuSans-112"/>
     <use x="244.775391" xlink:href="#DejaVuSans-117"/>
     <use x="308.154297" xlink:href="#DejaVuSans-116"/>
     <use x="347.363281" xlink:href="#DejaVuSans-32"/>
     <use x="379.150391" xlink:href="#DejaVuSans-115"/>
     <use x="431.25" xlink:href="#DejaVuSans-105"/>
     <use x="459.033203" xlink:href="#DejaVuSans-103"/>
     <use x="522.509766" xlink:href="#DejaVuSans-110"/>
     <use x="585.888672" xlink:href="#DejaVuSans-97"/>
     <use x="647.167969" xlink:href="#DejaVuSans-108"/>
     <use x="674.951172" xlink:href="#DejaVuSans-32"/>
     <use x="706.738281" xlink:href="#DejaVuSans-50"/>
    </g>
   </g>
  </g>
  <g id="axes_8">
   <g id="patch_37">
    <path d="M 611.89 548.12 
L 850.68 548.12 
L 850.68 402.24 
L 611.89 402.24 
z
" style="fill:#ffffff;"/>
   </g>
   <g id="matplotlib.axis_15">
    <g id="xtick_43">
     <g id="line2d_88">
      <g>
       <use style="stroke:#000000;stroke-width:0.8;" x="622.744091" xlink:href="#m001bb0f26d" y="548.12"/>
      </g>
     </g>
     <g id="text_88">
      <!-- 0 -->
      <g transform="translate(619.562841 562.718438)scale(0.1 -0.1)">
       <use xlink:href="#DejaVuSans-48"/>
      </g>
     </g>
    </g>
    <g id="xtick_44">
     <g id="line2d_89">
      <g>
       <use style="stroke:#000000;stroke-width:0.8;" x="666.599004" xlink:href="#m001bb0f26d" y="548.12"/>
      </g>
     </g>
     <g id="text_89">
      <!-- 20 -->
      <g transform="translate(660.236504 562.718438)scale(0.1 -0.1)">
       <use xlink:href="#DejaVuSans-50"/>
       <use x="63.623047" xlink:href="#DejaVuSans-48"/>
      </g>
     </g>
    </g>
    <g id="xtick_45">
     <g id="line2d_90">
      <g>
       <use style="stroke:#000000;stroke-width:0.8;" x="710.453916" xlink:href="#m001bb0f26d" y="548.12"/>
      </g>
     </g>
     <g id="text_90">
      <!-- 40 -->
      <g transform="translate(704.091416 562.718438)scale(0.1 -0.1)">
       <use xlink:href="#DejaVuSans-52"/>
       <use x="63.623047" xlink:href="#DejaVuSans-48"/>
      </g>
     </g>
    </g>
    <g id="xtick_46">
     <g id="line2d_91">
      <g>
       <use style="stroke:#000000;stroke-width:0.8;" x="754.308829" xlink:href="#m001bb0f26d" y="548.12"/>
      </g>
     </g>
     <g id="text_91">
      <!-- 60 -->
      <g transform="translate(747.946329 562.718438)scale(0.1 -0.1)">
       <use xlink:href="#DejaVuSans-54"/>
       <use x="63.623047" xlink:href="#DejaVuSans-48"/>
      </g>
     </g>
    </g>
    <g id="xtick_47">
     <g id="line2d_92">
      <g>
       <use style="stroke:#000000;stroke-width:0.8;" x="798.163742" xlink:href="#m001bb0f26d" y="548.12"/>
      </g>
     </g>
     <g id="text_92">
      <!-- 80 -->
      <g transform="translate(791.801242 562.718438)scale(0.1 -0.1)">
       <use xlink:href="#DejaVuSans-56"/>
       <use x="63.623047" xlink:href="#DejaVuSans-48"/>
      </g>
     </g>
    </g>
    <g id="xtick_48">
     <g id="line2d_93">
      <g>
       <use style="stroke:#000000;stroke-width:0.8;" x="842.018655" xlink:href="#m001bb0f26d" y="548.12"/>
      </g>
     </g>
     <g id="text_93">
      <!-- 100 -->
      <g transform="translate(832.474905 562.718438)scale(0.1 -0.1)">
       <use xlink:href="#DejaVuSans-49"/>
       <use x="63.623047" xlink:href="#DejaVuSans-48"/>
       <use x="127.246094" xlink:href="#DejaVuSans-48"/>
      </g>
     </g>
    </g>
   </g>
   <g id="matplotlib.axis_16">
    <g id="ytick_39">
     <g id="line2d_94">
      <g>
       <use style="stroke:#000000;stroke-width:0.8;" x="611.89" xlink:href="#maec4983349" y="541.499959"/>
      </g>
     </g>
     <g id="text_94">
      <!-- 0 -->
      <g transform="translate(598.5275 545.299178)scale(0.1 -0.1)">
       <use xlink:href="#DejaVuSans-48"/>
      </g>
     </g>
    </g>
    <g id="ytick_40">
     <g id="line2d_95">
      <g>
       <use style="stroke:#000000;stroke-width:0.8;" x="611.89" xlink:href="#maec4983349" y="512.423202"/>
      </g>
     </g>
     <g id="text_95">
      <!-- 1000 -->
      <g transform="translate(579.44 516.222421)scale(0.1 -0.1)">
       <use xlink:href="#DejaVuSans-49"/>
       <use x="63.623047" xlink:href="#DejaVuSans-48"/>
       <use x="127.246094" xlink:href="#DejaVuSans-48"/>
       <use x="190.869141" xlink:href="#DejaVuSans-48"/>
      </g>
     </g>
    </g>
    <g id="ytick_41">
     <g id="line2d_96">
      <g>
       <use style="stroke:#000000;stroke-width:0.8;" x="611.89" xlink:href="#maec4983349" y="483.346445"/>
      </g>
     </g>
     <g id="text_96">
      <!-- 2000 -->
      <g transform="translate(579.44 487.145663)scale(0.1 -0.1)">
       <use xlink:href="#DejaVuSans-50"/>
       <use x="63.623047" xlink:href="#DejaVuSans-48"/>
       <use x="127.246094" xlink:href="#DejaVuSans-48"/>
       <use x="190.869141" xlink:href="#DejaVuSans-48"/>
      </g>
     </g>
    </g>
    <g id="ytick_42">
     <g id="line2d_97">
      <g>
       <use style="stroke:#000000;stroke-width:0.8;" x="611.89" xlink:href="#maec4983349" y="454.269687"/>
      </g>
     </g>
     <g id="text_97">
      <!-- 3000 -->
      <g transform="translate(579.44 458.068906)scale(0.1 -0.1)">
       <use xlink:href="#DejaVuSans-51"/>
       <use x="63.623047" xlink:href="#DejaVuSans-48"/>
       <use x="127.246094" xlink:href="#DejaVuSans-48"/>
       <use x="190.869141" xlink:href="#DejaVuSans-48"/>
      </g>
     </g>
    </g>
    <g id="ytick_43">
     <g id="line2d_98">
      <g>
       <use style="stroke:#000000;stroke-width:0.8;" x="611.89" xlink:href="#maec4983349" y="425.19293"/>
      </g>
     </g>
     <g id="text_98">
      <!-- 4000 -->
      <g transform="translate(579.44 428.992149)scale(0.1 -0.1)">
       <use xlink:href="#DejaVuSans-52"/>
       <use x="63.623047" xlink:href="#DejaVuSans-48"/>
       <use x="127.246094" xlink:href="#DejaVuSans-48"/>
       <use x="190.869141" xlink:href="#DejaVuSans-48"/>
      </g>
     </g>
    </g>
   </g>
   <g id="line2d_99">
    <path clip-path="url(#p4467f69206)" d="M 622.744091 539.848081 
L 624.936837 516.871244 
L 627.129582 540.55525 
L 629.322328 541.248121 
L 631.515073 541.240655 
L 633.707819 493.976789 
L 635.900565 541.191645 
L 638.09331 541.304731 
L 640.286056 414.774683 
L 642.478802 540.928983 
L 644.671547 540.495179 
L 646.864293 537.160349 
L 649.057039 482.890109 
L 651.249784 540.929816 
L 653.44253 467.477033 
L 655.635275 540.031277 
L 657.828021 540.527557 
L 660.020767 540.802706 
L 662.213512 408.870909 
L 664.406258 539.636975 
L 666.599004 540.620412 
L 668.791749 541.109997 
L 670.984495 540.927061 
L 673.177241 540.068335 
L 675.369986 540.381617 
L 677.562732 540.76969 
L 679.755478 540.481786 
L 681.948223 541.025752 
L 684.140969 539.749731 
L 686.333714 414.093462 
L 688.52646 540.676539 
L 690.719206 541.324082 
L 692.911951 539.97942 
L 695.104697 540.903792 
L 697.297443 540.905311 
L 699.490188 510.705448 
L 701.682934 541.180523 
L 703.87568 541.142711 
L 706.068425 540.990954 
L 708.261171 541.444988 
L 710.453916 532.843031 
L 712.646662 540.71455 
L 714.839408 540.948139 
L 717.032153 541.311071 
L 719.224899 540.588569 
L 721.417645 473.130578 
L 723.61039 541.478296 
L 725.803136 541.120583 
L 727.995882 538.017607 
L 730.188627 484.019116 
L 732.381373 541.407722 
L 734.574118 541.20491 
L 736.766864 541.300643 
L 738.95961 541.170321 
L 741.152355 540.33913 
L 743.345101 540.849927 
L 745.537847 541.33195 
L 747.730592 460.249328 
L 749.923338 541.39879 
L 752.116084 479.907801 
L 754.308829 539.468 
L 756.501575 540.702934 
L 758.69432 540.099026 
L 760.887066 540.475758 
L 763.079812 541.084914 
L 765.272557 541.295056 
L 767.465303 540.589722 
L 769.658049 540.032461 
L 771.850794 540.122086 
L 774.04354 541.431455 
L 776.236286 541.117484 
L 778.429031 540.517562 
L 780.621777 540.929905 
L 782.814522 540.621588 
L 785.007268 540.843017 
L 787.200014 541.395459 
L 789.392759 540.994962 
L 791.585505 541.067871 
L 793.778251 541.265838 
L 795.970996 540.975462 
L 798.163742 540.415316 
L 800.356488 541.068231 
L 802.549233 499.496444 
L 804.741979 540.962444 
L 806.934725 420.913781 
L 809.12747 540.715371 
L 811.320216 541.053271 
L 813.512961 458.245143 
L 815.705707 540.970886 
L 817.898453 540.721543 
L 820.091198 417.51176 
L 822.283944 539.80985 
L 824.47669 541.158748 
L 826.669435 541.126238 
L 828.862181 541.489091 
L 831.054927 540.286276 
L 833.247672 540.666367 
L 835.440418 541.419205 
L 837.633163 540.953025 
L 839.825909 541.385704 
" style="fill:none;stroke:#ff0000;stroke-linecap:square;stroke-width:1.5;"/>
   </g>
   <g id="patch_38">
    <path d="M 611.89 548.12 
L 611.89 402.24 
" style="fill:none;stroke:#000000;stroke-linecap:square;stroke-linejoin:miter;stroke-width:0.8;"/>
   </g>
   <g id="patch_39">
    <path d="M 850.68 548.12 
L 850.68 402.24 
" style="fill:none;stroke:#000000;stroke-linecap:square;stroke-linejoin:miter;stroke-width:0.8;"/>
   </g>
   <g id="patch_40">
    <path d="M 611.89 548.12 
L 850.68 548.12 
" style="fill:none;stroke:#000000;stroke-linecap:square;stroke-linejoin:miter;stroke-width:0.8;"/>
   </g>
   <g id="patch_41">
    <path d="M 611.89 402.24 
L 850.68 402.24 
" style="fill:none;stroke:#000000;stroke-linecap:square;stroke-linejoin:miter;stroke-width:0.8;"/>
   </g>
   <g id="text_99">
    <!-- Output signal 3 -->
    <g transform="translate(685.064375 396.24)scale(0.12 -0.12)">
     <use xlink:href="#DejaVuSans-79"/>
     <use x="78.710938" xlink:href="#DejaVuSans-117"/>
     <use x="142.089844" xlink:href="#DejaVuSans-116"/>
     <use x="181.298828" xlink:href="#DejaVuSans-112"/>
     <use x="244.775391" xlink:href="#DejaVuSans-117"/>
     <use x="308.154297" xlink:href="#DejaVuSans-116"/>
     <use x="347.363281" xlink:href="#DejaVuSans-32"/>
     <use x="379.150391" xlink:href="#DejaVuSans-115"/>
     <use x="431.25" xlink:href="#DejaVuSans-105"/>
     <use x="459.033203" xlink:href="#DejaVuSans-103"/>
     <use x="522.509766" xlink:href="#DejaVuSans-110"/>
     <use x="585.888672" xlink:href="#DejaVuSans-97"/>
     <use x="647.167969" xlink:href="#DejaVuSans-108"/>
     <use x="674.951172" xlink:href="#DejaVuSans-32"/>
     <use x="706.738281" xlink:href="#DejaVuSans-51"/>
    </g>
   </g>
  </g>
 </g>
 <defs>
  <clipPath id="p5641c674b2">
   <rect height="145.88" width="380.99" x="43.09" y="25.44"/>
  </clipPath>
  <clipPath id="pcd54eaaf15">
   <rect height="145.88" width="380.99" x="469.69" y="25.44"/>
  </clipPath>
  <clipPath id="p1018da2bc7">
   <rect height="145.88" width="238.79" x="43.09" y="213.84"/>
  </clipPath>
  <clipPath id="pcb71213ed5">
   <rect height="145.88" width="238.79" x="327.49" y="213.84"/>
  </clipPath>
  <clipPath id="p0ef2825b37">
   <rect height="145.88" width="238.79" x="611.89" y="213.84"/>
  </clipPath>
  <clipPath id="p050a573485">
   <rect height="145.88" width="238.79" x="43.09" y="402.24"/>
  </clipPath>
  <clipPath id="p2d84d3817a">
   <rect height="145.88" width="238.79" x="327.49" y="402.24"/>
  </clipPath>
  <clipPath id="p4467f69206">
   <rect height="145.88" width="238.79" x="611.89" y="402.24"/>
  </clipPath>
 </defs>
</svg>
