<?xml version="1.0" encoding="utf-8" standalone="no"?>
<!DOCTYPE svg PUBLIC "-//W3C//DTD SVG 1.1//EN"
  "http://www.w3.org/Graphics/SVG/1.1/DTD/svg11.dtd">
<!-- Created with matplotlib (https://matplotlib.org/) -->
<svg height="576pt" version="1.1" viewBox="0 0 864 576" width="864pt" xmlns="http://www.w3.org/2000/svg" xmlns:xlink="http://www.w3.org/1999/xlink">
 <defs>
  <style type="text/css">
*{stroke-linecap:butt;stroke-linejoin:round;}
  </style>
 </defs>
 <g id="figure_1">
  <g id="patch_1">
   <path d="M 0 576 
L 864 576 
L 864 0 
L 0 0 
z
" style="fill:#ffffff;"/>
  </g>
  <g id="axes_1">
   <g id="patch_2">
    <path d="M 39.94 171.32 
L 424.08 171.32 
L 424.08 25.44 
L 39.94 25.44 
z
" style="fill:#ffffff;"/>
   </g>
   <g id="matplotlib.axis_1">
    <g id="xtick_1">
     <g id="line2d_1">
      <defs>
       <path d="M 0 0 
L 0 3.5 
" id="m089e665c6b" style="stroke:#000000;stroke-width:0.8;"/>
      </defs>
      <g>
       <use style="stroke:#000000;stroke-width:0.8;" x="57.400909" xlink:href="#m089e665c6b" y="171.32"/>
      </g>
     </g>
     <g id="text_1">
      <!-- 0 -->
      <defs>
       <path d="M 31.78125 66.40625 
Q 24.171875 66.40625 20.328125 58.90625 
Q 16.5 51.421875 16.5 36.375 
Q 16.5 21.390625 20.328125 13.890625 
Q 24.171875 6.390625 31.78125 6.390625 
Q 39.453125 6.390625 43.28125 13.890625 
Q 47.125 21.390625 47.125 36.375 
Q 47.125 51.421875 43.28125 58.90625 
Q 39.453125 66.40625 31.78125 66.40625 
z
M 31.78125 74.21875 
Q 44.046875 74.21875 50.515625 64.515625 
Q 56.984375 54.828125 56.984375 36.375 
Q 56.984375 17.96875 50.515625 8.265625 
Q 44.046875 -1.421875 31.78125 -1.421875 
Q 19.53125 -1.421875 13.0625 8.265625 
Q 6.59375 17.96875 6.59375 36.375 
Q 6.59375 54.828125 13.0625 64.515625 
Q 19.53125 74.21875 31.78125 74.21875 
z
" id="DejaVuSans-48"/>
      </defs>
      <g transform="translate(54.219659 185.918438)scale(0.1 -0.1)">
       <use xlink:href="#DejaVuSans-48"/>
      </g>
     </g>
    </g>
    <g id="xtick_2">
     <g id="line2d_2">
      <g>
       <use style="stroke:#000000;stroke-width:0.8;" x="127.950037" xlink:href="#m089e665c6b" y="171.32"/>
      </g>
     </g>
     <g id="text_2">
      <!-- 20 -->
      <defs>
       <path d="M 19.1875 8.296875 
L 53.609375 8.296875 
L 53.609375 0 
L 7.328125 0 
L 7.328125 8.296875 
Q 12.9375 14.109375 22.625 23.890625 
Q 32.328125 33.6875 34.8125 36.53125 
Q 39.546875 41.84375 41.421875 45.53125 
Q 43.3125 49.21875 43.3125 52.78125 
Q 43.3125 58.59375 39.234375 62.25 
Q 35.15625 65.921875 28.609375 65.921875 
Q 23.96875 65.921875 18.8125 64.3125 
Q 13.671875 62.703125 7.8125 59.421875 
L 7.8125 69.390625 
Q 13.765625 71.78125 18.9375 73 
Q 24.125 74.21875 28.421875 74.21875 
Q 39.75 74.21875 46.484375 68.546875 
Q 53.21875 62.890625 53.21875 53.421875 
Q 53.21875 48.921875 51.53125 44.890625 
Q 49.859375 40.875 45.40625 35.40625 
Q 44.1875 33.984375 37.640625 27.21875 
Q 31.109375 20.453125 19.1875 8.296875 
z
" id="DejaVuSans-50"/>
      </defs>
      <g transform="translate(121.587537 185.918438)scale(0.1 -0.1)">
       <use xlink:href="#DejaVuSans-50"/>
       <use x="63.623047" xlink:href="#DejaVuSans-48"/>
      </g>
     </g>
    </g>
    <g id="xtick_3">
     <g id="line2d_3">
      <g>
       <use style="stroke:#000000;stroke-width:0.8;" x="198.499164" xlink:href="#m089e665c6b" y="171.32"/>
      </g>
     </g>
     <g id="text_3">
      <!-- 40 -->
      <defs>
       <path d="M 37.796875 64.3125 
L 12.890625 25.390625 
L 37.796875 25.390625 
z
M 35.203125 72.90625 
L 47.609375 72.90625 
L 47.609375 25.390625 
L 58.015625 25.390625 
L 58.015625 17.1875 
L 47.609375 17.1875 
L 47.609375 0 
L 37.796875 0 
L 37.796875 17.1875 
L 4.890625 17.1875 
L 4.890625 26.703125 
z
" id="DejaVuSans-52"/>
      </defs>
      <g transform="translate(192.136664 185.918438)scale(0.1 -0.1)">
       <use xlink:href="#DejaVuSans-52"/>
       <use x="63.623047" xlink:href="#DejaVuSans-48"/>
      </g>
     </g>
    </g>
    <g id="xtick_4">
     <g id="line2d_4">
      <g>
       <use style="stroke:#000000;stroke-width:0.8;" x="269.048292" xlink:href="#m089e665c6b" y="171.32"/>
      </g>
     </g>
     <g id="text_4">
      <!-- 60 -->
      <defs>
       <path d="M 33.015625 40.375 
Q 26.375 40.375 22.484375 35.828125 
Q 18.609375 31.296875 18.609375 23.390625 
Q 18.609375 15.53125 22.484375 10.953125 
Q 26.375 6.390625 33.015625 6.390625 
Q 39.65625 6.390625 43.53125 10.953125 
Q 47.40625 15.53125 47.40625 23.390625 
Q 47.40625 31.296875 43.53125 35.828125 
Q 39.65625 40.375 33.015625 40.375 
z
M 52.59375 71.296875 
L 52.59375 62.3125 
Q 48.875 64.0625 45.09375 64.984375 
Q 41.3125 65.921875 37.59375 65.921875 
Q 27.828125 65.921875 22.671875 59.328125 
Q 17.53125 52.734375 16.796875 39.40625 
Q 19.671875 43.65625 24.015625 45.921875 
Q 28.375 48.1875 33.59375 48.1875 
Q 44.578125 48.1875 50.953125 41.515625 
Q 57.328125 34.859375 57.328125 23.390625 
Q 57.328125 12.15625 50.6875 5.359375 
Q 44.046875 -1.421875 33.015625 -1.421875 
Q 20.359375 -1.421875 13.671875 8.265625 
Q 6.984375 17.96875 6.984375 36.375 
Q 6.984375 53.65625 15.1875 63.9375 
Q 23.390625 74.21875 37.203125 74.21875 
Q 40.921875 74.21875 44.703125 73.484375 
Q 48.484375 72.75 52.59375 71.296875 
z
" id="DejaVuSans-54"/>
      </defs>
      <g transform="translate(262.685792 185.918438)scale(0.1 -0.1)">
       <use xlink:href="#DejaVuSans-54"/>
       <use x="63.623047" xlink:href="#DejaVuSans-48"/>
      </g>
     </g>
    </g>
    <g id="xtick_5">
     <g id="line2d_5">
      <g>
       <use style="stroke:#000000;stroke-width:0.8;" x="339.59742" xlink:href="#m089e665c6b" y="171.32"/>
      </g>
     </g>
     <g id="text_5">
      <!-- 80 -->
      <defs>
       <path d="M 31.78125 34.625 
Q 24.75 34.625 20.71875 30.859375 
Q 16.703125 27.09375 16.703125 20.515625 
Q 16.703125 13.921875 20.71875 10.15625 
Q 24.75 6.390625 31.78125 6.390625 
Q 38.8125 6.390625 42.859375 10.171875 
Q 46.921875 13.96875 46.921875 20.515625 
Q 46.921875 27.09375 42.890625 30.859375 
Q 38.875 34.625 31.78125 34.625 
z
M 21.921875 38.8125 
Q 15.578125 40.375 12.03125 44.71875 
Q 8.5 49.078125 8.5 55.328125 
Q 8.5 64.0625 14.71875 69.140625 
Q 20.953125 74.21875 31.78125 74.21875 
Q 42.671875 74.21875 48.875 69.140625 
Q 55.078125 64.0625 55.078125 55.328125 
Q 55.078125 49.078125 51.53125 44.71875 
Q 48 40.375 41.703125 38.8125 
Q 48.828125 37.15625 52.796875 32.3125 
Q 56.78125 27.484375 56.78125 20.515625 
Q 56.78125 9.90625 50.3125 4.234375 
Q 43.84375 -1.421875 31.78125 -1.421875 
Q 19.734375 -1.421875 13.25 4.234375 
Q 6.78125 9.90625 6.78125 20.515625 
Q 6.78125 27.484375 10.78125 32.3125 
Q 14.796875 37.15625 21.921875 38.8125 
z
M 18.3125 54.390625 
Q 18.3125 48.734375 21.84375 45.5625 
Q 25.390625 42.390625 31.78125 42.390625 
Q 38.140625 42.390625 41.71875 45.5625 
Q 45.3125 48.734375 45.3125 54.390625 
Q 45.3125 60.0625 41.71875 63.234375 
Q 38.140625 66.40625 31.78125 66.40625 
Q 25.390625 66.40625 21.84375 63.234375 
Q 18.3125 60.0625 18.3125 54.390625 
z
" id="DejaVuSans-56"/>
      </defs>
      <g transform="translate(333.23492 185.918438)scale(0.1 -0.1)">
       <use xlink:href="#DejaVuSans-56"/>
       <use x="63.623047" xlink:href="#DejaVuSans-48"/>
      </g>
     </g>
    </g>
    <g id="xtick_6">
     <g id="line2d_6">
      <g>
       <use style="stroke:#000000;stroke-width:0.8;" x="410.146547" xlink:href="#m089e665c6b" y="171.32"/>
      </g>
     </g>
     <g id="text_6">
      <!-- 100 -->
      <defs>
       <path d="M 12.40625 8.296875 
L 28.515625 8.296875 
L 28.515625 63.921875 
L 10.984375 60.40625 
L 10.984375 69.390625 
L 28.421875 72.90625 
L 38.28125 72.90625 
L 38.28125 8.296875 
L 54.390625 8.296875 
L 54.390625 0 
L 12.40625 0 
z
" id="DejaVuSans-49"/>
      </defs>
      <g transform="translate(400.602797 185.918438)scale(0.1 -0.1)">
       <use xlink:href="#DejaVuSans-49"/>
       <use x="63.623047" xlink:href="#DejaVuSans-48"/>
       <use x="127.246094" xlink:href="#DejaVuSans-48"/>
      </g>
     </g>
    </g>
   </g>
   <g id="matplotlib.axis_2">
    <g id="ytick_1">
     <g id="line2d_7">
      <defs>
       <path d="M 0 0 
L -3.5 0 
" id="m57312168de" style="stroke:#000000;stroke-width:0.8;"/>
      </defs>
      <g>
       <use style="stroke:#000000;stroke-width:0.8;" x="39.94" xlink:href="#m57312168de" y="164.689091"/>
      </g>
     </g>
     <g id="text_7">
      <!-- 0.00 -->
      <defs>
       <path d="M 10.6875 12.40625 
L 21 12.40625 
L 21 0 
L 10.6875 0 
z
" id="DejaVuSans-46"/>
      </defs>
      <g transform="translate(10.674375 168.48831)scale(0.1 -0.1)">
       <use xlink:href="#DejaVuSans-48"/>
       <use x="63.623047" xlink:href="#DejaVuSans-46"/>
       <use x="95.410156" xlink:href="#DejaVuSans-48"/>
       <use x="159.033203" xlink:href="#DejaVuSans-48"/>
      </g>
     </g>
    </g>
    <g id="ytick_2">
     <g id="line2d_8">
      <g>
       <use style="stroke:#000000;stroke-width:0.8;" x="39.94" xlink:href="#m57312168de" y="131.298713"/>
      </g>
     </g>
     <g id="text_8">
      <!-- 0.02 -->
      <g transform="translate(10.674375 135.097931)scale(0.1 -0.1)">
       <use xlink:href="#DejaVuSans-48"/>
       <use x="63.623047" xlink:href="#DejaVuSans-46"/>
       <use x="95.410156" xlink:href="#DejaVuSans-48"/>
       <use x="159.033203" xlink:href="#DejaVuSans-50"/>
      </g>
     </g>
    </g>
    <g id="ytick_3">
     <g id="line2d_9">
      <g>
       <use style="stroke:#000000;stroke-width:0.8;" x="39.94" xlink:href="#m57312168de" y="97.908335"/>
      </g>
     </g>
     <g id="text_9">
      <!-- 0.04 -->
      <g transform="translate(10.674375 101.707553)scale(0.1 -0.1)">
       <use xlink:href="#DejaVuSans-48"/>
       <use x="63.623047" xlink:href="#DejaVuSans-46"/>
       <use x="95.410156" xlink:href="#DejaVuSans-48"/>
       <use x="159.033203" xlink:href="#DejaVuSans-52"/>
      </g>
     </g>
    </g>
    <g id="ytick_4">
     <g id="line2d_10">
      <g>
       <use style="stroke:#000000;stroke-width:0.8;" x="39.94" xlink:href="#m57312168de" y="64.517956"/>
      </g>
     </g>
     <g id="text_10">
      <!-- 0.06 -->
      <g transform="translate(10.674375 68.317175)scale(0.1 -0.1)">
       <use xlink:href="#DejaVuSans-48"/>
       <use x="63.623047" xlink:href="#DejaVuSans-46"/>
       <use x="95.410156" xlink:href="#DejaVuSans-48"/>
       <use x="159.033203" xlink:href="#DejaVuSans-54"/>
      </g>
     </g>
    </g>
    <g id="ytick_5">
     <g id="line2d_11">
      <g>
       <use style="stroke:#000000;stroke-width:0.8;" x="39.94" xlink:href="#m57312168de" y="31.127578"/>
      </g>
     </g>
     <g id="text_11">
      <!-- 0.08 -->
      <g transform="translate(10.674375 34.926797)scale(0.1 -0.1)">
       <use xlink:href="#DejaVuSans-48"/>
       <use x="63.623047" xlink:href="#DejaVuSans-46"/>
       <use x="95.410156" xlink:href="#DejaVuSans-48"/>
       <use x="159.033203" xlink:href="#DejaVuSans-56"/>
      </g>
     </g>
    </g>
   </g>
   <g id="line2d_12">
    <path clip-path="url(#pcb4361022c)" d="M 57.400909 164.689091 
L 60.928365 164.689091 
L 64.455822 164.689091 
L 67.983278 126.89349 
L 71.510735 164.689091 
L 75.038191 93.676109 
L 78.565647 164.689091 
L 82.093104 164.689091 
L 85.62056 164.689091 
L 89.148017 164.689091 
L 92.675473 164.689091 
L 96.202929 164.689091 
L 99.730386 75.706099 
L 103.257842 164.689091 
L 106.785298 164.689091 
L 110.312755 164.689091 
L 113.840211 164.689091 
L 117.367668 164.689091 
L 120.895124 164.689091 
L 124.42258 164.689091 
L 127.950037 164.689091 
L 131.477493 164.689091 
L 135.004949 48.578532 
L 138.532406 164.689091 
L 142.059862 164.689091 
L 145.587319 164.689091 
L 149.114775 164.689091 
L 152.642231 164.689091 
L 156.169688 164.689091 
L 159.697144 118.649962 
L 163.224601 164.689091 
L 166.752057 92.227967 
L 170.279513 164.689091 
L 173.80697 164.689091 
L 177.334426 164.689091 
L 180.861882 144.053194 
L 184.389339 164.689091 
L 187.916795 164.689091 
L 191.444252 164.689091 
L 194.971708 164.689091 
L 198.499164 138.243331 
L 202.026621 164.689091 
L 205.554077 164.689091 
L 209.081534 64.834271 
L 212.60899 164.689091 
L 216.136446 164.689091 
L 219.663903 164.689091 
L 223.191359 164.689091 
L 226.718815 164.689091 
L 230.246272 164.689091 
L 233.773728 164.689091 
L 237.301185 164.689091 
L 240.828641 164.689091 
L 244.356097 164.689091 
L 247.883554 63.983469 
L 251.41101 84.807432 
L 254.938466 44.900914 
L 258.465923 32.070909 
L 261.993379 164.689091 
L 265.520836 121.832173 
L 269.048292 164.689091 
L 272.575748 164.689091 
L 276.103205 82.506909 
L 279.630661 164.689091 
L 283.158118 164.689091 
L 286.685574 33.761265 
L 290.21303 78.179143 
L 293.740487 164.689091 
L 297.267943 67.79246 
L 300.795399 164.689091 
L 304.322856 164.689091 
L 307.850312 164.689091 
L 311.377769 164.689091 
L 314.905225 164.689091 
L 318.432681 164.689091 
L 321.960138 164.689091 
L 325.487594 164.689091 
L 329.015051 164.689091 
L 332.542507 164.689091 
L 336.069963 164.689091 
L 339.59742 164.689091 
L 343.124876 68.120808 
L 346.652332 164.689091 
L 350.179789 161.200066 
L 353.707245 164.689091 
L 357.234702 164.689091 
L 360.762158 164.689091 
L 364.289614 164.689091 
L 367.817071 164.689091 
L 371.344527 164.689091 
L 374.871983 164.689091 
L 378.39944 164.689091 
L 381.926896 164.689091 
L 385.454353 164.689091 
L 388.981809 46.933497 
L 392.509265 164.689091 
L 396.036722 164.689091 
L 399.564178 164.689091 
L 403.091635 164.689091 
L 406.619091 164.689091 
" style="fill:none;stroke:#bfbf00;stroke-linecap:square;stroke-width:1.5;"/>
   </g>
   <g id="patch_3">
    <path d="M 39.94 171.32 
L 39.94 25.44 
" style="fill:none;stroke:#000000;stroke-linecap:square;stroke-linejoin:miter;stroke-width:0.8;"/>
   </g>
   <g id="patch_4">
    <path d="M 424.08 171.32 
L 424.08 25.44 
" style="fill:none;stroke:#000000;stroke-linecap:square;stroke-linejoin:miter;stroke-width:0.8;"/>
   </g>
   <g id="patch_5">
    <path d="M 39.94 171.32 
L 424.08 171.32 
" style="fill:none;stroke:#000000;stroke-linecap:square;stroke-linejoin:miter;stroke-width:0.8;"/>
   </g>
   <g id="patch_6">
    <path d="M 39.94 25.44 
L 424.08 25.44 
" style="fill:none;stroke:#000000;stroke-linecap:square;stroke-linejoin:miter;stroke-width:0.8;"/>
   </g>
   <g id="text_12">
    <!-- Input signal 1 -->
    <defs>
     <path d="M 9.8125 72.90625 
L 19.671875 72.90625 
L 19.671875 0 
L 9.8125 0 
z
" id="DejaVuSans-73"/>
     <path d="M 54.890625 33.015625 
L 54.890625 0 
L 45.90625 0 
L 45.90625 32.71875 
Q 45.90625 40.484375 42.875 44.328125 
Q 39.84375 48.1875 33.796875 48.1875 
Q 26.515625 48.1875 22.3125 43.546875 
Q 18.109375 38.921875 18.109375 30.90625 
L 18.109375 0 
L 9.078125 0 
L 9.078125 54.6875 
L 18.109375 54.6875 
L 18.109375 46.1875 
Q 21.34375 51.125 25.703125 53.5625 
Q 30.078125 56 35.796875 56 
Q 45.21875 56 50.046875 50.171875 
Q 54.890625 44.34375 54.890625 33.015625 
z
" id="DejaVuSans-110"/>
     <path d="M 18.109375 8.203125 
L 18.109375 -20.796875 
L 9.078125 -20.796875 
L 9.078125 54.6875 
L 18.109375 54.6875 
L 18.109375 46.390625 
Q 20.953125 51.265625 25.265625 53.625 
Q 29.59375 56 35.59375 56 
Q 45.5625 56 51.78125 48.09375 
Q 58.015625 40.1875 58.015625 27.296875 
Q 58.015625 14.40625 51.78125 6.484375 
Q 45.5625 -1.421875 35.59375 -1.421875 
Q 29.59375 -1.421875 25.265625 0.953125 
Q 20.953125 3.328125 18.109375 8.203125 
z
M 48.6875 27.296875 
Q 48.6875 37.203125 44.609375 42.84375 
Q 40.53125 48.484375 33.40625 48.484375 
Q 26.265625 48.484375 22.1875 42.84375 
Q 18.109375 37.203125 18.109375 27.296875 
Q 18.109375 17.390625 22.1875 11.75 
Q 26.265625 6.109375 33.40625 6.109375 
Q 40.53125 6.109375 44.609375 11.75 
Q 48.6875 17.390625 48.6875 27.296875 
z
" id="DejaVuSans-112"/>
     <path d="M 8.5 21.578125 
L 8.5 54.6875 
L 17.484375 54.6875 
L 17.484375 21.921875 
Q 17.484375 14.15625 20.5 10.265625 
Q 23.53125 6.390625 29.59375 6.390625 
Q 36.859375 6.390625 41.078125 11.03125 
Q 45.3125 15.671875 45.3125 23.6875 
L 45.3125 54.6875 
L 54.296875 54.6875 
L 54.296875 0 
L 45.3125 0 
L 45.3125 8.40625 
Q 42.046875 3.421875 37.71875 1 
Q 33.40625 -1.421875 27.6875 -1.421875 
Q 18.265625 -1.421875 13.375 4.4375 
Q 8.5 10.296875 8.5 21.578125 
z
M 31.109375 56 
z
" id="DejaVuSans-117"/>
     <path d="M 18.3125 70.21875 
L 18.3125 54.6875 
L 36.8125 54.6875 
L 36.8125 47.703125 
L 18.3125 47.703125 
L 18.3125 18.015625 
Q 18.3125 11.328125 20.140625 9.421875 
Q 21.96875 7.515625 27.59375 7.515625 
L 36.8125 7.515625 
L 36.8125 0 
L 27.59375 0 
Q 17.1875 0 13.234375 3.875 
Q 9.28125 7.765625 9.28125 18.015625 
L 9.28125 47.703125 
L 2.6875 47.703125 
L 2.6875 54.6875 
L 9.28125 54.6875 
L 9.28125 70.21875 
z
" id="DejaVuSans-116"/>
     <path id="DejaVuSans-32"/>
     <path d="M 44.28125 53.078125 
L 44.28125 44.578125 
Q 40.484375 46.53125 36.375 47.5 
Q 32.28125 48.484375 27.875 48.484375 
Q 21.1875 48.484375 17.84375 46.4375 
Q 14.5 44.390625 14.5 40.28125 
Q 14.5 37.15625 16.890625 35.375 
Q 19.28125 33.59375 26.515625 31.984375 
L 29.59375 31.296875 
Q 39.15625 29.25 43.1875 25.515625 
Q 47.21875 21.78125 47.21875 15.09375 
Q 47.21875 7.46875 41.1875 3.015625 
Q 35.15625 -1.421875 24.609375 -1.421875 
Q 20.21875 -1.421875 15.453125 -0.5625 
Q 10.6875 0.296875 5.421875 2 
L 5.421875 11.28125 
Q 10.40625 8.6875 15.234375 7.390625 
Q 20.0625 6.109375 24.8125 6.109375 
Q 31.15625 6.109375 34.5625 8.28125 
Q 37.984375 10.453125 37.984375 14.40625 
Q 37.984375 18.0625 35.515625 20.015625 
Q 33.0625 21.96875 24.703125 23.78125 
L 21.578125 24.515625 
Q 13.234375 26.265625 9.515625 29.90625 
Q 5.8125 33.546875 5.8125 39.890625 
Q 5.8125 47.609375 11.28125 51.796875 
Q 16.75 56 26.8125 56 
Q 31.78125 56 36.171875 55.265625 
Q 40.578125 54.546875 44.28125 53.078125 
z
" id="DejaVuSans-115"/>
     <path d="M 9.421875 54.6875 
L 18.40625 54.6875 
L 18.40625 0 
L 9.421875 0 
z
M 9.421875 75.984375 
L 18.40625 75.984375 
L 18.40625 64.59375 
L 9.421875 64.59375 
z
" id="DejaVuSans-105"/>
     <path d="M 45.40625 27.984375 
Q 45.40625 37.75 41.375 43.109375 
Q 37.359375 48.484375 30.078125 48.484375 
Q 22.859375 48.484375 18.828125 43.109375 
Q 14.796875 37.75 14.796875 27.984375 
Q 14.796875 18.265625 18.828125 12.890625 
Q 22.859375 7.515625 30.078125 7.515625 
Q 37.359375 7.515625 41.375 12.890625 
Q 45.40625 18.265625 45.40625 27.984375 
z
M 54.390625 6.78125 
Q 54.390625 -7.171875 48.1875 -13.984375 
Q 42 -20.796875 29.203125 -20.796875 
Q 24.46875 -20.796875 20.265625 -20.09375 
Q 16.0625 -19.390625 12.109375 -17.921875 
L 12.109375 -9.1875 
Q 16.0625 -11.328125 19.921875 -12.34375 
Q 23.78125 -13.375 27.78125 -13.375 
Q 36.625 -13.375 41.015625 -8.765625 
Q 45.40625 -4.15625 45.40625 5.171875 
L 45.40625 9.625 
Q 42.625 4.78125 38.28125 2.390625 
Q 33.9375 0 27.875 0 
Q 17.828125 0 11.671875 7.65625 
Q 5.515625 15.328125 5.515625 27.984375 
Q 5.515625 40.671875 11.671875 48.328125 
Q 17.828125 56 27.875 56 
Q 33.9375 56 38.28125 53.609375 
Q 42.625 51.21875 45.40625 46.390625 
L 45.40625 54.6875 
L 54.390625 54.6875 
z
" id="DejaVuSans-103"/>
     <path d="M 34.28125 27.484375 
Q 23.390625 27.484375 19.1875 25 
Q 14.984375 22.515625 14.984375 16.5 
Q 14.984375 11.71875 18.140625 8.90625 
Q 21.296875 6.109375 26.703125 6.109375 
Q 34.1875 6.109375 38.703125 11.40625 
Q 43.21875 16.703125 43.21875 25.484375 
L 43.21875 27.484375 
z
M 52.203125 31.203125 
L 52.203125 0 
L 43.21875 0 
L 43.21875 8.296875 
Q 40.140625 3.328125 35.546875 0.953125 
Q 30.953125 -1.421875 24.3125 -1.421875 
Q 15.921875 -1.421875 10.953125 3.296875 
Q 6 8.015625 6 15.921875 
Q 6 25.140625 12.171875 29.828125 
Q 18.359375 34.515625 30.609375 34.515625 
L 43.21875 34.515625 
L 43.21875 35.40625 
Q 43.21875 41.609375 39.140625 45 
Q 35.0625 48.390625 27.6875 48.390625 
Q 23 48.390625 18.546875 47.265625 
Q 14.109375 46.140625 10.015625 43.890625 
L 10.015625 52.203125 
Q 14.9375 54.109375 19.578125 55.046875 
Q 24.21875 56 28.609375 56 
Q 40.484375 56 46.34375 49.84375 
Q 52.203125 43.703125 52.203125 31.203125 
z
" id="DejaVuSans-97"/>
     <path d="M 9.421875 75.984375 
L 18.40625 75.984375 
L 18.40625 0 
L 9.421875 0 
z
" id="DejaVuSans-108"/>
    </defs>
    <g transform="translate(191.094687 19.44)scale(0.12 -0.12)">
     <use xlink:href="#DejaVuSans-73"/>
     <use x="29.492188" xlink:href="#DejaVuSans-110"/>
     <use x="92.871094" xlink:href="#DejaVuSans-112"/>
     <use x="156.347656" xlink:href="#DejaVuSans-117"/>
     <use x="219.726562" xlink:href="#DejaVuSans-116"/>
     <use x="258.935547" xlink:href="#DejaVuSans-32"/>
     <use x="290.722656" xlink:href="#DejaVuSans-115"/>
     <use x="342.822266" xlink:href="#DejaVuSans-105"/>
     <use x="370.605469" xlink:href="#DejaVuSans-103"/>
     <use x="434.082031" xlink:href="#DejaVuSans-110"/>
     <use x="497.460938" xlink:href="#DejaVuSans-97"/>
     <use x="558.740234" xlink:href="#DejaVuSans-108"/>
     <use x="586.523438" xlink:href="#DejaVuSans-32"/>
     <use x="618.310547" xlink:href="#DejaVuSans-49"/>
    </g>
   </g>
  </g>
  <g id="axes_2">
   <g id="patch_7">
    <path d="M 466.54 171.32 
L 850.68 171.32 
L 850.68 25.44 
L 466.54 25.44 
z
" style="fill:#ffffff;"/>
   </g>
   <g id="matplotlib.axis_3">
    <g id="xtick_7">
     <g id="line2d_13">
      <g>
       <use style="stroke:#000000;stroke-width:0.8;" x="484.000909" xlink:href="#m089e665c6b" y="171.32"/>
      </g>
     </g>
     <g id="text_13">
      <!-- 0 -->
      <g transform="translate(480.819659 185.918438)scale(0.1 -0.1)">
       <use xlink:href="#DejaVuSans-48"/>
      </g>
     </g>
    </g>
    <g id="xtick_8">
     <g id="line2d_14">
      <g>
       <use style="stroke:#000000;stroke-width:0.8;" x="554.550037" xlink:href="#m089e665c6b" y="171.32"/>
      </g>
     </g>
     <g id="text_14">
      <!-- 20 -->
      <g transform="translate(548.187537 185.918438)scale(0.1 -0.1)">
       <use xlink:href="#DejaVuSans-50"/>
       <use x="63.623047" xlink:href="#DejaVuSans-48"/>
      </g>
     </g>
    </g>
    <g id="xtick_9">
     <g id="line2d_15">
      <g>
       <use style="stroke:#000000;stroke-width:0.8;" x="625.099164" xlink:href="#m089e665c6b" y="171.32"/>
      </g>
     </g>
     <g id="text_15">
      <!-- 40 -->
      <g transform="translate(618.736664 185.918438)scale(0.1 -0.1)">
       <use xlink:href="#DejaVuSans-52"/>
       <use x="63.623047" xlink:href="#DejaVuSans-48"/>
      </g>
     </g>
    </g>
    <g id="xtick_10">
     <g id="line2d_16">
      <g>
       <use style="stroke:#000000;stroke-width:0.8;" x="695.648292" xlink:href="#m089e665c6b" y="171.32"/>
      </g>
     </g>
     <g id="text_16">
      <!-- 60 -->
      <g transform="translate(689.285792 185.918438)scale(0.1 -0.1)">
       <use xlink:href="#DejaVuSans-54"/>
       <use x="63.623047" xlink:href="#DejaVuSans-48"/>
      </g>
     </g>
    </g>
    <g id="xtick_11">
     <g id="line2d_17">
      <g>
       <use style="stroke:#000000;stroke-width:0.8;" x="766.19742" xlink:href="#m089e665c6b" y="171.32"/>
      </g>
     </g>
     <g id="text_17">
      <!-- 80 -->
      <g transform="translate(759.83492 185.918438)scale(0.1 -0.1)">
       <use xlink:href="#DejaVuSans-56"/>
       <use x="63.623047" xlink:href="#DejaVuSans-48"/>
      </g>
     </g>
    </g>
    <g id="xtick_12">
     <g id="line2d_18">
      <g>
       <use style="stroke:#000000;stroke-width:0.8;" x="836.746547" xlink:href="#m089e665c6b" y="171.32"/>
      </g>
     </g>
     <g id="text_18">
      <!-- 100 -->
      <g transform="translate(827.202797 185.918438)scale(0.1 -0.1)">
       <use xlink:href="#DejaVuSans-49"/>
       <use x="63.623047" xlink:href="#DejaVuSans-48"/>
       <use x="127.246094" xlink:href="#DejaVuSans-48"/>
      </g>
     </g>
    </g>
   </g>
   <g id="matplotlib.axis_4">
    <g id="ytick_6">
     <g id="line2d_19">
      <g>
       <use style="stroke:#000000;stroke-width:0.8;" x="466.54" xlink:href="#m57312168de" y="164.689091"/>
      </g>
     </g>
     <g id="text_19">
      <!-- 0.00 -->
      <g transform="translate(437.274375 168.48831)scale(0.1 -0.1)">
       <use xlink:href="#DejaVuSans-48"/>
       <use x="63.623047" xlink:href="#DejaVuSans-46"/>
       <use x="95.410156" xlink:href="#DejaVuSans-48"/>
       <use x="159.033203" xlink:href="#DejaVuSans-48"/>
      </g>
     </g>
    </g>
    <g id="ytick_7">
     <g id="line2d_20">
      <g>
       <use style="stroke:#000000;stroke-width:0.8;" x="466.54" xlink:href="#m57312168de" y="139.867074"/>
      </g>
     </g>
     <g id="text_20">
      <!-- 0.02 -->
      <g transform="translate(437.274375 143.666293)scale(0.1 -0.1)">
       <use xlink:href="#DejaVuSans-48"/>
       <use x="63.623047" xlink:href="#DejaVuSans-46"/>
       <use x="95.410156" xlink:href="#DejaVuSans-48"/>
       <use x="159.033203" xlink:href="#DejaVuSans-50"/>
      </g>
     </g>
    </g>
    <g id="ytick_8">
     <g id="line2d_21">
      <g>
       <use style="stroke:#000000;stroke-width:0.8;" x="466.54" xlink:href="#m57312168de" y="115.045057"/>
      </g>
     </g>
     <g id="text_21">
      <!-- 0.04 -->
      <g transform="translate(437.274375 118.844276)scale(0.1 -0.1)">
       <use xlink:href="#DejaVuSans-48"/>
       <use x="63.623047" xlink:href="#DejaVuSans-46"/>
       <use x="95.410156" xlink:href="#DejaVuSans-48"/>
       <use x="159.033203" xlink:href="#DejaVuSans-52"/>
      </g>
     </g>
    </g>
    <g id="ytick_9">
     <g id="line2d_22">
      <g>
       <use style="stroke:#000000;stroke-width:0.8;" x="466.54" xlink:href="#m57312168de" y="90.22304"/>
      </g>
     </g>
     <g id="text_22">
      <!-- 0.06 -->
      <g transform="translate(437.274375 94.022259)scale(0.1 -0.1)">
       <use xlink:href="#DejaVuSans-48"/>
       <use x="63.623047" xlink:href="#DejaVuSans-46"/>
       <use x="95.410156" xlink:href="#DejaVuSans-48"/>
       <use x="159.033203" xlink:href="#DejaVuSans-54"/>
      </g>
     </g>
    </g>
    <g id="ytick_10">
     <g id="line2d_23">
      <g>
       <use style="stroke:#000000;stroke-width:0.8;" x="466.54" xlink:href="#m57312168de" y="65.401023"/>
      </g>
     </g>
     <g id="text_23">
      <!-- 0.08 -->
      <g transform="translate(437.274375 69.200242)scale(0.1 -0.1)">
       <use xlink:href="#DejaVuSans-48"/>
       <use x="63.623047" xlink:href="#DejaVuSans-46"/>
       <use x="95.410156" xlink:href="#DejaVuSans-48"/>
       <use x="159.033203" xlink:href="#DejaVuSans-56"/>
      </g>
     </g>
    </g>
    <g id="ytick_11">
     <g id="line2d_24">
      <g>
       <use style="stroke:#000000;stroke-width:0.8;" x="466.54" xlink:href="#m57312168de" y="40.579006"/>
      </g>
     </g>
     <g id="text_24">
      <!-- 0.10 -->
      <g transform="translate(437.274375 44.378225)scale(0.1 -0.1)">
       <use xlink:href="#DejaVuSans-48"/>
       <use x="63.623047" xlink:href="#DejaVuSans-46"/>
       <use x="95.410156" xlink:href="#DejaVuSans-49"/>
       <use x="159.033203" xlink:href="#DejaVuSans-48"/>
      </g>
     </g>
    </g>
   </g>
   <g id="line2d_25">
    <path clip-path="url(#p7e160b9e01)" d="M 484.000909 40.014168 
L 487.528365 32.070909 
L 491.055822 164.689091 
L 494.583278 164.689091 
L 498.110735 164.689091 
L 501.638191 164.689091 
L 505.165647 164.689091 
L 508.693104 164.689091 
L 512.22056 164.689091 
L 515.748017 164.689091 
L 519.275473 164.689091 
L 522.802929 164.689091 
L 526.330386 164.689091 
L 529.857842 110.577716 
L 533.385298 164.689091 
L 536.912755 164.689091 
L 540.440211 164.689091 
L 543.967668 164.689091 
L 547.495124 164.689091 
L 551.02258 164.689091 
L 554.550037 164.689091 
L 558.077493 164.689091 
L 561.604949 164.689091 
L 565.132406 164.689091 
L 568.659862 164.689091 
L 572.187319 164.689091 
L 575.714775 164.689091 
L 579.242231 164.689091 
L 582.769688 105.616288 
L 586.297144 164.689091 
L 589.824601 76.475681 
L 593.352057 164.689091 
L 596.879513 57.315226 
L 600.40697 164.689091 
L 603.934426 164.689091 
L 607.461882 164.689091 
L 610.989339 164.689091 
L 614.516795 118.931723 
L 618.044252 164.689091 
L 621.571708 164.689091 
L 625.099164 164.689091 
L 628.626621 73.074504 
L 632.154077 164.689091 
L 635.681534 164.689091 
L 639.20899 164.689091 
L 642.736446 164.689091 
L 646.263903 164.689091 
L 649.791359 137.93538 
L 653.318815 164.689091 
L 656.846272 164.689091 
L 660.373728 117.23209 
L 663.901185 162.329874 
L 667.428641 164.689091 
L 670.956097 164.689091 
L 674.483554 164.689091 
L 678.01101 164.689091 
L 681.538466 164.689091 
L 685.065923 164.689091 
L 688.593379 164.689091 
L 692.120836 164.689091 
L 695.648292 164.689091 
L 699.175748 164.689091 
L 702.703205 164.689091 
L 706.230661 164.689091 
L 709.758118 164.689091 
L 713.285574 164.689091 
L 716.81303 164.689091 
L 720.340487 164.689091 
L 723.867943 164.689091 
L 727.395399 164.689091 
L 730.922856 164.689091 
L 734.450312 164.689091 
L 737.977769 164.689091 
L 741.505225 164.689091 
L 745.032681 164.689091 
L 748.560138 164.689091 
L 752.087594 111.696708 
L 755.615051 164.689091 
L 759.142507 164.689091 
L 762.669963 164.689091 
L 766.19742 164.689091 
L 769.724876 164.689091 
L 773.252332 164.689091 
L 776.779789 164.689091 
L 780.307245 164.689091 
L 783.834702 140.263697 
L 787.362158 97.154075 
L 790.889614 164.689091 
L 794.417071 164.689091 
L 797.944527 164.689091 
L 801.471983 164.689091 
L 804.99944 164.689091 
L 808.526896 52.634935 
L 812.054353 149.363964 
L 815.581809 164.689091 
L 819.109265 53.89584 
L 822.636722 164.689091 
L 826.164178 86.720009 
L 829.691635 164.689091 
L 833.219091 164.689091 
" style="fill:none;stroke:#bfbf00;stroke-linecap:square;stroke-width:1.5;"/>
   </g>
   <g id="patch_8">
    <path d="M 466.54 171.32 
L 466.54 25.44 
" style="fill:none;stroke:#000000;stroke-linecap:square;stroke-linejoin:miter;stroke-width:0.8;"/>
   </g>
   <g id="patch_9">
    <path d="M 850.68 171.32 
L 850.68 25.44 
" style="fill:none;stroke:#000000;stroke-linecap:square;stroke-linejoin:miter;stroke-width:0.8;"/>
   </g>
   <g id="patch_10">
    <path d="M 466.54 171.32 
L 850.68 171.32 
" style="fill:none;stroke:#000000;stroke-linecap:square;stroke-linejoin:miter;stroke-width:0.8;"/>
   </g>
   <g id="patch_11">
    <path d="M 466.54 25.44 
L 850.68 25.44 
" style="fill:none;stroke:#000000;stroke-linecap:square;stroke-linejoin:miter;stroke-width:0.8;"/>
   </g>
   <g id="text_25">
    <!-- Input signal 2 -->
    <g transform="translate(617.694687 19.44)scale(0.12 -0.12)">
     <use xlink:href="#DejaVuSans-73"/>
     <use x="29.492188" xlink:href="#DejaVuSans-110"/>
     <use x="92.871094" xlink:href="#DejaVuSans-112"/>
     <use x="156.347656" xlink:href="#DejaVuSans-117"/>
     <use x="219.726562" xlink:href="#DejaVuSans-116"/>
     <use x="258.935547" xlink:href="#DejaVuSans-32"/>
     <use x="290.722656" xlink:href="#DejaVuSans-115"/>
     <use x="342.822266" xlink:href="#DejaVuSans-105"/>
     <use x="370.605469" xlink:href="#DejaVuSans-103"/>
     <use x="434.082031" xlink:href="#DejaVuSans-110"/>
     <use x="497.460938" xlink:href="#DejaVuSans-97"/>
     <use x="558.740234" xlink:href="#DejaVuSans-108"/>
     <use x="586.523438" xlink:href="#DejaVuSans-32"/>
     <use x="618.310547" xlink:href="#DejaVuSans-50"/>
    </g>
   </g>
  </g>
  <g id="axes_3">
   <g id="patch_12">
    <path d="M 39.94 359.72 
L 281.88 359.72 
L 281.88 213.84 
L 39.94 213.84 
z
" style="fill:#ffffff;"/>
   </g>
   <g id="matplotlib.axis_5">
    <g id="xtick_13">
     <g id="line2d_26">
      <g>
       <use style="stroke:#000000;stroke-width:0.8;" x="50.937273" xlink:href="#m089e665c6b" y="359.72"/>
      </g>
     </g>
     <g id="text_26">
      <!-- 0 -->
      <g transform="translate(47.756023 374.318438)scale(0.1 -0.1)">
       <use xlink:href="#DejaVuSans-48"/>
      </g>
     </g>
    </g>
    <g id="xtick_14">
     <g id="line2d_27">
      <g>
       <use style="stroke:#000000;stroke-width:0.8;" x="95.370698" xlink:href="#m089e665c6b" y="359.72"/>
      </g>
     </g>
     <g id="text_27">
      <!-- 20 -->
      <g transform="translate(89.008198 374.318438)scale(0.1 -0.1)">
       <use xlink:href="#DejaVuSans-50"/>
       <use x="63.623047" xlink:href="#DejaVuSans-48"/>
      </g>
     </g>
    </g>
    <g id="xtick_15">
     <g id="line2d_28">
      <g>
       <use style="stroke:#000000;stroke-width:0.8;" x="139.804123" xlink:href="#m089e665c6b" y="359.72"/>
      </g>
     </g>
     <g id="text_28">
      <!-- 40 -->
      <g transform="translate(133.441623 374.318438)scale(0.1 -0.1)">
       <use xlink:href="#DejaVuSans-52"/>
       <use x="63.623047" xlink:href="#DejaVuSans-48"/>
      </g>
     </g>
    </g>
    <g id="xtick_16">
     <g id="line2d_29">
      <g>
       <use style="stroke:#000000;stroke-width:0.8;" x="184.237548" xlink:href="#m089e665c6b" y="359.72"/>
      </g>
     </g>
     <g id="text_29">
      <!-- 60 -->
      <g transform="translate(177.875048 374.318438)scale(0.1 -0.1)">
       <use xlink:href="#DejaVuSans-54"/>
       <use x="63.623047" xlink:href="#DejaVuSans-48"/>
      </g>
     </g>
    </g>
    <g id="xtick_17">
     <g id="line2d_30">
      <g>
       <use style="stroke:#000000;stroke-width:0.8;" x="228.670973" xlink:href="#m089e665c6b" y="359.72"/>
      </g>
     </g>
     <g id="text_30">
      <!-- 80 -->
      <g transform="translate(222.308473 374.318438)scale(0.1 -0.1)">
       <use xlink:href="#DejaVuSans-56"/>
       <use x="63.623047" xlink:href="#DejaVuSans-48"/>
      </g>
     </g>
    </g>
    <g id="xtick_18">
     <g id="line2d_31">
      <g>
       <use style="stroke:#000000;stroke-width:0.8;" x="273.104399" xlink:href="#m089e665c6b" y="359.72"/>
      </g>
     </g>
     <g id="text_31">
      <!-- 100 -->
      <g transform="translate(263.560649 374.318438)scale(0.1 -0.1)">
       <use xlink:href="#DejaVuSans-49"/>
       <use x="63.623047" xlink:href="#DejaVuSans-48"/>
       <use x="127.246094" xlink:href="#DejaVuSans-48"/>
      </g>
     </g>
    </g>
   </g>
   <g id="matplotlib.axis_6">
    <g id="ytick_12">
     <g id="line2d_32">
      <g>
       <use style="stroke:#000000;stroke-width:0.8;" x="39.94" xlink:href="#m57312168de" y="353.089091"/>
      </g>
     </g>
     <g id="text_32">
      <!-- 0.00 -->
      <g transform="translate(10.674375 356.88831)scale(0.1 -0.1)">
       <use xlink:href="#DejaVuSans-48"/>
       <use x="63.623047" xlink:href="#DejaVuSans-46"/>
       <use x="95.410156" xlink:href="#DejaVuSans-48"/>
       <use x="159.033203" xlink:href="#DejaVuSans-48"/>
      </g>
     </g>
    </g>
    <g id="ytick_13">
     <g id="line2d_33">
      <g>
       <use style="stroke:#000000;stroke-width:0.8;" x="39.94" xlink:href="#m57312168de" y="324.901304"/>
      </g>
     </g>
     <g id="text_33">
      <!-- 0.02 -->
      <g transform="translate(10.674375 328.700523)scale(0.1 -0.1)">
       <use xlink:href="#DejaVuSans-48"/>
       <use x="63.623047" xlink:href="#DejaVuSans-46"/>
       <use x="95.410156" xlink:href="#DejaVuSans-48"/>
       <use x="159.033203" xlink:href="#DejaVuSans-50"/>
      </g>
     </g>
    </g>
    <g id="ytick_14">
     <g id="line2d_34">
      <g>
       <use style="stroke:#000000;stroke-width:0.8;" x="39.94" xlink:href="#m57312168de" y="296.713517"/>
      </g>
     </g>
     <g id="text_34">
      <!-- 0.04 -->
      <g transform="translate(10.674375 300.512736)scale(0.1 -0.1)">
       <use xlink:href="#DejaVuSans-48"/>
       <use x="63.623047" xlink:href="#DejaVuSans-46"/>
       <use x="95.410156" xlink:href="#DejaVuSans-48"/>
       <use x="159.033203" xlink:href="#DejaVuSans-52"/>
      </g>
     </g>
    </g>
    <g id="ytick_15">
     <g id="line2d_35">
      <g>
       <use style="stroke:#000000;stroke-width:0.8;" x="39.94" xlink:href="#m57312168de" y="268.525731"/>
      </g>
     </g>
     <g id="text_35">
      <!-- 0.06 -->
      <g transform="translate(10.674375 272.324949)scale(0.1 -0.1)">
       <use xlink:href="#DejaVuSans-48"/>
       <use x="63.623047" xlink:href="#DejaVuSans-46"/>
       <use x="95.410156" xlink:href="#DejaVuSans-48"/>
       <use x="159.033203" xlink:href="#DejaVuSans-54"/>
      </g>
     </g>
    </g>
    <g id="ytick_16">
     <g id="line2d_36">
      <g>
       <use style="stroke:#000000;stroke-width:0.8;" x="39.94" xlink:href="#m57312168de" y="240.337944"/>
      </g>
     </g>
     <g id="text_36">
      <!-- 0.08 -->
      <g transform="translate(10.674375 244.137162)scale(0.1 -0.1)">
       <use xlink:href="#DejaVuSans-48"/>
       <use x="63.623047" xlink:href="#DejaVuSans-46"/>
       <use x="95.410156" xlink:href="#DejaVuSans-48"/>
       <use x="159.033203" xlink:href="#DejaVuSans-56"/>
      </g>
     </g>
    </g>
   </g>
   <g id="line2d_37">
    <path clip-path="url(#p18ddce9077)" d="M 50.937273 353.089091 
L 53.158944 353.089091 
L 55.380615 336.659176 
L 57.602287 353.089091 
L 59.823958 353.089091 
L 62.045629 353.089091 
L 64.2673 322.648764 
L 66.488972 353.089091 
L 68.710643 292.061857 
L 70.932314 326.347914 
L 73.153985 353.089091 
L 75.375657 353.089091 
L 77.597328 353.089091 
L 79.818999 353.089091 
L 82.04067 353.089091 
L 84.262342 353.089091 
L 86.484013 250.397204 
L 88.705684 353.089091 
L 90.927355 353.089091 
L 93.149027 353.089091 
L 95.370698 251.251725 
L 97.592369 313.839089 
L 99.81404 353.089091 
L 102.035712 353.089091 
L 104.257383 353.089091 
L 106.479054 316.268975 
L 108.700725 353.089091 
L 110.922397 301.07501 
L 113.144068 353.089091 
L 115.365739 353.089091 
L 117.58741 353.089091 
L 119.809082 353.089091 
L 122.030753 353.089091 
L 124.252424 302.836411 
L 126.474096 353.089091 
L 128.695767 353.089091 
L 130.917438 353.089091 
L 133.139109 353.089091 
L 135.360781 353.089091 
L 137.582452 329.243584 
L 139.804123 353.089091 
L 142.025794 353.089091 
L 144.247466 353.089091 
L 146.469137 353.089091 
L 148.690808 353.089091 
L 150.912479 295.250059 
L 153.134151 353.089091 
L 155.355822 353.089091 
L 157.577493 353.089091 
L 159.799164 276.376922 
L 162.020836 353.089091 
L 164.242507 353.089091 
L 166.464178 353.089091 
L 168.685849 315.922906 
L 170.907521 353.089091 
L 173.129192 353.089091 
L 175.350863 353.089091 
L 177.572534 353.089091 
L 179.794206 331.63042 
L 182.015877 353.089091 
L 184.237548 307.925147 
L 186.459219 353.089091 
L 188.680891 353.089091 
L 190.902562 353.089091 
L 193.124233 353.089091 
L 195.345904 353.089091 
L 197.567576 353.089091 
L 199.789247 353.089091 
L 202.010918 353.089091 
L 204.23259 353.089091 
L 206.454261 353.089091 
L 208.675932 353.089091 
L 210.897603 282.96452 
L 213.119275 353.089091 
L 215.340946 353.089091 
L 217.562617 353.089091 
L 219.784288 353.089091 
L 222.00596 289.99615 
L 224.227631 353.089091 
L 226.449302 324.153766 
L 228.670973 353.089091 
L 230.892645 353.089091 
L 233.114316 353.089091 
L 235.335987 353.089091 
L 237.557658 323.247006 
L 239.77933 353.089091 
L 242.001001 353.089091 
L 244.222672 353.089091 
L 246.444343 220.470909 
L 248.666015 277.393026 
L 250.887686 353.089091 
L 253.109357 227.360983 
L 255.331028 353.089091 
L 257.5527 353.089091 
L 259.774371 353.089091 
L 261.996042 353.089091 
L 264.217713 249.427321 
L 266.439385 353.089091 
L 268.661056 353.089091 
L 270.882727 353.089091 
" style="fill:none;stroke:#bfbf00;stroke-linecap:square;stroke-width:1.5;"/>
   </g>
   <g id="patch_13">
    <path d="M 39.94 359.72 
L 39.94 213.84 
" style="fill:none;stroke:#000000;stroke-linecap:square;stroke-linejoin:miter;stroke-width:0.8;"/>
   </g>
   <g id="patch_14">
    <path d="M 281.88 359.72 
L 281.88 213.84 
" style="fill:none;stroke:#000000;stroke-linecap:square;stroke-linejoin:miter;stroke-width:0.8;"/>
   </g>
   <g id="patch_15">
    <path d="M 39.94 359.72 
L 281.88 359.72 
" style="fill:none;stroke:#000000;stroke-linecap:square;stroke-linejoin:miter;stroke-width:0.8;"/>
   </g>
   <g id="patch_16">
    <path d="M 39.94 213.84 
L 281.88 213.84 
" style="fill:none;stroke:#000000;stroke-linecap:square;stroke-linejoin:miter;stroke-width:0.8;"/>
   </g>
   <g id="text_37">
    <!-- Input signal 3 -->
    <defs>
     <path d="M 40.578125 39.3125 
Q 47.65625 37.796875 51.625 33 
Q 55.609375 28.21875 55.609375 21.1875 
Q 55.609375 10.40625 48.1875 4.484375 
Q 40.765625 -1.421875 27.09375 -1.421875 
Q 22.515625 -1.421875 17.65625 -0.515625 
Q 12.796875 0.390625 7.625 2.203125 
L 7.625 11.71875 
Q 11.71875 9.328125 16.59375 8.109375 
Q 21.484375 6.890625 26.8125 6.890625 
Q 36.078125 6.890625 40.9375 10.546875 
Q 45.796875 14.203125 45.796875 21.1875 
Q 45.796875 27.640625 41.28125 31.265625 
Q 36.765625 34.90625 28.71875 34.90625 
L 20.21875 34.90625 
L 20.21875 43.015625 
L 29.109375 43.015625 
Q 36.375 43.015625 40.234375 45.921875 
Q 44.09375 48.828125 44.09375 54.296875 
Q 44.09375 59.90625 40.109375 62.90625 
Q 36.140625 65.921875 28.71875 65.921875 
Q 24.65625 65.921875 20.015625 65.03125 
Q 15.375 64.15625 9.8125 62.3125 
L 9.8125 71.09375 
Q 15.4375 72.65625 20.34375 73.4375 
Q 25.25 74.21875 29.59375 74.21875 
Q 40.828125 74.21875 47.359375 69.109375 
Q 53.90625 64.015625 53.90625 55.328125 
Q 53.90625 49.265625 50.4375 45.09375 
Q 46.96875 40.921875 40.578125 39.3125 
z
" id="DejaVuSans-51"/>
    </defs>
    <g transform="translate(119.994687 207.84)scale(0.12 -0.12)">
     <use xlink:href="#DejaVuSans-73"/>
     <use x="29.492188" xlink:href="#DejaVuSans-110"/>
     <use x="92.871094" xlink:href="#DejaVuSans-112"/>
     <use x="156.347656" xlink:href="#DejaVuSans-117"/>
     <use x="219.726562" xlink:href="#DejaVuSans-116"/>
     <use x="258.935547" xlink:href="#DejaVuSans-32"/>
     <use x="290.722656" xlink:href="#DejaVuSans-115"/>
     <use x="342.822266" xlink:href="#DejaVuSans-105"/>
     <use x="370.605469" xlink:href="#DejaVuSans-103"/>
     <use x="434.082031" xlink:href="#DejaVuSans-110"/>
     <use x="497.460938" xlink:href="#DejaVuSans-97"/>
     <use x="558.740234" xlink:href="#DejaVuSans-108"/>
     <use x="586.523438" xlink:href="#DejaVuSans-32"/>
     <use x="618.310547" xlink:href="#DejaVuSans-51"/>
    </g>
   </g>
  </g>
  <g id="axes_4">
   <g id="patch_17">
    <path d="M 324.34 359.72 
L 566.28 359.72 
L 566.28 213.84 
L 324.34 213.84 
z
" style="fill:#ffffff;"/>
   </g>
   <g id="matplotlib.axis_7">
    <g id="xtick_19">
     <g id="line2d_38">
      <g>
       <use style="stroke:#000000;stroke-width:0.8;" x="335.337273" xlink:href="#m089e665c6b" y="359.72"/>
      </g>
     </g>
     <g id="text_38">
      <!-- 0 -->
      <g transform="translate(332.156023 374.318438)scale(0.1 -0.1)">
       <use xlink:href="#DejaVuSans-48"/>
      </g>
     </g>
    </g>
    <g id="xtick_20">
     <g id="line2d_39">
      <g>
       <use style="stroke:#000000;stroke-width:0.8;" x="379.770698" xlink:href="#m089e665c6b" y="359.72"/>
      </g>
     </g>
     <g id="text_39">
      <!-- 20 -->
      <g transform="translate(373.408198 374.318438)scale(0.1 -0.1)">
       <use xlink:href="#DejaVuSans-50"/>
       <use x="63.623047" xlink:href="#DejaVuSans-48"/>
      </g>
     </g>
    </g>
    <g id="xtick_21">
     <g id="line2d_40">
      <g>
       <use style="stroke:#000000;stroke-width:0.8;" x="424.204123" xlink:href="#m089e665c6b" y="359.72"/>
      </g>
     </g>
     <g id="text_40">
      <!-- 40 -->
      <g transform="translate(417.841623 374.318438)scale(0.1 -0.1)">
       <use xlink:href="#DejaVuSans-52"/>
       <use x="63.623047" xlink:href="#DejaVuSans-48"/>
      </g>
     </g>
    </g>
    <g id="xtick_22">
     <g id="line2d_41">
      <g>
       <use style="stroke:#000000;stroke-width:0.8;" x="468.637548" xlink:href="#m089e665c6b" y="359.72"/>
      </g>
     </g>
     <g id="text_41">
      <!-- 60 -->
      <g transform="translate(462.275048 374.318438)scale(0.1 -0.1)">
       <use xlink:href="#DejaVuSans-54"/>
       <use x="63.623047" xlink:href="#DejaVuSans-48"/>
      </g>
     </g>
    </g>
    <g id="xtick_23">
     <g id="line2d_42">
      <g>
       <use style="stroke:#000000;stroke-width:0.8;" x="513.070973" xlink:href="#m089e665c6b" y="359.72"/>
      </g>
     </g>
     <g id="text_42">
      <!-- 80 -->
      <g transform="translate(506.708473 374.318438)scale(0.1 -0.1)">
       <use xlink:href="#DejaVuSans-56"/>
       <use x="63.623047" xlink:href="#DejaVuSans-48"/>
      </g>
     </g>
    </g>
    <g id="xtick_24">
     <g id="line2d_43">
      <g>
       <use style="stroke:#000000;stroke-width:0.8;" x="557.504399" xlink:href="#m089e665c6b" y="359.72"/>
      </g>
     </g>
     <g id="text_43">
      <!-- 100 -->
      <g transform="translate(547.960649 374.318438)scale(0.1 -0.1)">
       <use xlink:href="#DejaVuSans-49"/>
       <use x="63.623047" xlink:href="#DejaVuSans-48"/>
       <use x="127.246094" xlink:href="#DejaVuSans-48"/>
      </g>
     </g>
    </g>
   </g>
   <g id="matplotlib.axis_8">
    <g id="ytick_17">
     <g id="line2d_44">
      <g>
       <use style="stroke:#000000;stroke-width:0.8;" x="324.34" xlink:href="#m57312168de" y="353.089091"/>
      </g>
     </g>
     <g id="text_44">
      <!-- 0.000 -->
      <g transform="translate(288.711875 356.88831)scale(0.1 -0.1)">
       <use xlink:href="#DejaVuSans-48"/>
       <use x="63.623047" xlink:href="#DejaVuSans-46"/>
       <use x="95.410156" xlink:href="#DejaVuSans-48"/>
       <use x="159.033203" xlink:href="#DejaVuSans-48"/>
       <use x="222.65625" xlink:href="#DejaVuSans-48"/>
      </g>
     </g>
    </g>
    <g id="ytick_18">
     <g id="line2d_45">
      <g>
       <use style="stroke:#000000;stroke-width:0.8;" x="324.34" xlink:href="#m57312168de" y="329.030184"/>
      </g>
     </g>
     <g id="text_45">
      <!-- 0.025 -->
      <defs>
       <path d="M 10.796875 72.90625 
L 49.515625 72.90625 
L 49.515625 64.59375 
L 19.828125 64.59375 
L 19.828125 46.734375 
Q 21.96875 47.46875 24.109375 47.828125 
Q 26.265625 48.1875 28.421875 48.1875 
Q 40.625 48.1875 47.75 41.5 
Q 54.890625 34.8125 54.890625 23.390625 
Q 54.890625 11.625 47.5625 5.09375 
Q 40.234375 -1.421875 26.90625 -1.421875 
Q 22.3125 -1.421875 17.546875 -0.640625 
Q 12.796875 0.140625 7.71875 1.703125 
L 7.71875 11.625 
Q 12.109375 9.234375 16.796875 8.0625 
Q 21.484375 6.890625 26.703125 6.890625 
Q 35.15625 6.890625 40.078125 11.328125 
Q 45.015625 15.765625 45.015625 23.390625 
Q 45.015625 31 40.078125 35.4375 
Q 35.15625 39.890625 26.703125 39.890625 
Q 22.75 39.890625 18.8125 39.015625 
Q 14.890625 38.140625 10.796875 36.28125 
z
" id="DejaVuSans-53"/>
      </defs>
      <g transform="translate(288.711875 332.829403)scale(0.1 -0.1)">
       <use xlink:href="#DejaVuSans-48"/>
       <use x="63.623047" xlink:href="#DejaVuSans-46"/>
       <use x="95.410156" xlink:href="#DejaVuSans-48"/>
       <use x="159.033203" xlink:href="#DejaVuSans-50"/>
       <use x="222.65625" xlink:href="#DejaVuSans-53"/>
      </g>
     </g>
    </g>
    <g id="ytick_19">
     <g id="line2d_46">
      <g>
       <use style="stroke:#000000;stroke-width:0.8;" x="324.34" xlink:href="#m57312168de" y="304.971277"/>
      </g>
     </g>
     <g id="text_46">
      <!-- 0.050 -->
      <g transform="translate(288.711875 308.770496)scale(0.1 -0.1)">
       <use xlink:href="#DejaVuSans-48"/>
       <use x="63.623047" xlink:href="#DejaVuSans-46"/>
       <use x="95.410156" xlink:href="#DejaVuSans-48"/>
       <use x="159.033203" xlink:href="#DejaVuSans-53"/>
       <use x="222.65625" xlink:href="#DejaVuSans-48"/>
      </g>
     </g>
    </g>
    <g id="ytick_20">
     <g id="line2d_47">
      <g>
       <use style="stroke:#000000;stroke-width:0.8;" x="324.34" xlink:href="#m57312168de" y="280.91237"/>
      </g>
     </g>
     <g id="text_47">
      <!-- 0.075 -->
      <defs>
       <path d="M 8.203125 72.90625 
L 55.078125 72.90625 
L 55.078125 68.703125 
L 28.609375 0 
L 18.3125 0 
L 43.21875 64.59375 
L 8.203125 64.59375 
z
" id="DejaVuSans-55"/>
      </defs>
      <g transform="translate(288.711875 284.711589)scale(0.1 -0.1)">
       <use xlink:href="#DejaVuSans-48"/>
       <use x="63.623047" xlink:href="#DejaVuSans-46"/>
       <use x="95.410156" xlink:href="#DejaVuSans-48"/>
       <use x="159.033203" xlink:href="#DejaVuSans-55"/>
       <use x="222.65625" xlink:href="#DejaVuSans-53"/>
      </g>
     </g>
    </g>
    <g id="ytick_21">
     <g id="line2d_48">
      <g>
       <use style="stroke:#000000;stroke-width:0.8;" x="324.34" xlink:href="#m57312168de" y="256.853463"/>
      </g>
     </g>
     <g id="text_48">
      <!-- 0.100 -->
      <g transform="translate(288.711875 260.652682)scale(0.1 -0.1)">
       <use xlink:href="#DejaVuSans-48"/>
       <use x="63.623047" xlink:href="#DejaVuSans-46"/>
       <use x="95.410156" xlink:href="#DejaVuSans-49"/>
       <use x="159.033203" xlink:href="#DejaVuSans-48"/>
       <use x="222.65625" xlink:href="#DejaVuSans-48"/>
      </g>
     </g>
    </g>
    <g id="ytick_22">
     <g id="line2d_49">
      <g>
       <use style="stroke:#000000;stroke-width:0.8;" x="324.34" xlink:href="#m57312168de" y="232.794556"/>
      </g>
     </g>
     <g id="text_49">
      <!-- 0.125 -->
      <g transform="translate(288.711875 236.593775)scale(0.1 -0.1)">
       <use xlink:href="#DejaVuSans-48"/>
       <use x="63.623047" xlink:href="#DejaVuSans-46"/>
       <use x="95.410156" xlink:href="#DejaVuSans-49"/>
       <use x="159.033203" xlink:href="#DejaVuSans-50"/>
       <use x="222.65625" xlink:href="#DejaVuSans-53"/>
      </g>
     </g>
    </g>
   </g>
   <g id="line2d_50">
    <path clip-path="url(#p94d3999f72)" d="M 335.337273 353.089091 
L 337.558944 353.089091 
L 339.780615 353.089091 
L 342.002287 353.089091 
L 344.223958 353.089091 
L 346.445629 353.089091 
L 348.6673 353.089091 
L 350.888972 220.470909 
L 353.110643 353.089091 
L 355.332314 353.089091 
L 357.553985 275.806131 
L 359.775657 353.089091 
L 361.997328 353.089091 
L 364.218999 353.089091 
L 366.44067 251.264515 
L 368.662342 298.927471 
L 370.884013 353.089091 
L 373.105684 353.089091 
L 375.327355 353.089091 
L 377.549027 353.089091 
L 379.770698 353.089091 
L 381.992369 353.089091 
L 384.21404 353.089091 
L 386.435712 327.395056 
L 388.657383 255.96188 
L 390.879054 353.089091 
L 393.100725 353.089091 
L 395.322397 353.089091 
L 397.544068 353.089091 
L 399.765739 353.089091 
L 401.98741 353.089091 
L 404.209082 353.089091 
L 406.430753 353.089091 
L 408.652424 353.089091 
L 410.874096 353.089091 
L 413.095767 353.089091 
L 415.317438 353.089091 
L 417.539109 353.089091 
L 419.760781 353.089091 
L 421.982452 353.089091 
L 424.204123 353.089091 
L 426.425794 353.089091 
L 428.647466 353.089091 
L 430.869137 353.089091 
L 433.090808 244.966143 
L 435.312479 353.089091 
L 437.534151 342.125354 
L 439.755822 353.089091 
L 441.977493 257.393453 
L 444.199164 353.089091 
L 446.420836 353.089091 
L 448.642507 353.089091 
L 450.864178 309.855292 
L 453.085849 353.089091 
L 455.307521 353.089091 
L 457.529192 353.089091 
L 459.750863 353.089091 
L 461.972534 353.089091 
L 464.194206 353.089091 
L 466.415877 353.089091 
L 468.637548 353.089091 
L 470.859219 353.089091 
L 473.080891 353.089091 
L 475.302562 353.089091 
L 477.524233 339.22224 
L 479.745904 353.089091 
L 481.967576 353.089091 
L 484.189247 353.089091 
L 486.410918 353.089091 
L 488.63259 353.089091 
L 490.854261 351.066129 
L 493.075932 353.089091 
L 495.297603 353.089091 
L 497.519275 353.089091 
L 499.740946 276.900765 
L 501.962617 353.089091 
L 504.184288 353.089091 
L 506.40596 353.089091 
L 508.627631 353.089091 
L 510.849302 353.089091 
L 513.070973 353.089091 
L 515.292645 353.089091 
L 517.514316 353.089091 
L 519.735987 353.089091 
L 521.957658 353.089091 
L 524.17933 353.089091 
L 526.401001 353.089091 
L 528.622672 353.089091 
L 530.844343 353.089091 
L 533.066015 353.089091 
L 535.287686 353.089091 
L 537.509357 353.089091 
L 539.731028 353.089091 
L 541.9527 353.089091 
L 544.174371 353.089091 
L 546.396042 353.089091 
L 548.617713 353.089091 
L 550.839385 353.089091 
L 553.061056 229.535657 
L 555.282727 353.089091 
" style="fill:none;stroke:#bfbf00;stroke-linecap:square;stroke-width:1.5;"/>
   </g>
   <g id="patch_18">
    <path d="M 324.34 359.72 
L 324.34 213.84 
" style="fill:none;stroke:#000000;stroke-linecap:square;stroke-linejoin:miter;stroke-width:0.8;"/>
   </g>
   <g id="patch_19">
    <path d="M 566.28 359.72 
L 566.28 213.84 
" style="fill:none;stroke:#000000;stroke-linecap:square;stroke-linejoin:miter;stroke-width:0.8;"/>
   </g>
   <g id="patch_20">
    <path d="M 324.34 359.72 
L 566.28 359.72 
" style="fill:none;stroke:#000000;stroke-linecap:square;stroke-linejoin:miter;stroke-width:0.8;"/>
   </g>
   <g id="patch_21">
    <path d="M 324.34 213.84 
L 566.28 213.84 
" style="fill:none;stroke:#000000;stroke-linecap:square;stroke-linejoin:miter;stroke-width:0.8;"/>
   </g>
   <g id="text_50">
    <!-- Input signal 4 -->
    <g transform="translate(404.394687 207.84)scale(0.12 -0.12)">
     <use xlink:href="#DejaVuSans-73"/>
     <use x="29.492188" xlink:href="#DejaVuSans-110"/>
     <use x="92.871094" xlink:href="#DejaVuSans-112"/>
     <use x="156.347656" xlink:href="#DejaVuSans-117"/>
     <use x="219.726562" xlink:href="#DejaVuSans-116"/>
     <use x="258.935547" xlink:href="#DejaVuSans-32"/>
     <use x="290.722656" xlink:href="#DejaVuSans-115"/>
     <use x="342.822266" xlink:href="#DejaVuSans-105"/>
     <use x="370.605469" xlink:href="#DejaVuSans-103"/>
     <use x="434.082031" xlink:href="#DejaVuSans-110"/>
     <use x="497.460938" xlink:href="#DejaVuSans-97"/>
     <use x="558.740234" xlink:href="#DejaVuSans-108"/>
     <use x="586.523438" xlink:href="#DejaVuSans-32"/>
     <use x="618.310547" xlink:href="#DejaVuSans-52"/>
    </g>
   </g>
  </g>
  <g id="axes_5">
   <g id="patch_22">
    <path d="M 608.74 359.72 
L 850.68 359.72 
L 850.68 213.84 
L 608.74 213.84 
z
" style="fill:#ffffff;"/>
   </g>
   <g id="matplotlib.axis_9">
    <g id="xtick_25">
     <g id="line2d_51">
      <g>
       <use style="stroke:#000000;stroke-width:0.8;" x="619.737273" xlink:href="#m089e665c6b" y="359.72"/>
      </g>
     </g>
     <g id="text_51">
      <!-- 0 -->
      <g transform="translate(616.556023 374.318438)scale(0.1 -0.1)">
       <use xlink:href="#DejaVuSans-48"/>
      </g>
     </g>
    </g>
    <g id="xtick_26">
     <g id="line2d_52">
      <g>
       <use style="stroke:#000000;stroke-width:0.8;" x="664.170698" xlink:href="#m089e665c6b" y="359.72"/>
      </g>
     </g>
     <g id="text_52">
      <!-- 20 -->
      <g transform="translate(657.808198 374.318438)scale(0.1 -0.1)">
       <use xlink:href="#DejaVuSans-50"/>
       <use x="63.623047" xlink:href="#DejaVuSans-48"/>
      </g>
     </g>
    </g>
    <g id="xtick_27">
     <g id="line2d_53">
      <g>
       <use style="stroke:#000000;stroke-width:0.8;" x="708.604123" xlink:href="#m089e665c6b" y="359.72"/>
      </g>
     </g>
     <g id="text_53">
      <!-- 40 -->
      <g transform="translate(702.241623 374.318438)scale(0.1 -0.1)">
       <use xlink:href="#DejaVuSans-52"/>
       <use x="63.623047" xlink:href="#DejaVuSans-48"/>
      </g>
     </g>
    </g>
    <g id="xtick_28">
     <g id="line2d_54">
      <g>
       <use style="stroke:#000000;stroke-width:0.8;" x="753.037548" xlink:href="#m089e665c6b" y="359.72"/>
      </g>
     </g>
     <g id="text_54">
      <!-- 60 -->
      <g transform="translate(746.675048 374.318438)scale(0.1 -0.1)">
       <use xlink:href="#DejaVuSans-54"/>
       <use x="63.623047" xlink:href="#DejaVuSans-48"/>
      </g>
     </g>
    </g>
    <g id="xtick_29">
     <g id="line2d_55">
      <g>
       <use style="stroke:#000000;stroke-width:0.8;" x="797.470973" xlink:href="#m089e665c6b" y="359.72"/>
      </g>
     </g>
     <g id="text_55">
      <!-- 80 -->
      <g transform="translate(791.108473 374.318438)scale(0.1 -0.1)">
       <use xlink:href="#DejaVuSans-56"/>
       <use x="63.623047" xlink:href="#DejaVuSans-48"/>
      </g>
     </g>
    </g>
    <g id="xtick_30">
     <g id="line2d_56">
      <g>
       <use style="stroke:#000000;stroke-width:0.8;" x="841.904399" xlink:href="#m089e665c6b" y="359.72"/>
      </g>
     </g>
     <g id="text_56">
      <!-- 100 -->
      <g transform="translate(832.360649 374.318438)scale(0.1 -0.1)">
       <use xlink:href="#DejaVuSans-49"/>
       <use x="63.623047" xlink:href="#DejaVuSans-48"/>
       <use x="127.246094" xlink:href="#DejaVuSans-48"/>
      </g>
     </g>
    </g>
   </g>
   <g id="matplotlib.axis_10">
    <g id="ytick_23">
     <g id="line2d_57">
      <g>
       <use style="stroke:#000000;stroke-width:0.8;" x="608.74" xlink:href="#m57312168de" y="353.089091"/>
      </g>
     </g>
     <g id="text_57">
      <!-- 0.00 -->
      <g transform="translate(579.474375 356.88831)scale(0.1 -0.1)">
       <use xlink:href="#DejaVuSans-48"/>
       <use x="63.623047" xlink:href="#DejaVuSans-46"/>
       <use x="95.410156" xlink:href="#DejaVuSans-48"/>
       <use x="159.033203" xlink:href="#DejaVuSans-48"/>
      </g>
     </g>
    </g>
    <g id="ytick_24">
     <g id="line2d_58">
      <g>
       <use style="stroke:#000000;stroke-width:0.8;" x="608.74" xlink:href="#m57312168de" y="321.939692"/>
      </g>
     </g>
     <g id="text_58">
      <!-- 0.02 -->
      <g transform="translate(579.474375 325.738911)scale(0.1 -0.1)">
       <use xlink:href="#DejaVuSans-48"/>
       <use x="63.623047" xlink:href="#DejaVuSans-46"/>
       <use x="95.410156" xlink:href="#DejaVuSans-48"/>
       <use x="159.033203" xlink:href="#DejaVuSans-50"/>
      </g>
     </g>
    </g>
    <g id="ytick_25">
     <g id="line2d_59">
      <g>
       <use style="stroke:#000000;stroke-width:0.8;" x="608.74" xlink:href="#m57312168de" y="290.790294"/>
      </g>
     </g>
     <g id="text_59">
      <!-- 0.04 -->
      <g transform="translate(579.474375 294.589513)scale(0.1 -0.1)">
       <use xlink:href="#DejaVuSans-48"/>
       <use x="63.623047" xlink:href="#DejaVuSans-46"/>
       <use x="95.410156" xlink:href="#DejaVuSans-48"/>
       <use x="159.033203" xlink:href="#DejaVuSans-52"/>
      </g>
     </g>
    </g>
    <g id="ytick_26">
     <g id="line2d_60">
      <g>
       <use style="stroke:#000000;stroke-width:0.8;" x="608.74" xlink:href="#m57312168de" y="259.640896"/>
      </g>
     </g>
     <g id="text_60">
      <!-- 0.06 -->
      <g transform="translate(579.474375 263.440114)scale(0.1 -0.1)">
       <use xlink:href="#DejaVuSans-48"/>
       <use x="63.623047" xlink:href="#DejaVuSans-46"/>
       <use x="95.410156" xlink:href="#DejaVuSans-48"/>
       <use x="159.033203" xlink:href="#DejaVuSans-54"/>
      </g>
     </g>
    </g>
    <g id="ytick_27">
     <g id="line2d_61">
      <g>
       <use style="stroke:#000000;stroke-width:0.8;" x="608.74" xlink:href="#m57312168de" y="228.491497"/>
      </g>
     </g>
     <g id="text_61">
      <!-- 0.08 -->
      <g transform="translate(579.474375 232.290716)scale(0.1 -0.1)">
       <use xlink:href="#DejaVuSans-48"/>
       <use x="63.623047" xlink:href="#DejaVuSans-46"/>
       <use x="95.410156" xlink:href="#DejaVuSans-48"/>
       <use x="159.033203" xlink:href="#DejaVuSans-56"/>
      </g>
     </g>
    </g>
   </g>
   <g id="line2d_62">
    <path clip-path="url(#pe9bf108484)" d="M 619.737273 353.089091 
L 621.958944 353.089091 
L 624.180615 353.089091 
L 626.402287 353.089091 
L 628.623958 258.541706 
L 630.845629 353.089091 
L 633.0673 353.089091 
L 635.288972 353.089091 
L 637.510643 353.089091 
L 639.732314 353.089091 
L 641.953985 353.089091 
L 644.175657 220.470909 
L 646.397328 353.089091 
L 648.618999 353.089091 
L 650.84067 353.089091 
L 653.062342 353.089091 
L 655.284013 353.089091 
L 657.505684 340.934152 
L 659.727355 294.425133 
L 661.949027 282.408932 
L 664.170698 353.089091 
L 666.392369 353.089091 
L 668.61404 353.089091 
L 670.835712 353.089091 
L 673.057383 353.089091 
L 675.279054 353.089091 
L 677.500725 306.864576 
L 679.722397 353.089091 
L 681.944068 353.089091 
L 684.165739 353.089091 
L 686.38741 353.089091 
L 688.609082 353.089091 
L 690.830753 353.089091 
L 693.052424 353.089091 
L 695.274096 286.639772 
L 697.495767 353.089091 
L 699.717438 291.160759 
L 701.939109 353.089091 
L 704.160781 288.827907 
L 706.382452 353.089091 
L 708.604123 353.089091 
L 710.825794 353.089091 
L 713.047466 223.427147 
L 715.269137 353.089091 
L 717.490808 353.089091 
L 719.712479 353.089091 
L 721.934151 353.089091 
L 724.155822 353.089091 
L 726.377493 353.089091 
L 728.599164 353.089091 
L 730.820836 353.089091 
L 733.042507 353.089091 
L 735.264178 353.089091 
L 737.485849 353.089091 
L 739.707521 353.089091 
L 741.929192 353.089091 
L 744.150863 353.089091 
L 746.372534 353.089091 
L 748.594206 353.089091 
L 750.815877 353.089091 
L 753.037548 353.089091 
L 755.259219 327.734323 
L 757.480891 353.089091 
L 759.702562 222.635129 
L 761.924233 353.089091 
L 764.145904 353.089091 
L 766.367576 353.089091 
L 768.589247 320.88364 
L 770.810918 353.089091 
L 773.03259 326.785449 
L 775.254261 353.089091 
L 777.475932 341.164459 
L 779.697603 353.089091 
L 781.919275 294.973636 
L 784.140946 353.089091 
L 786.362617 256.818585 
L 788.584288 353.089091 
L 790.80596 353.089091 
L 793.027631 321.047119 
L 795.249302 353.089091 
L 797.470973 267.042004 
L 799.692645 353.089091 
L 801.914316 295.463767 
L 804.135987 353.089091 
L 806.357658 353.089091 
L 808.57933 353.089091 
L 810.801001 353.089091 
L 813.022672 335.354293 
L 815.244343 353.089091 
L 817.466015 353.089091 
L 819.687686 223.631637 
L 821.909357 353.089091 
L 824.131028 353.089091 
L 826.3527 353.089091 
L 828.574371 353.089091 
L 830.796042 353.089091 
L 833.017713 353.089091 
L 835.239385 353.089091 
L 837.461056 353.089091 
L 839.682727 236.344137 
" style="fill:none;stroke:#bfbf00;stroke-linecap:square;stroke-width:1.5;"/>
   </g>
   <g id="patch_23">
    <path d="M 608.74 359.72 
L 608.74 213.84 
" style="fill:none;stroke:#000000;stroke-linecap:square;stroke-linejoin:miter;stroke-width:0.8;"/>
   </g>
   <g id="patch_24">
    <path d="M 850.68 359.72 
L 850.68 213.84 
" style="fill:none;stroke:#000000;stroke-linecap:square;stroke-linejoin:miter;stroke-width:0.8;"/>
   </g>
   <g id="patch_25">
    <path d="M 608.74 359.72 
L 850.68 359.72 
" style="fill:none;stroke:#000000;stroke-linecap:square;stroke-linejoin:miter;stroke-width:0.8;"/>
   </g>
   <g id="patch_26">
    <path d="M 608.74 213.84 
L 850.68 213.84 
" style="fill:none;stroke:#000000;stroke-linecap:square;stroke-linejoin:miter;stroke-width:0.8;"/>
   </g>
   <g id="text_62">
    <!-- Input signal 5 -->
    <g transform="translate(688.794687 207.84)scale(0.12 -0.12)">
     <use xlink:href="#DejaVuSans-73"/>
     <use x="29.492188" xlink:href="#DejaVuSans-110"/>
     <use x="92.871094" xlink:href="#DejaVuSans-112"/>
     <use x="156.347656" xlink:href="#DejaVuSans-117"/>
     <use x="219.726562" xlink:href="#DejaVuSans-116"/>
     <use x="258.935547" xlink:href="#DejaVuSans-32"/>
     <use x="290.722656" xlink:href="#DejaVuSans-115"/>
     <use x="342.822266" xlink:href="#DejaVuSans-105"/>
     <use x="370.605469" xlink:href="#DejaVuSans-103"/>
     <use x="434.082031" xlink:href="#DejaVuSans-110"/>
     <use x="497.460938" xlink:href="#DejaVuSans-97"/>
     <use x="558.740234" xlink:href="#DejaVuSans-108"/>
     <use x="586.523438" xlink:href="#DejaVuSans-32"/>
     <use x="618.310547" xlink:href="#DejaVuSans-53"/>
    </g>
   </g>
  </g>
  <g id="axes_6">
   <g id="patch_27">
    <path d="M 39.94 548.12 
L 281.88 548.12 
L 281.88 402.24 
L 39.94 402.24 
z
" style="fill:#ffffff;"/>
   </g>
   <g id="matplotlib.axis_11">
    <g id="xtick_31">
     <g id="line2d_63">
      <g>
       <use style="stroke:#000000;stroke-width:0.8;" x="50.937273" xlink:href="#m089e665c6b" y="548.12"/>
      </g>
     </g>
     <g id="text_63">
      <!-- 0 -->
      <g transform="translate(47.756023 562.718438)scale(0.1 -0.1)">
       <use xlink:href="#DejaVuSans-48"/>
      </g>
     </g>
    </g>
    <g id="xtick_32">
     <g id="line2d_64">
      <g>
       <use style="stroke:#000000;stroke-width:0.8;" x="95.370698" xlink:href="#m089e665c6b" y="548.12"/>
      </g>
     </g>
     <g id="text_64">
      <!-- 20 -->
      <g transform="translate(89.008198 562.718438)scale(0.1 -0.1)">
       <use xlink:href="#DejaVuSans-50"/>
       <use x="63.623047" xlink:href="#DejaVuSans-48"/>
      </g>
     </g>
    </g>
    <g id="xtick_33">
     <g id="line2d_65">
      <g>
       <use style="stroke:#000000;stroke-width:0.8;" x="139.804123" xlink:href="#m089e665c6b" y="548.12"/>
      </g>
     </g>
     <g id="text_65">
      <!-- 40 -->
      <g transform="translate(133.441623 562.718438)scale(0.1 -0.1)">
       <use xlink:href="#DejaVuSans-52"/>
       <use x="63.623047" xlink:href="#DejaVuSans-48"/>
      </g>
     </g>
    </g>
    <g id="xtick_34">
     <g id="line2d_66">
      <g>
       <use style="stroke:#000000;stroke-width:0.8;" x="184.237548" xlink:href="#m089e665c6b" y="548.12"/>
      </g>
     </g>
     <g id="text_66">
      <!-- 60 -->
      <g transform="translate(177.875048 562.718438)scale(0.1 -0.1)">
       <use xlink:href="#DejaVuSans-54"/>
       <use x="63.623047" xlink:href="#DejaVuSans-48"/>
      </g>
     </g>
    </g>
    <g id="xtick_35">
     <g id="line2d_67">
      <g>
       <use style="stroke:#000000;stroke-width:0.8;" x="228.670973" xlink:href="#m089e665c6b" y="548.12"/>
      </g>
     </g>
     <g id="text_67">
      <!-- 80 -->
      <g transform="translate(222.308473 562.718438)scale(0.1 -0.1)">
       <use xlink:href="#DejaVuSans-56"/>
       <use x="63.623047" xlink:href="#DejaVuSans-48"/>
      </g>
     </g>
    </g>
    <g id="xtick_36">
     <g id="line2d_68">
      <g>
       <use style="stroke:#000000;stroke-width:0.8;" x="273.104399" xlink:href="#m089e665c6b" y="548.12"/>
      </g>
     </g>
     <g id="text_68">
      <!-- 100 -->
      <g transform="translate(263.560649 562.718438)scale(0.1 -0.1)">
       <use xlink:href="#DejaVuSans-49"/>
       <use x="63.623047" xlink:href="#DejaVuSans-48"/>
       <use x="127.246094" xlink:href="#DejaVuSans-48"/>
      </g>
     </g>
    </g>
   </g>
   <g id="matplotlib.axis_12">
    <g id="ytick_28">
     <g id="line2d_69">
      <g>
       <use style="stroke:#000000;stroke-width:0.8;" x="39.94" xlink:href="#m57312168de" y="542.242314"/>
      </g>
     </g>
     <g id="text_69">
      <!-- 0 -->
      <g transform="translate(26.5775 546.041532)scale(0.1 -0.1)">
       <use xlink:href="#DejaVuSans-48"/>
      </g>
     </g>
    </g>
    <g id="ytick_29">
     <g id="line2d_70">
      <g>
       <use style="stroke:#000000;stroke-width:0.8;" x="39.94" xlink:href="#m57312168de" y="518.052055"/>
      </g>
     </g>
     <g id="text_70">
      <!-- 10 -->
      <g transform="translate(20.215 521.851274)scale(0.1 -0.1)">
       <use xlink:href="#DejaVuSans-49"/>
       <use x="63.623047" xlink:href="#DejaVuSans-48"/>
      </g>
     </g>
    </g>
    <g id="ytick_30">
     <g id="line2d_71">
      <g>
       <use style="stroke:#000000;stroke-width:0.8;" x="39.94" xlink:href="#m57312168de" y="493.861796"/>
      </g>
     </g>
     <g id="text_71">
      <!-- 20 -->
      <g transform="translate(20.215 497.661015)scale(0.1 -0.1)">
       <use xlink:href="#DejaVuSans-50"/>
       <use x="63.623047" xlink:href="#DejaVuSans-48"/>
      </g>
     </g>
    </g>
    <g id="ytick_31">
     <g id="line2d_72">
      <g>
       <use style="stroke:#000000;stroke-width:0.8;" x="39.94" xlink:href="#m57312168de" y="469.671537"/>
      </g>
     </g>
     <g id="text_72">
      <!-- 30 -->
      <g transform="translate(20.215 473.470756)scale(0.1 -0.1)">
       <use xlink:href="#DejaVuSans-51"/>
       <use x="63.623047" xlink:href="#DejaVuSans-48"/>
      </g>
     </g>
    </g>
    <g id="ytick_32">
     <g id="line2d_73">
      <g>
       <use style="stroke:#000000;stroke-width:0.8;" x="39.94" xlink:href="#m57312168de" y="445.481279"/>
      </g>
     </g>
     <g id="text_73">
      <!-- 40 -->
      <g transform="translate(20.215 449.280497)scale(0.1 -0.1)">
       <use xlink:href="#DejaVuSans-52"/>
       <use x="63.623047" xlink:href="#DejaVuSans-48"/>
      </g>
     </g>
    </g>
    <g id="ytick_33">
     <g id="line2d_74">
      <g>
       <use style="stroke:#000000;stroke-width:0.8;" x="39.94" xlink:href="#m57312168de" y="421.29102"/>
      </g>
     </g>
     <g id="text_74">
      <!-- 50 -->
      <g transform="translate(20.215 425.090239)scale(0.1 -0.1)">
       <use xlink:href="#DejaVuSans-53"/>
       <use x="63.623047" xlink:href="#DejaVuSans-48"/>
      </g>
     </g>
    </g>
   </g>
   <g id="line2d_75">
    <path clip-path="url(#p8e238ff047)" d="M 50.937273 466.664032 
L 53.158944 461.848807 
L 55.380615 539.470619 
L 57.602287 504.232048 
L 59.823958 473.036331 
L 62.045629 470.826004 
L 64.2673 537.10709 
L 66.488972 492.863704 
L 68.710643 531.947138 
L 70.932314 537.731129 
L 73.153985 513.467035 
L 75.375657 445.169596 
L 77.597328 452.753931 
L 79.818999 509.43985 
L 82.04067 504.329292 
L 84.262342 522.075957 
L 86.484013 524.918392 
L 88.705684 533.345246 
L 90.927355 499.301973 
L 93.149027 490.506458 
L 95.370698 525.062548 
L 97.592369 535.620915 
L 99.81404 425.472289 
L 102.035712 532.675483 
L 104.257383 506.078293 
L 106.479054 536.030832 
L 108.700725 508.40729 
L 110.922397 533.46764 
L 113.144068 506.432218 
L 115.365739 495.9417 
L 117.58741 488.767102 
L 119.809082 469.369637 
L 122.030753 477.151982 
L 124.252424 533.764784 
L 126.474096 493.603312 
L 128.695767 521.489212 
L 130.917438 496.912545 
L 133.139109 514.504071 
L 135.360781 495.204964 
L 137.582452 538.219623 
L 139.804123 515.646352 
L 142.025794 486.705299 
L 144.247466 447.333477 
L 146.469137 441.820355 
L 148.690808 501.984177 
L 150.912479 532.484982 
L 153.134151 538.160113 
L 155.355822 526.024141 
L 157.577493 506.61132 
L 159.799164 529.30112 
L 162.020836 513.473749 
L 164.242507 540.81215 
L 166.464178 526.144786 
L 168.685849 535.972451 
L 170.907521 440.964721 
L 173.129192 461.906956 
L 175.350863 421.773784 
L 177.572534 408.870909 
L 179.794206 538.622278 
L 182.015877 499.141984 
L 184.237548 534.623244 
L 186.459219 523.683348 
L 188.680891 459.593367 
L 190.902562 446.753742 
L 193.124233 537.079177 
L 195.345904 410.570865 
L 197.567576 455.24102 
L 199.789247 518.668844 
L 202.010918 444.795346 
L 204.23259 522.9888 
L 206.454261 541.489091 
L 208.675932 533.513824 
L 210.897603 530.412435 
L 213.119275 499.703462 
L 215.340946 513.874607 
L 217.562617 471.775055 
L 219.784288 510.118186 
L 222.00596 531.598657 
L 224.227631 518.788506 
L 226.449302 537.360981 
L 228.670973 479.258306 
L 230.892645 445.125558 
L 233.114316 500.062224 
L 235.335987 538.733472 
L 237.557658 537.208012 
L 239.77933 527.435573 
L 242.001001 501.302401 
L 244.222672 529.260948 
L 246.444343 519.869884 
L 248.666015 529.472535 
L 250.887686 447.483158 
L 253.109357 521.032227 
L 255.331028 474.314776 
L 257.5527 532.95218 
L 259.774371 423.817911 
L 261.996042 475.07914 
L 264.217713 524.754775 
L 266.439385 494.977242 
L 268.661056 496.238842 
L 270.882727 456.788344 
" style="fill:none;stroke:#ff0000;stroke-linecap:square;stroke-width:1.5;"/>
   </g>
   <g id="patch_28">
    <path d="M 39.94 548.12 
L 39.94 402.24 
" style="fill:none;stroke:#000000;stroke-linecap:square;stroke-linejoin:miter;stroke-width:0.8;"/>
   </g>
   <g id="patch_29">
    <path d="M 281.88 548.12 
L 281.88 402.24 
" style="fill:none;stroke:#000000;stroke-linecap:square;stroke-linejoin:miter;stroke-width:0.8;"/>
   </g>
   <g id="patch_30">
    <path d="M 39.94 548.12 
L 281.88 548.12 
" style="fill:none;stroke:#000000;stroke-linecap:square;stroke-linejoin:miter;stroke-width:0.8;"/>
   </g>
   <g id="patch_31">
    <path d="M 39.94 402.24 
L 281.88 402.24 
" style="fill:none;stroke:#000000;stroke-linecap:square;stroke-linejoin:miter;stroke-width:0.8;"/>
   </g>
   <g id="text_75">
    <!-- Output signal 1 -->
    <defs>
     <path d="M 39.40625 66.21875 
Q 28.65625 66.21875 22.328125 58.203125 
Q 16.015625 50.203125 16.015625 36.375 
Q 16.015625 22.609375 22.328125 14.59375 
Q 28.65625 6.59375 39.40625 6.59375 
Q 50.140625 6.59375 56.421875 14.59375 
Q 62.703125 22.609375 62.703125 36.375 
Q 62.703125 50.203125 56.421875 58.203125 
Q 50.140625 66.21875 39.40625 66.21875 
z
M 39.40625 74.21875 
Q 54.734375 74.21875 63.90625 63.9375 
Q 73.09375 53.65625 73.09375 36.375 
Q 73.09375 19.140625 63.90625 8.859375 
Q 54.734375 -1.421875 39.40625 -1.421875 
Q 24.03125 -1.421875 14.8125 8.828125 
Q 5.609375 19.09375 5.609375 36.375 
Q 5.609375 53.65625 14.8125 63.9375 
Q 24.03125 74.21875 39.40625 74.21875 
z
" id="DejaVuSans-79"/>
    </defs>
    <g transform="translate(114.689375 396.24)scale(0.12 -0.12)">
     <use xlink:href="#DejaVuSans-79"/>
     <use x="78.710938" xlink:href="#DejaVuSans-117"/>
     <use x="142.089844" xlink:href="#DejaVuSans-116"/>
     <use x="181.298828" xlink:href="#DejaVuSans-112"/>
     <use x="244.775391" xlink:href="#DejaVuSans-117"/>
     <use x="308.154297" xlink:href="#DejaVuSans-116"/>
     <use x="347.363281" xlink:href="#DejaVuSans-32"/>
     <use x="379.150391" xlink:href="#DejaVuSans-115"/>
     <use x="431.25" xlink:href="#DejaVuSans-105"/>
     <use x="459.033203" xlink:href="#DejaVuSans-103"/>
     <use x="522.509766" xlink:href="#DejaVuSans-110"/>
     <use x="585.888672" xlink:href="#DejaVuSans-97"/>
     <use x="647.167969" xlink:href="#DejaVuSans-108"/>
     <use x="674.951172" xlink:href="#DejaVuSans-32"/>
     <use x="706.738281" xlink:href="#DejaVuSans-49"/>
    </g>
   </g>
  </g>
  <g id="axes_7">
   <g id="patch_32">
    <path d="M 324.34 548.12 
L 566.28 548.12 
L 566.28 402.24 
L 324.34 402.24 
z
" style="fill:#ffffff;"/>
   </g>
   <g id="matplotlib.axis_13">
    <g id="xtick_37">
     <g id="line2d_76">
      <g>
       <use style="stroke:#000000;stroke-width:0.8;" x="335.337273" xlink:href="#m089e665c6b" y="548.12"/>
      </g>
     </g>
     <g id="text_76">
      <!-- 0 -->
      <g transform="translate(332.156023 562.718438)scale(0.1 -0.1)">
       <use xlink:href="#DejaVuSans-48"/>
      </g>
     </g>
    </g>
    <g id="xtick_38">
     <g id="line2d_77">
      <g>
       <use style="stroke:#000000;stroke-width:0.8;" x="379.770698" xlink:href="#m089e665c6b" y="548.12"/>
      </g>
     </g>
     <g id="text_77">
      <!-- 20 -->
      <g transform="translate(373.408198 562.718438)scale(0.1 -0.1)">
       <use xlink:href="#DejaVuSans-50"/>
       <use x="63.623047" xlink:href="#DejaVuSans-48"/>
      </g>
     </g>
    </g>
    <g id="xtick_39">
     <g id="line2d_78">
      <g>
       <use style="stroke:#000000;stroke-width:0.8;" x="424.204123" xlink:href="#m089e665c6b" y="548.12"/>
      </g>
     </g>
     <g id="text_78">
      <!-- 40 -->
      <g transform="translate(417.841623 562.718438)scale(0.1 -0.1)">
       <use xlink:href="#DejaVuSans-52"/>
       <use x="63.623047" xlink:href="#DejaVuSans-48"/>
      </g>
     </g>
    </g>
    <g id="xtick_40">
     <g id="line2d_79">
      <g>
       <use style="stroke:#000000;stroke-width:0.8;" x="468.637548" xlink:href="#m089e665c6b" y="548.12"/>
      </g>
     </g>
     <g id="text_79">
      <!-- 60 -->
      <g transform="translate(462.275048 562.718438)scale(0.1 -0.1)">
       <use xlink:href="#DejaVuSans-54"/>
       <use x="63.623047" xlink:href="#DejaVuSans-48"/>
      </g>
     </g>
    </g>
    <g id="xtick_41">
     <g id="line2d_80">
      <g>
       <use style="stroke:#000000;stroke-width:0.8;" x="513.070973" xlink:href="#m089e665c6b" y="548.12"/>
      </g>
     </g>
     <g id="text_80">
      <!-- 80 -->
      <g transform="translate(506.708473 562.718438)scale(0.1 -0.1)">
       <use xlink:href="#DejaVuSans-56"/>
       <use x="63.623047" xlink:href="#DejaVuSans-48"/>
      </g>
     </g>
    </g>
    <g id="xtick_42">
     <g id="line2d_81">
      <g>
       <use style="stroke:#000000;stroke-width:0.8;" x="557.504399" xlink:href="#m089e665c6b" y="548.12"/>
      </g>
     </g>
     <g id="text_81">
      <!-- 100 -->
      <g transform="translate(547.960649 562.718438)scale(0.1 -0.1)">
       <use xlink:href="#DejaVuSans-49"/>
       <use x="63.623047" xlink:href="#DejaVuSans-48"/>
       <use x="127.246094" xlink:href="#DejaVuSans-48"/>
      </g>
     </g>
    </g>
   </g>
   <g id="matplotlib.axis_14">
    <g id="ytick_34">
     <g id="line2d_82">
      <g>
       <use style="stroke:#000000;stroke-width:0.8;" x="324.34" xlink:href="#m57312168de" y="542.222702"/>
      </g>
     </g>
     <g id="text_82">
      <!-- 0 -->
      <g transform="translate(310.9775 546.021921)scale(0.1 -0.1)">
       <use xlink:href="#DejaVuSans-48"/>
      </g>
     </g>
    </g>
    <g id="ytick_35">
     <g id="line2d_83">
      <g>
       <use style="stroke:#000000;stroke-width:0.8;" x="324.34" xlink:href="#m57312168de" y="513.900248"/>
      </g>
     </g>
     <g id="text_83">
      <!-- 10 -->
      <g transform="translate(304.615 517.699466)scale(0.1 -0.1)">
       <use xlink:href="#DejaVuSans-49"/>
       <use x="63.623047" xlink:href="#DejaVuSans-48"/>
      </g>
     </g>
    </g>
    <g id="ytick_36">
     <g id="line2d_84">
      <g>
       <use style="stroke:#000000;stroke-width:0.8;" x="324.34" xlink:href="#m57312168de" y="485.577793"/>
      </g>
     </g>
     <g id="text_84">
      <!-- 20 -->
      <g transform="translate(304.615 489.377012)scale(0.1 -0.1)">
       <use xlink:href="#DejaVuSans-50"/>
       <use x="63.623047" xlink:href="#DejaVuSans-48"/>
      </g>
     </g>
    </g>
    <g id="ytick_37">
     <g id="line2d_85">
      <g>
       <use style="stroke:#000000;stroke-width:0.8;" x="324.34" xlink:href="#m57312168de" y="457.255339"/>
      </g>
     </g>
     <g id="text_85">
      <!-- 30 -->
      <g transform="translate(304.615 461.054557)scale(0.1 -0.1)">
       <use xlink:href="#DejaVuSans-51"/>
       <use x="63.623047" xlink:href="#DejaVuSans-48"/>
      </g>
     </g>
    </g>
    <g id="ytick_38">
     <g id="line2d_86">
      <g>
       <use style="stroke:#000000;stroke-width:0.8;" x="324.34" xlink:href="#m57312168de" y="428.932884"/>
      </g>
     </g>
     <g id="text_86">
      <!-- 40 -->
      <g transform="translate(304.615 432.732103)scale(0.1 -0.1)">
       <use xlink:href="#DejaVuSans-52"/>
       <use x="63.623047" xlink:href="#DejaVuSans-48"/>
      </g>
     </g>
    </g>
   </g>
   <g id="line2d_87">
    <path clip-path="url(#p92f6df012d)" d="M 335.337273 469.349727 
L 337.558944 464.706862 
L 339.780615 525.701901 
L 342.002287 534.275702 
L 344.223958 508.010967 
L 346.445629 527.291329 
L 348.6673 511.613987 
L 350.888972 418.712051 
L 353.110643 480.857881 
L 355.332314 515.3336 
L 357.553985 470.247136 
L 359.775657 494.235144 
L 361.997328 523.512908 
L 364.218999 510.594394 
L 366.44067 447.390912 
L 368.662342 491.780622 
L 370.884013 438.962749 
L 373.105684 537.824468 
L 375.327355 520.995295 
L 377.549027 516.647263 
L 379.770698 439.821997 
L 381.992369 502.755579 
L 384.21404 517.808996 
L 386.435712 518.293201 
L 388.657383 451.765686 
L 390.879054 505.198906 
L 393.100725 525.496477 
L 395.322397 489.920892 
L 397.544068 507.694421 
L 399.765739 532.542396 
L 401.98741 490.661623 
L 404.209082 526.986839 
L 406.430753 479.462263 
L 408.652424 491.692037 
L 410.874096 518.178182 
L 413.095767 537.883745 
L 415.317438 519.81409 
L 417.539109 515.477344 
L 419.760781 518.969953 
L 421.982452 518.245288 
L 424.204123 536.662149 
L 426.425794 488.673622 
L 428.647466 495.304851 
L 430.869137 521.22697 
L 433.090808 441.525079 
L 435.312479 484.063719 
L 437.534151 532.011898 
L 439.755822 526.585055 
L 441.977493 453.098946 
L 444.199164 465.08618 
L 446.420836 514.483901 
L 448.642507 540.843731 
L 450.864178 501.957978 
L 453.085849 504.850923 
L 455.307521 521.048078 
L 457.529192 525.426578 
L 459.750863 517.03573 
L 461.972534 514.33806 
L 464.194206 520.645327 
L 466.415877 533.211496 
L 468.637548 496.808922 
L 470.859219 533.048143 
L 473.080891 524.942864 
L 475.302562 495.018262 
L 477.524233 529.308155 
L 479.745904 514.693479 
L 481.967576 524.032897 
L 484.189247 530.56924 
L 486.410918 521.848966 
L 488.63259 532.704795 
L 490.854261 540.338667 
L 493.075932 537.907804 
L 495.297603 471.710219 
L 497.519275 521.19377 
L 499.740946 471.266596 
L 501.962617 507.38746 
L 504.184288 511.24845 
L 506.40596 478.780747 
L 508.627631 530.628395 
L 510.849302 513.127314 
L 513.070973 511.086779 
L 515.292645 521.918005 
L 517.514316 521.371123 
L 519.735987 541.489091 
L 521.957658 512.215538 
L 524.17933 527.945965 
L 526.401001 502.748224 
L 528.622672 535.80541 
L 530.844343 408.870909 
L 533.066015 466.107905 
L 535.287686 495.378845 
L 537.509357 415.799097 
L 539.731028 476.726614 
L 541.9527 533.265107 
L 544.174371 517.463107 
L 546.396042 477.463618 
L 548.617713 437.987501 
L 550.839385 496.649472 
L 553.061056 427.154279 
L 555.282727 499.978832 
" style="fill:none;stroke:#ff0000;stroke-linecap:square;stroke-width:1.5;"/>
   </g>
   <g id="patch_33">
    <path d="M 324.34 548.12 
L 324.34 402.24 
" style="fill:none;stroke:#000000;stroke-linecap:square;stroke-linejoin:miter;stroke-width:0.8;"/>
   </g>
   <g id="patch_34">
    <path d="M 566.28 548.12 
L 566.28 402.24 
" style="fill:none;stroke:#000000;stroke-linecap:square;stroke-linejoin:miter;stroke-width:0.8;"/>
   </g>
   <g id="patch_35">
    <path d="M 324.34 548.12 
L 566.28 548.12 
" style="fill:none;stroke:#000000;stroke-linecap:square;stroke-linejoin:miter;stroke-width:0.8;"/>
   </g>
   <g id="patch_36">
    <path d="M 324.34 402.24 
L 566.28 402.24 
" style="fill:none;stroke:#000000;stroke-linecap:square;stroke-linejoin:miter;stroke-width:0.8;"/>
   </g>
   <g id="text_87">
    <!-- Output signal 2 -->
    <g transform="translate(399.089375 396.24)scale(0.12 -0.12)">
     <use xlink:href="#DejaVuSans-79"/>
     <use x="78.710938" xlink:href="#DejaVuSans-117"/>
     <use x="142.089844" xlink:href="#DejaVuSans-116"/>
     <use x="181.298828" xlink:href="#DejaVuSans-112"/>
     <use x="244.775391" xlink:href="#DejaVuSans-117"/>
     <use x="308.154297" xlink:href="#DejaVuSans-116"/>
     <use x="347.363281" xlink:href="#DejaVuSans-32"/>
     <use x="379.150391" xlink:href="#DejaVuSans-115"/>
     <use x="431.25" xlink:href="#DejaVuSans-105"/>
     <use x="459.033203" xlink:href="#DejaVuSans-103"/>
     <use x="522.509766" xlink:href="#DejaVuSans-110"/>
     <use x="585.888672" xlink:href="#DejaVuSans-97"/>
     <use x="647.167969" xlink:href="#DejaVuSans-108"/>
     <use x="674.951172" xlink:href="#DejaVuSans-32"/>
     <use x="706.738281" xlink:href="#DejaVuSans-50"/>
    </g>
   </g>
  </g>
  <g id="axes_8">
   <g id="patch_37">
    <path d="M 608.74 548.12 
L 850.68 548.12 
L 850.68 402.24 
L 608.74 402.24 
z
" style="fill:#ffffff;"/>
   </g>
   <g id="matplotlib.axis_15">
    <g id="xtick_43">
     <g id="line2d_88">
      <g>
       <use style="stroke:#000000;stroke-width:0.8;" x="619.737273" xlink:href="#m089e665c6b" y="548.12"/>
      </g>
     </g>
     <g id="text_88">
      <!-- 0 -->
      <g transform="translate(616.556023 562.718438)scale(0.1 -0.1)">
       <use xlink:href="#DejaVuSans-48"/>
      </g>
     </g>
    </g>
    <g id="xtick_44">
     <g id="line2d_89">
      <g>
       <use style="stroke:#000000;stroke-width:0.8;" x="664.170698" xlink:href="#m089e665c6b" y="548.12"/>
      </g>
     </g>
     <g id="text_89">
      <!-- 20 -->
      <g transform="translate(657.808198 562.718438)scale(0.1 -0.1)">
       <use xlink:href="#DejaVuSans-50"/>
       <use x="63.623047" xlink:href="#DejaVuSans-48"/>
      </g>
     </g>
    </g>
    <g id="xtick_45">
     <g id="line2d_90">
      <g>
       <use style="stroke:#000000;stroke-width:0.8;" x="708.604123" xlink:href="#m089e665c6b" y="548.12"/>
      </g>
     </g>
     <g id="text_90">
      <!-- 40 -->
      <g transform="translate(702.241623 562.718438)scale(0.1 -0.1)">
       <use xlink:href="#DejaVuSans-52"/>
       <use x="63.623047" xlink:href="#DejaVuSans-48"/>
      </g>
     </g>
    </g>
    <g id="xtick_46">
     <g id="line2d_91">
      <g>
       <use style="stroke:#000000;stroke-width:0.8;" x="753.037548" xlink:href="#m089e665c6b" y="548.12"/>
      </g>
     </g>
     <g id="text_91">
      <!-- 60 -->
      <g transform="translate(746.675048 562.718438)scale(0.1 -0.1)">
       <use xlink:href="#DejaVuSans-54"/>
       <use x="63.623047" xlink:href="#DejaVuSans-48"/>
      </g>
     </g>
    </g>
    <g id="xtick_47">
     <g id="line2d_92">
      <g>
       <use style="stroke:#000000;stroke-width:0.8;" x="797.470973" xlink:href="#m089e665c6b" y="548.12"/>
      </g>
     </g>
     <g id="text_92">
      <!-- 80 -->
      <g transform="translate(791.108473 562.718438)scale(0.1 -0.1)">
       <use xlink:href="#DejaVuSans-56"/>
       <use x="63.623047" xlink:href="#DejaVuSans-48"/>
      </g>
     </g>
    </g>
    <g id="xtick_48">
     <g id="line2d_93">
      <g>
       <use style="stroke:#000000;stroke-width:0.8;" x="841.904399" xlink:href="#m089e665c6b" y="548.12"/>
      </g>
     </g>
     <g id="text_93">
      <!-- 100 -->
      <g transform="translate(832.360649 562.718438)scale(0.1 -0.1)">
       <use xlink:href="#DejaVuSans-49"/>
       <use x="63.623047" xlink:href="#DejaVuSans-48"/>
       <use x="127.246094" xlink:href="#DejaVuSans-48"/>
      </g>
     </g>
    </g>
   </g>
   <g id="matplotlib.axis_16">
    <g id="ytick_39">
     <g id="line2d_94">
      <g>
       <use style="stroke:#000000;stroke-width:0.8;" x="608.74" xlink:href="#m57312168de" y="542.622211"/>
      </g>
     </g>
     <g id="text_94">
      <!-- 0 -->
      <g transform="translate(595.3775 546.42143)scale(0.1 -0.1)">
       <use xlink:href="#DejaVuSans-48"/>
      </g>
     </g>
    </g>
    <g id="ytick_40">
     <g id="line2d_95">
      <g>
       <use style="stroke:#000000;stroke-width:0.8;" x="608.74" xlink:href="#m57312168de" y="500.959133"/>
      </g>
     </g>
     <g id="text_95">
      <!-- 20 -->
      <g transform="translate(589.015 504.758351)scale(0.1 -0.1)">
       <use xlink:href="#DejaVuSans-50"/>
       <use x="63.623047" xlink:href="#DejaVuSans-48"/>
      </g>
     </g>
    </g>
    <g id="ytick_41">
     <g id="line2d_96">
      <g>
       <use style="stroke:#000000;stroke-width:0.8;" x="608.74" xlink:href="#m57312168de" y="459.296054"/>
      </g>
     </g>
     <g id="text_96">
      <!-- 40 -->
      <g transform="translate(589.015 463.095273)scale(0.1 -0.1)">
       <use xlink:href="#DejaVuSans-52"/>
       <use x="63.623047" xlink:href="#DejaVuSans-48"/>
      </g>
     </g>
    </g>
    <g id="ytick_42">
     <g id="line2d_97">
      <g>
       <use style="stroke:#000000;stroke-width:0.8;" x="608.74" xlink:href="#m57312168de" y="417.632976"/>
      </g>
     </g>
     <g id="text_97">
      <!-- 60 -->
      <g transform="translate(589.015 421.432195)scale(0.1 -0.1)">
       <use xlink:href="#DejaVuSans-54"/>
       <use x="63.623047" xlink:href="#DejaVuSans-48"/>
      </g>
     </g>
    </g>
   </g>
   <g id="line2d_98">
    <path clip-path="url(#pc9f577bfbc)" d="M 619.737273 481.366171 
L 621.958944 477.463441 
L 624.180615 530.68793 
L 626.402287 530.347451 
L 628.623958 447.266992 
L 630.845629 519.559544 
L 633.0673 520.511117 
L 635.288972 418.920132 
L 637.510643 498.29355 
L 639.732314 523.198087 
L 641.953985 470.535091 
L 644.175657 408.870909 
L 646.397328 513.72348 
L 648.618999 516.035882 
L 650.84067 447.643442 
L 653.062342 492.101951 
L 655.284013 468.029386 
L 657.505684 530.363417 
L 659.727355 483.457015 
L 661.949027 471.338145 
L 664.170698 468.650089 
L 666.392369 514.111988 
L 668.61404 504.913344 
L 670.835712 518.655622 
L 673.057383 452.024997 
L 675.279054 515.876997 
L 677.500725 496.002743 
L 679.722397 504.84048 
L 681.944068 513.598203 
L 684.165739 527.670225 
L 686.38741 499.280663 
L 688.609082 519.089236 
L 690.830753 489.866632 
L 693.052424 506.119918 
L 695.274096 475.605133 
L 697.495767 535.920354 
L 699.717438 480.164749 
L 701.939109 520.140423 
L 704.160781 477.811964 
L 706.382452 525.301429 
L 708.604123 534.033503 
L 710.825794 497.609576 
L 713.047466 411.852406 
L 715.269137 510.19267 
L 717.490808 441.768518 
L 719.712479 500.60938 
L 721.934151 532.395581 
L 724.155822 529.477415 
L 726.377493 453.360323 
L 728.599164 486.900404 
L 730.820836 519.305349 
L 733.042507 541.463066 
L 735.264178 502.29508 
L 737.485849 515.625621 
L 739.707521 509.916358 
L 741.929192 516.679292 
L 744.150863 503.718975 
L 746.372534 499.552214 
L 748.594206 527.035167 
L 750.815877 528.703702 
L 753.037548 509.816248 
L 755.259219 517.050806 
L 757.480891 515.932158 
L 759.702562 411.05362 
L 761.924233 529.687648 
L 764.145904 500.101186 
L 766.367576 514.526643 
L 768.589247 510.141589 
L 770.810918 511.153392 
L 773.03259 516.093825 
L 775.254261 540.735255 
L 777.475932 530.595692 
L 779.697603 491.685471 
L 781.919275 484.010205 
L 784.140946 471.556131 
L 786.362617 445.529148 
L 788.584288 516.585672 
L 790.80596 496.793072 
L 793.027631 510.306465 
L 795.249302 521.604312 
L 797.470973 455.839918 
L 799.692645 511.260028 
L 801.914316 484.504523 
L 804.135987 541.489091 
L 806.357658 520.945665 
L 808.57933 530.621378 
L 810.801001 509.440497 
L 813.022672 524.735882 
L 815.244343 446.291671 
L 817.466015 487.638477 
L 819.687686 412.058643 
L 821.909357 451.296449 
L 824.131028 487.567083 
L 826.3527 535.092577 
L 828.574371 504.379091 
L 830.796042 488.186598 
L 833.017713 467.324887 
L 835.239385 504.313968 
L 837.461056 427.375445 
L 839.682727 424.879761 
" style="fill:none;stroke:#ff0000;stroke-linecap:square;stroke-width:1.5;"/>
   </g>
   <g id="patch_38">
    <path d="M 608.74 548.12 
L 608.74 402.24 
" style="fill:none;stroke:#000000;stroke-linecap:square;stroke-linejoin:miter;stroke-width:0.8;"/>
   </g>
   <g id="patch_39">
    <path d="M 850.68 548.12 
L 850.68 402.24 
" style="fill:none;stroke:#000000;stroke-linecap:square;stroke-linejoin:miter;stroke-width:0.8;"/>
   </g>
   <g id="patch_40">
    <path d="M 608.74 548.12 
L 850.68 548.12 
" style="fill:none;stroke:#000000;stroke-linecap:square;stroke-linejoin:miter;stroke-width:0.8;"/>
   </g>
   <g id="patch_41">
    <path d="M 608.74 402.24 
L 850.68 402.24 
" style="fill:none;stroke:#000000;stroke-linecap:square;stroke-linejoin:miter;stroke-width:0.8;"/>
   </g>
   <g id="text_98">
    <!-- Output signal 3 -->
    <g transform="translate(683.489375 396.24)scale(0.12 -0.12)">
     <use xlink:href="#DejaVuSans-79"/>
     <use x="78.710938" xlink:href="#DejaVuSans-117"/>
     <use x="142.089844" xlink:href="#DejaVuSans-116"/>
     <use x="181.298828" xlink:href="#DejaVuSans-112"/>
     <use x="244.775391" xlink:href="#DejaVuSans-117"/>
     <use x="308.154297" xlink:href="#DejaVuSans-116"/>
     <use x="347.363281" xlink:href="#DejaVuSans-32"/>
     <use x="379.150391" xlink:href="#DejaVuSans-115"/>
     <use x="431.25" xlink:href="#DejaVuSans-105"/>
     <use x="459.033203" xlink:href="#DejaVuSans-103"/>
     <use x="522.509766" xlink:href="#DejaVuSans-110"/>
     <use x="585.888672" xlink:href="#DejaVuSans-97"/>
     <use x="647.167969" xlink:href="#DejaVuSans-108"/>
     <use x="674.951172" xlink:href="#DejaVuSans-32"/>
     <use x="706.738281" xlink:href="#DejaVuSans-51"/>
    </g>
   </g>
  </g>
 </g>
 <defs>
  <clipPath id="pcb4361022c">
   <rect height="145.88" width="384.14" x="39.94" y="25.44"/>
  </clipPath>
  <clipPath id="p7e160b9e01">
   <rect height="145.88" width="384.14" x="466.54" y="25.44"/>
  </clipPath>
  <clipPath id="p18ddce9077">
   <rect height="145.88" width="241.94" x="39.94" y="213.84"/>
  </clipPath>
  <clipPath id="p94d3999f72">
   <rect height="145.88" width="241.94" x="324.34" y="213.84"/>
  </clipPath>
  <clipPath id="pe9bf108484">
   <rect height="145.88" width="241.94" x="608.74" y="213.84"/>
  </clipPath>
  <clipPath id="p8e238ff047">
   <rect height="145.88" width="241.94" x="39.94" y="402.24"/>
  </clipPath>
  <clipPath id="p92f6df012d">
   <rect height="145.88" width="241.94" x="324.34" y="402.24"/>
  </clipPath>
  <clipPath id="pc9f577bfbc">
   <rect height="145.88" width="241.94" x="608.74" y="402.24"/>
  </clipPath>
 </defs>
</svg>
